G04 #@! TF.GenerationSoftware,KiCad,Pcbnew,7.0.8-7.0.8~ubuntu22.04.1*
G04 #@! TF.CreationDate,2024-11-12T17:52:49+09:00*
G04 #@! TF.ProjectId,ch32v203KeyBoardBadCable,63683332-7632-4303-934b-6579426f6172,rev?*
G04 #@! TF.SameCoordinates,Original*
G04 #@! TF.FileFunction,Legend,Bot*
G04 #@! TF.FilePolarity,Positive*
%FSLAX46Y46*%
G04 Gerber Fmt 4.6, Leading zero omitted, Abs format (unit mm)*
G04 Created by KiCad (PCBNEW 7.0.8-7.0.8~ubuntu22.04.1) date 2024-11-12 17:52:49*
%MOMM*%
%LPD*%
G01*
G04 APERTURE LIST*
%ADD10C,0.125000*%
%ADD11C,0.175000*%
%ADD12C,0.150000*%
%ADD13C,0.010000*%
%ADD14C,0.120000*%
%ADD15C,0.002540*%
G04 APERTURE END LIST*
D10*
X106193840Y-97020680D02*
X106241459Y-97068300D01*
X106241459Y-97068300D02*
X106384316Y-97115919D01*
X106384316Y-97115919D02*
X106479554Y-97115919D01*
X106479554Y-97115919D02*
X106622411Y-97068300D01*
X106622411Y-97068300D02*
X106717649Y-96973061D01*
X106717649Y-96973061D02*
X106765268Y-96877823D01*
X106765268Y-96877823D02*
X106812887Y-96687347D01*
X106812887Y-96687347D02*
X106812887Y-96544490D01*
X106812887Y-96544490D02*
X106765268Y-96354014D01*
X106765268Y-96354014D02*
X106717649Y-96258776D01*
X106717649Y-96258776D02*
X106622411Y-96163538D01*
X106622411Y-96163538D02*
X106479554Y-96115919D01*
X106479554Y-96115919D02*
X106384316Y-96115919D01*
X106384316Y-96115919D02*
X106241459Y-96163538D01*
X106241459Y-96163538D02*
X106193840Y-96211157D01*
X105765268Y-97115919D02*
X105765268Y-96115919D01*
X105765268Y-96592109D02*
X105193840Y-96592109D01*
X105193840Y-97115919D02*
X105193840Y-96115919D01*
X104812887Y-96115919D02*
X104193840Y-96115919D01*
X104193840Y-96115919D02*
X104527173Y-96496871D01*
X104527173Y-96496871D02*
X104384316Y-96496871D01*
X104384316Y-96496871D02*
X104289078Y-96544490D01*
X104289078Y-96544490D02*
X104241459Y-96592109D01*
X104241459Y-96592109D02*
X104193840Y-96687347D01*
X104193840Y-96687347D02*
X104193840Y-96925442D01*
X104193840Y-96925442D02*
X104241459Y-97020680D01*
X104241459Y-97020680D02*
X104289078Y-97068300D01*
X104289078Y-97068300D02*
X104384316Y-97115919D01*
X104384316Y-97115919D02*
X104670030Y-97115919D01*
X104670030Y-97115919D02*
X104765268Y-97068300D01*
X104765268Y-97068300D02*
X104812887Y-97020680D01*
X103812887Y-96211157D02*
X103765268Y-96163538D01*
X103765268Y-96163538D02*
X103670030Y-96115919D01*
X103670030Y-96115919D02*
X103431935Y-96115919D01*
X103431935Y-96115919D02*
X103336697Y-96163538D01*
X103336697Y-96163538D02*
X103289078Y-96211157D01*
X103289078Y-96211157D02*
X103241459Y-96306395D01*
X103241459Y-96306395D02*
X103241459Y-96401633D01*
X103241459Y-96401633D02*
X103289078Y-96544490D01*
X103289078Y-96544490D02*
X103860506Y-97115919D01*
X103860506Y-97115919D02*
X103241459Y-97115919D01*
X102955744Y-96115919D02*
X102622411Y-97115919D01*
X102622411Y-97115919D02*
X102289078Y-96115919D01*
X102003363Y-96211157D02*
X101955744Y-96163538D01*
X101955744Y-96163538D02*
X101860506Y-96115919D01*
X101860506Y-96115919D02*
X101622411Y-96115919D01*
X101622411Y-96115919D02*
X101527173Y-96163538D01*
X101527173Y-96163538D02*
X101479554Y-96211157D01*
X101479554Y-96211157D02*
X101431935Y-96306395D01*
X101431935Y-96306395D02*
X101431935Y-96401633D01*
X101431935Y-96401633D02*
X101479554Y-96544490D01*
X101479554Y-96544490D02*
X102050982Y-97115919D01*
X102050982Y-97115919D02*
X101431935Y-97115919D01*
X100812887Y-96115919D02*
X100717649Y-96115919D01*
X100717649Y-96115919D02*
X100622411Y-96163538D01*
X100622411Y-96163538D02*
X100574792Y-96211157D01*
X100574792Y-96211157D02*
X100527173Y-96306395D01*
X100527173Y-96306395D02*
X100479554Y-96496871D01*
X100479554Y-96496871D02*
X100479554Y-96734966D01*
X100479554Y-96734966D02*
X100527173Y-96925442D01*
X100527173Y-96925442D02*
X100574792Y-97020680D01*
X100574792Y-97020680D02*
X100622411Y-97068300D01*
X100622411Y-97068300D02*
X100717649Y-97115919D01*
X100717649Y-97115919D02*
X100812887Y-97115919D01*
X100812887Y-97115919D02*
X100908125Y-97068300D01*
X100908125Y-97068300D02*
X100955744Y-97020680D01*
X100955744Y-97020680D02*
X101003363Y-96925442D01*
X101003363Y-96925442D02*
X101050982Y-96734966D01*
X101050982Y-96734966D02*
X101050982Y-96496871D01*
X101050982Y-96496871D02*
X101003363Y-96306395D01*
X101003363Y-96306395D02*
X100955744Y-96211157D01*
X100955744Y-96211157D02*
X100908125Y-96163538D01*
X100908125Y-96163538D02*
X100812887Y-96115919D01*
X100146220Y-96115919D02*
X99527173Y-96115919D01*
X99527173Y-96115919D02*
X99860506Y-96496871D01*
X99860506Y-96496871D02*
X99717649Y-96496871D01*
X99717649Y-96496871D02*
X99622411Y-96544490D01*
X99622411Y-96544490D02*
X99574792Y-96592109D01*
X99574792Y-96592109D02*
X99527173Y-96687347D01*
X99527173Y-96687347D02*
X99527173Y-96925442D01*
X99527173Y-96925442D02*
X99574792Y-97020680D01*
X99574792Y-97020680D02*
X99622411Y-97068300D01*
X99622411Y-97068300D02*
X99717649Y-97115919D01*
X99717649Y-97115919D02*
X100003363Y-97115919D01*
X100003363Y-97115919D02*
X100098601Y-97068300D01*
X100098601Y-97068300D02*
X100146220Y-97020680D01*
X99098601Y-97115919D02*
X99098601Y-96115919D01*
X98527173Y-97115919D02*
X98955744Y-96544490D01*
X98527173Y-96115919D02*
X99098601Y-96687347D01*
X98098601Y-96592109D02*
X97765268Y-96592109D01*
X97622411Y-97115919D02*
X98098601Y-97115919D01*
X98098601Y-97115919D02*
X98098601Y-96115919D01*
X98098601Y-96115919D02*
X97622411Y-96115919D01*
X97003363Y-96639728D02*
X97003363Y-97115919D01*
X97336696Y-96115919D02*
X97003363Y-96639728D01*
X97003363Y-96639728D02*
X96670030Y-96115919D01*
X96003363Y-96592109D02*
X95860506Y-96639728D01*
X95860506Y-96639728D02*
X95812887Y-96687347D01*
X95812887Y-96687347D02*
X95765268Y-96782585D01*
X95765268Y-96782585D02*
X95765268Y-96925442D01*
X95765268Y-96925442D02*
X95812887Y-97020680D01*
X95812887Y-97020680D02*
X95860506Y-97068300D01*
X95860506Y-97068300D02*
X95955744Y-97115919D01*
X95955744Y-97115919D02*
X96336696Y-97115919D01*
X96336696Y-97115919D02*
X96336696Y-96115919D01*
X96336696Y-96115919D02*
X96003363Y-96115919D01*
X96003363Y-96115919D02*
X95908125Y-96163538D01*
X95908125Y-96163538D02*
X95860506Y-96211157D01*
X95860506Y-96211157D02*
X95812887Y-96306395D01*
X95812887Y-96306395D02*
X95812887Y-96401633D01*
X95812887Y-96401633D02*
X95860506Y-96496871D01*
X95860506Y-96496871D02*
X95908125Y-96544490D01*
X95908125Y-96544490D02*
X96003363Y-96592109D01*
X96003363Y-96592109D02*
X96336696Y-96592109D01*
X95146220Y-96115919D02*
X94955744Y-96115919D01*
X94955744Y-96115919D02*
X94860506Y-96163538D01*
X94860506Y-96163538D02*
X94765268Y-96258776D01*
X94765268Y-96258776D02*
X94717649Y-96449252D01*
X94717649Y-96449252D02*
X94717649Y-96782585D01*
X94717649Y-96782585D02*
X94765268Y-96973061D01*
X94765268Y-96973061D02*
X94860506Y-97068300D01*
X94860506Y-97068300D02*
X94955744Y-97115919D01*
X94955744Y-97115919D02*
X95146220Y-97115919D01*
X95146220Y-97115919D02*
X95241458Y-97068300D01*
X95241458Y-97068300D02*
X95336696Y-96973061D01*
X95336696Y-96973061D02*
X95384315Y-96782585D01*
X95384315Y-96782585D02*
X95384315Y-96449252D01*
X95384315Y-96449252D02*
X95336696Y-96258776D01*
X95336696Y-96258776D02*
X95241458Y-96163538D01*
X95241458Y-96163538D02*
X95146220Y-96115919D01*
X94336696Y-96830204D02*
X93860506Y-96830204D01*
X94431934Y-97115919D02*
X94098601Y-96115919D01*
X94098601Y-96115919D02*
X93765268Y-97115919D01*
X92860506Y-97115919D02*
X93193839Y-96639728D01*
X93431934Y-97115919D02*
X93431934Y-96115919D01*
X93431934Y-96115919D02*
X93050982Y-96115919D01*
X93050982Y-96115919D02*
X92955744Y-96163538D01*
X92955744Y-96163538D02*
X92908125Y-96211157D01*
X92908125Y-96211157D02*
X92860506Y-96306395D01*
X92860506Y-96306395D02*
X92860506Y-96449252D01*
X92860506Y-96449252D02*
X92908125Y-96544490D01*
X92908125Y-96544490D02*
X92955744Y-96592109D01*
X92955744Y-96592109D02*
X93050982Y-96639728D01*
X93050982Y-96639728D02*
X93431934Y-96639728D01*
X92431934Y-97115919D02*
X92431934Y-96115919D01*
X92431934Y-96115919D02*
X92193839Y-96115919D01*
X92193839Y-96115919D02*
X92050982Y-96163538D01*
X92050982Y-96163538D02*
X91955744Y-96258776D01*
X91955744Y-96258776D02*
X91908125Y-96354014D01*
X91908125Y-96354014D02*
X91860506Y-96544490D01*
X91860506Y-96544490D02*
X91860506Y-96687347D01*
X91860506Y-96687347D02*
X91908125Y-96877823D01*
X91908125Y-96877823D02*
X91955744Y-96973061D01*
X91955744Y-96973061D02*
X92050982Y-97068300D01*
X92050982Y-97068300D02*
X92193839Y-97115919D01*
X92193839Y-97115919D02*
X92431934Y-97115919D01*
X90812886Y-96115919D02*
X90479553Y-97115919D01*
X90479553Y-97115919D02*
X90146220Y-96115919D01*
X89431934Y-97068300D02*
X89527172Y-97115919D01*
X89527172Y-97115919D02*
X89717648Y-97115919D01*
X89717648Y-97115919D02*
X89812886Y-97068300D01*
X89812886Y-97068300D02*
X89860505Y-96973061D01*
X89860505Y-96973061D02*
X89860505Y-96592109D01*
X89860505Y-96592109D02*
X89812886Y-96496871D01*
X89812886Y-96496871D02*
X89717648Y-96449252D01*
X89717648Y-96449252D02*
X89527172Y-96449252D01*
X89527172Y-96449252D02*
X89431934Y-96496871D01*
X89431934Y-96496871D02*
X89384315Y-96592109D01*
X89384315Y-96592109D02*
X89384315Y-96687347D01*
X89384315Y-96687347D02*
X89860505Y-96782585D01*
X88955743Y-97115919D02*
X88955743Y-96449252D01*
X88955743Y-96639728D02*
X88908124Y-96544490D01*
X88908124Y-96544490D02*
X88860505Y-96496871D01*
X88860505Y-96496871D02*
X88765267Y-96449252D01*
X88765267Y-96449252D02*
X88670029Y-96449252D01*
X88336695Y-97020680D02*
X88289076Y-97068300D01*
X88289076Y-97068300D02*
X88336695Y-97115919D01*
X88336695Y-97115919D02*
X88384314Y-97068300D01*
X88384314Y-97068300D02*
X88336695Y-97020680D01*
X88336695Y-97020680D02*
X88336695Y-97115919D01*
X87908124Y-96211157D02*
X87860505Y-96163538D01*
X87860505Y-96163538D02*
X87765267Y-96115919D01*
X87765267Y-96115919D02*
X87527172Y-96115919D01*
X87527172Y-96115919D02*
X87431934Y-96163538D01*
X87431934Y-96163538D02*
X87384315Y-96211157D01*
X87384315Y-96211157D02*
X87336696Y-96306395D01*
X87336696Y-96306395D02*
X87336696Y-96401633D01*
X87336696Y-96401633D02*
X87384315Y-96544490D01*
X87384315Y-96544490D02*
X87955743Y-97115919D01*
X87955743Y-97115919D02*
X87336696Y-97115919D01*
X86717648Y-96115919D02*
X86622410Y-96115919D01*
X86622410Y-96115919D02*
X86527172Y-96163538D01*
X86527172Y-96163538D02*
X86479553Y-96211157D01*
X86479553Y-96211157D02*
X86431934Y-96306395D01*
X86431934Y-96306395D02*
X86384315Y-96496871D01*
X86384315Y-96496871D02*
X86384315Y-96734966D01*
X86384315Y-96734966D02*
X86431934Y-96925442D01*
X86431934Y-96925442D02*
X86479553Y-97020680D01*
X86479553Y-97020680D02*
X86527172Y-97068300D01*
X86527172Y-97068300D02*
X86622410Y-97115919D01*
X86622410Y-97115919D02*
X86717648Y-97115919D01*
X86717648Y-97115919D02*
X86812886Y-97068300D01*
X86812886Y-97068300D02*
X86860505Y-97020680D01*
X86860505Y-97020680D02*
X86908124Y-96925442D01*
X86908124Y-96925442D02*
X86955743Y-96734966D01*
X86955743Y-96734966D02*
X86955743Y-96496871D01*
X86955743Y-96496871D02*
X86908124Y-96306395D01*
X86908124Y-96306395D02*
X86860505Y-96211157D01*
X86860505Y-96211157D02*
X86812886Y-96163538D01*
X86812886Y-96163538D02*
X86717648Y-96115919D01*
X86003362Y-96211157D02*
X85955743Y-96163538D01*
X85955743Y-96163538D02*
X85860505Y-96115919D01*
X85860505Y-96115919D02*
X85622410Y-96115919D01*
X85622410Y-96115919D02*
X85527172Y-96163538D01*
X85527172Y-96163538D02*
X85479553Y-96211157D01*
X85479553Y-96211157D02*
X85431934Y-96306395D01*
X85431934Y-96306395D02*
X85431934Y-96401633D01*
X85431934Y-96401633D02*
X85479553Y-96544490D01*
X85479553Y-96544490D02*
X86050981Y-97115919D01*
X86050981Y-97115919D02*
X85431934Y-97115919D01*
X84574791Y-96449252D02*
X84574791Y-97115919D01*
X84812886Y-96068300D02*
X85050981Y-96782585D01*
X85050981Y-96782585D02*
X84431934Y-96782585D01*
X83527172Y-97115919D02*
X84098600Y-97115919D01*
X83812886Y-97115919D02*
X83812886Y-96115919D01*
X83812886Y-96115919D02*
X83908124Y-96258776D01*
X83908124Y-96258776D02*
X84003362Y-96354014D01*
X84003362Y-96354014D02*
X84098600Y-96401633D01*
X82574791Y-97115919D02*
X83146219Y-97115919D01*
X82860505Y-97115919D02*
X82860505Y-96115919D01*
X82860505Y-96115919D02*
X82955743Y-96258776D01*
X82955743Y-96258776D02*
X83050981Y-96354014D01*
X83050981Y-96354014D02*
X83146219Y-96401633D01*
X81622410Y-97115919D02*
X82193838Y-97115919D01*
X81908124Y-97115919D02*
X81908124Y-96115919D01*
X81908124Y-96115919D02*
X82003362Y-96258776D01*
X82003362Y-96258776D02*
X82098600Y-96354014D01*
X82098600Y-96354014D02*
X82193838Y-96401633D01*
X81241457Y-96211157D02*
X81193838Y-96163538D01*
X81193838Y-96163538D02*
X81098600Y-96115919D01*
X81098600Y-96115919D02*
X80860505Y-96115919D01*
X80860505Y-96115919D02*
X80765267Y-96163538D01*
X80765267Y-96163538D02*
X80717648Y-96211157D01*
X80717648Y-96211157D02*
X80670029Y-96306395D01*
X80670029Y-96306395D02*
X80670029Y-96401633D01*
X80670029Y-96401633D02*
X80717648Y-96544490D01*
X80717648Y-96544490D02*
X81289076Y-97115919D01*
X81289076Y-97115919D02*
X80670029Y-97115919D01*
X80241457Y-96734966D02*
X79479553Y-96734966D01*
X79050981Y-96211157D02*
X79003362Y-96163538D01*
X79003362Y-96163538D02*
X78908124Y-96115919D01*
X78908124Y-96115919D02*
X78670029Y-96115919D01*
X78670029Y-96115919D02*
X78574791Y-96163538D01*
X78574791Y-96163538D02*
X78527172Y-96211157D01*
X78527172Y-96211157D02*
X78479553Y-96306395D01*
X78479553Y-96306395D02*
X78479553Y-96401633D01*
X78479553Y-96401633D02*
X78527172Y-96544490D01*
X78527172Y-96544490D02*
X79098600Y-97115919D01*
X79098600Y-97115919D02*
X78479553Y-97115919D01*
D11*
X145267397Y-67229566D02*
X145500731Y-66529566D01*
X145500731Y-66529566D02*
X145734064Y-67229566D01*
X146367397Y-66596233D02*
X146334064Y-66562900D01*
X146334064Y-66562900D02*
X146234064Y-66529566D01*
X146234064Y-66529566D02*
X146167397Y-66529566D01*
X146167397Y-66529566D02*
X146067397Y-66562900D01*
X146067397Y-66562900D02*
X146000731Y-66629566D01*
X146000731Y-66629566D02*
X145967397Y-66696233D01*
X145967397Y-66696233D02*
X145934064Y-66829566D01*
X145934064Y-66829566D02*
X145934064Y-66929566D01*
X145934064Y-66929566D02*
X145967397Y-67062900D01*
X145967397Y-67062900D02*
X146000731Y-67129566D01*
X146000731Y-67129566D02*
X146067397Y-67196233D01*
X146067397Y-67196233D02*
X146167397Y-67229566D01*
X146167397Y-67229566D02*
X146234064Y-67229566D01*
X146234064Y-67229566D02*
X146334064Y-67196233D01*
X146334064Y-67196233D02*
X146367397Y-67162900D01*
X147067397Y-66596233D02*
X147034064Y-66562900D01*
X147034064Y-66562900D02*
X146934064Y-66529566D01*
X146934064Y-66529566D02*
X146867397Y-66529566D01*
X146867397Y-66529566D02*
X146767397Y-66562900D01*
X146767397Y-66562900D02*
X146700731Y-66629566D01*
X146700731Y-66629566D02*
X146667397Y-66696233D01*
X146667397Y-66696233D02*
X146634064Y-66829566D01*
X146634064Y-66829566D02*
X146634064Y-66929566D01*
X146634064Y-66929566D02*
X146667397Y-67062900D01*
X146667397Y-67062900D02*
X146700731Y-67129566D01*
X146700731Y-67129566D02*
X146767397Y-67196233D01*
X146767397Y-67196233D02*
X146867397Y-67229566D01*
X146867397Y-67229566D02*
X146934064Y-67229566D01*
X146934064Y-67229566D02*
X147034064Y-67196233D01*
X147034064Y-67196233D02*
X147067397Y-67162900D01*
X148267397Y-67196233D02*
X148200730Y-67229566D01*
X148200730Y-67229566D02*
X148100730Y-67229566D01*
X148100730Y-67229566D02*
X148000730Y-67196233D01*
X148000730Y-67196233D02*
X147934064Y-67129566D01*
X147934064Y-67129566D02*
X147900730Y-67062900D01*
X147900730Y-67062900D02*
X147867397Y-66929566D01*
X147867397Y-66929566D02*
X147867397Y-66829566D01*
X147867397Y-66829566D02*
X147900730Y-66696233D01*
X147900730Y-66696233D02*
X147934064Y-66629566D01*
X147934064Y-66629566D02*
X148000730Y-66562900D01*
X148000730Y-66562900D02*
X148100730Y-66529566D01*
X148100730Y-66529566D02*
X148167397Y-66529566D01*
X148167397Y-66529566D02*
X148267397Y-66562900D01*
X148267397Y-66562900D02*
X148300730Y-66596233D01*
X148300730Y-66596233D02*
X148300730Y-66829566D01*
X148300730Y-66829566D02*
X148167397Y-66829566D01*
X148600730Y-66529566D02*
X148600730Y-67229566D01*
X148600730Y-67229566D02*
X149000730Y-66529566D01*
X149000730Y-66529566D02*
X149000730Y-67229566D01*
X149334063Y-66529566D02*
X149334063Y-67229566D01*
X149334063Y-67229566D02*
X149500730Y-67229566D01*
X149500730Y-67229566D02*
X149600730Y-67196233D01*
X149600730Y-67196233D02*
X149667397Y-67129566D01*
X149667397Y-67129566D02*
X149700730Y-67062900D01*
X149700730Y-67062900D02*
X149734063Y-66929566D01*
X149734063Y-66929566D02*
X149734063Y-66829566D01*
X149734063Y-66829566D02*
X149700730Y-66696233D01*
X149700730Y-66696233D02*
X149667397Y-66629566D01*
X149667397Y-66629566D02*
X149600730Y-66562900D01*
X149600730Y-66562900D02*
X149500730Y-66529566D01*
X149500730Y-66529566D02*
X149334063Y-66529566D01*
X150900730Y-66529566D02*
X150567396Y-66529566D01*
X150567396Y-66529566D02*
X150567396Y-67229566D01*
X151134063Y-66896233D02*
X151367397Y-66896233D01*
X151467397Y-66529566D02*
X151134063Y-66529566D01*
X151134063Y-66529566D02*
X151134063Y-67229566D01*
X151134063Y-67229566D02*
X151467397Y-67229566D01*
X151767396Y-66529566D02*
X151767396Y-67229566D01*
X151767396Y-67229566D02*
X151934063Y-67229566D01*
X151934063Y-67229566D02*
X152034063Y-67196233D01*
X152034063Y-67196233D02*
X152100730Y-67129566D01*
X152100730Y-67129566D02*
X152134063Y-67062900D01*
X152134063Y-67062900D02*
X152167396Y-66929566D01*
X152167396Y-66929566D02*
X152167396Y-66829566D01*
X152167396Y-66829566D02*
X152134063Y-66696233D01*
X152134063Y-66696233D02*
X152100730Y-66629566D01*
X152100730Y-66629566D02*
X152034063Y-66562900D01*
X152034063Y-66562900D02*
X151934063Y-66529566D01*
X151934063Y-66529566D02*
X151767396Y-66529566D01*
X153334063Y-66529566D02*
X153000729Y-66529566D01*
X153000729Y-66529566D02*
X153000729Y-67229566D01*
X153567396Y-66896233D02*
X153800730Y-66896233D01*
X153900730Y-66529566D02*
X153567396Y-66529566D01*
X153567396Y-66529566D02*
X153567396Y-67229566D01*
X153567396Y-67229566D02*
X153900730Y-67229566D01*
X154200729Y-66529566D02*
X154200729Y-67229566D01*
X154200729Y-67229566D02*
X154367396Y-67229566D01*
X154367396Y-67229566D02*
X154467396Y-67196233D01*
X154467396Y-67196233D02*
X154534063Y-67129566D01*
X154534063Y-67129566D02*
X154567396Y-67062900D01*
X154567396Y-67062900D02*
X154600729Y-66929566D01*
X154600729Y-66929566D02*
X154600729Y-66829566D01*
X154600729Y-66829566D02*
X154567396Y-66696233D01*
X154567396Y-66696233D02*
X154534063Y-66629566D01*
X154534063Y-66629566D02*
X154467396Y-66562900D01*
X154467396Y-66562900D02*
X154367396Y-66529566D01*
X154367396Y-66529566D02*
X154200729Y-66529566D01*
X155767396Y-66529566D02*
X155434062Y-66529566D01*
X155434062Y-66529566D02*
X155434062Y-67229566D01*
X156000729Y-66896233D02*
X156234063Y-66896233D01*
X156334063Y-66529566D02*
X156000729Y-66529566D01*
X156000729Y-66529566D02*
X156000729Y-67229566D01*
X156000729Y-67229566D02*
X156334063Y-67229566D01*
X156634062Y-66529566D02*
X156634062Y-67229566D01*
X156634062Y-67229566D02*
X156800729Y-67229566D01*
X156800729Y-67229566D02*
X156900729Y-67196233D01*
X156900729Y-67196233D02*
X156967396Y-67129566D01*
X156967396Y-67129566D02*
X157000729Y-67062900D01*
X157000729Y-67062900D02*
X157034062Y-66929566D01*
X157034062Y-66929566D02*
X157034062Y-66829566D01*
X157034062Y-66829566D02*
X157000729Y-66696233D01*
X157000729Y-66696233D02*
X156967396Y-66629566D01*
X156967396Y-66629566D02*
X156900729Y-66562900D01*
X156900729Y-66562900D02*
X156800729Y-66529566D01*
X156800729Y-66529566D02*
X156634062Y-66529566D01*
D12*
X81261314Y-113875809D02*
X81118457Y-113923428D01*
X81118457Y-113923428D02*
X81070838Y-113971047D01*
X81070838Y-113971047D02*
X81023219Y-114066285D01*
X81023219Y-114066285D02*
X81023219Y-114209142D01*
X81023219Y-114209142D02*
X81070838Y-114304380D01*
X81070838Y-114304380D02*
X81118457Y-114352000D01*
X81118457Y-114352000D02*
X81213695Y-114399619D01*
X81213695Y-114399619D02*
X81594647Y-114399619D01*
X81594647Y-114399619D02*
X81594647Y-113399619D01*
X81594647Y-113399619D02*
X81261314Y-113399619D01*
X81261314Y-113399619D02*
X81166076Y-113447238D01*
X81166076Y-113447238D02*
X81118457Y-113494857D01*
X81118457Y-113494857D02*
X81070838Y-113590095D01*
X81070838Y-113590095D02*
X81070838Y-113685333D01*
X81070838Y-113685333D02*
X81118457Y-113780571D01*
X81118457Y-113780571D02*
X81166076Y-113828190D01*
X81166076Y-113828190D02*
X81261314Y-113875809D01*
X81261314Y-113875809D02*
X81594647Y-113875809D01*
X80737504Y-113399619D02*
X80166076Y-113399619D01*
X80451790Y-114399619D02*
X80451790Y-113399619D01*
X79308933Y-114399619D02*
X79880361Y-114399619D01*
X79594647Y-114399619D02*
X79594647Y-113399619D01*
X79594647Y-113399619D02*
X79689885Y-113542476D01*
X79689885Y-113542476D02*
X79785123Y-113637714D01*
X79785123Y-113637714D02*
X79880361Y-113685333D01*
X93747028Y-94359500D02*
X92604171Y-94359500D01*
X81157028Y-108859500D02*
X80014171Y-108859500D01*
X80585599Y-109430928D02*
X80585599Y-108288071D01*
X77237028Y-94359500D02*
X76094171Y-94359500D01*
X77237028Y-107059500D02*
X76094171Y-107059500D01*
X76665599Y-107630928D02*
X76665599Y-106488071D01*
X116147028Y-107059500D02*
X115004171Y-107059500D01*
X86200300Y-121663371D02*
X86200300Y-122806229D01*
X86771728Y-122234800D02*
X85628871Y-122234800D01*
X150823694Y-60889619D02*
X150823694Y-59889619D01*
X150823694Y-59889619D02*
X150585599Y-59889619D01*
X150585599Y-59889619D02*
X150442742Y-59937238D01*
X150442742Y-59937238D02*
X150347504Y-60032476D01*
X150347504Y-60032476D02*
X150299885Y-60127714D01*
X150299885Y-60127714D02*
X150252266Y-60318190D01*
X150252266Y-60318190D02*
X150252266Y-60461047D01*
X150252266Y-60461047D02*
X150299885Y-60651523D01*
X150299885Y-60651523D02*
X150347504Y-60746761D01*
X150347504Y-60746761D02*
X150442742Y-60842000D01*
X150442742Y-60842000D02*
X150585599Y-60889619D01*
X150585599Y-60889619D02*
X150823694Y-60889619D01*
X149299885Y-60889619D02*
X149871313Y-60889619D01*
X149585599Y-60889619D02*
X149585599Y-59889619D01*
X149585599Y-59889619D02*
X149680837Y-60032476D01*
X149680837Y-60032476D02*
X149776075Y-60127714D01*
X149776075Y-60127714D02*
X149871313Y-60175333D01*
X151710780Y-64426466D02*
X152186971Y-64759799D01*
X151710780Y-64997894D02*
X152710780Y-64997894D01*
X152710780Y-64997894D02*
X152710780Y-64616942D01*
X152710780Y-64616942D02*
X152663161Y-64521704D01*
X152663161Y-64521704D02*
X152615542Y-64474085D01*
X152615542Y-64474085D02*
X152520304Y-64426466D01*
X152520304Y-64426466D02*
X152377447Y-64426466D01*
X152377447Y-64426466D02*
X152282209Y-64474085D01*
X152282209Y-64474085D02*
X152234590Y-64521704D01*
X152234590Y-64521704D02*
X152186971Y-64616942D01*
X152186971Y-64616942D02*
X152186971Y-64997894D01*
X152710780Y-64093132D02*
X152710780Y-63426466D01*
X152710780Y-63426466D02*
X151710780Y-63855037D01*
X143010419Y-68001466D02*
X143724704Y-68001466D01*
X143724704Y-68001466D02*
X143867561Y-67953847D01*
X143867561Y-67953847D02*
X143962800Y-67858609D01*
X143962800Y-67858609D02*
X144010419Y-67715752D01*
X144010419Y-67715752D02*
X144010419Y-67620514D01*
X143438990Y-68620514D02*
X143391371Y-68525276D01*
X143391371Y-68525276D02*
X143343752Y-68477657D01*
X143343752Y-68477657D02*
X143248514Y-68430038D01*
X143248514Y-68430038D02*
X143200895Y-68430038D01*
X143200895Y-68430038D02*
X143105657Y-68477657D01*
X143105657Y-68477657D02*
X143058038Y-68525276D01*
X143058038Y-68525276D02*
X143010419Y-68620514D01*
X143010419Y-68620514D02*
X143010419Y-68810990D01*
X143010419Y-68810990D02*
X143058038Y-68906228D01*
X143058038Y-68906228D02*
X143105657Y-68953847D01*
X143105657Y-68953847D02*
X143200895Y-69001466D01*
X143200895Y-69001466D02*
X143248514Y-69001466D01*
X143248514Y-69001466D02*
X143343752Y-68953847D01*
X143343752Y-68953847D02*
X143391371Y-68906228D01*
X143391371Y-68906228D02*
X143438990Y-68810990D01*
X143438990Y-68810990D02*
X143438990Y-68620514D01*
X143438990Y-68620514D02*
X143486609Y-68525276D01*
X143486609Y-68525276D02*
X143534228Y-68477657D01*
X143534228Y-68477657D02*
X143629466Y-68430038D01*
X143629466Y-68430038D02*
X143819942Y-68430038D01*
X143819942Y-68430038D02*
X143915180Y-68477657D01*
X143915180Y-68477657D02*
X143962800Y-68525276D01*
X143962800Y-68525276D02*
X144010419Y-68620514D01*
X144010419Y-68620514D02*
X144010419Y-68810990D01*
X144010419Y-68810990D02*
X143962800Y-68906228D01*
X143962800Y-68906228D02*
X143915180Y-68953847D01*
X143915180Y-68953847D02*
X143819942Y-69001466D01*
X143819942Y-69001466D02*
X143629466Y-69001466D01*
X143629466Y-69001466D02*
X143534228Y-68953847D01*
X143534228Y-68953847D02*
X143486609Y-68906228D01*
X143486609Y-68906228D02*
X143438990Y-68810990D01*
X146690780Y-64426466D02*
X147166971Y-64759799D01*
X146690780Y-64997894D02*
X147690780Y-64997894D01*
X147690780Y-64997894D02*
X147690780Y-64616942D01*
X147690780Y-64616942D02*
X147643161Y-64521704D01*
X147643161Y-64521704D02*
X147595542Y-64474085D01*
X147595542Y-64474085D02*
X147500304Y-64426466D01*
X147500304Y-64426466D02*
X147357447Y-64426466D01*
X147357447Y-64426466D02*
X147262209Y-64474085D01*
X147262209Y-64474085D02*
X147214590Y-64521704D01*
X147214590Y-64521704D02*
X147166971Y-64616942D01*
X147166971Y-64616942D02*
X147166971Y-64997894D01*
X146690780Y-63474085D02*
X146690780Y-64045513D01*
X146690780Y-63759799D02*
X147690780Y-63759799D01*
X147690780Y-63759799D02*
X147547923Y-63855037D01*
X147547923Y-63855037D02*
X147452685Y-63950275D01*
X147452685Y-63950275D02*
X147405066Y-64045513D01*
X149200780Y-64426466D02*
X149676971Y-64759799D01*
X149200780Y-64997894D02*
X150200780Y-64997894D01*
X150200780Y-64997894D02*
X150200780Y-64616942D01*
X150200780Y-64616942D02*
X150153161Y-64521704D01*
X150153161Y-64521704D02*
X150105542Y-64474085D01*
X150105542Y-64474085D02*
X150010304Y-64426466D01*
X150010304Y-64426466D02*
X149867447Y-64426466D01*
X149867447Y-64426466D02*
X149772209Y-64474085D01*
X149772209Y-64474085D02*
X149724590Y-64521704D01*
X149724590Y-64521704D02*
X149676971Y-64616942D01*
X149676971Y-64616942D02*
X149676971Y-64997894D01*
X150200780Y-63569323D02*
X150200780Y-63759799D01*
X150200780Y-63759799D02*
X150153161Y-63855037D01*
X150153161Y-63855037D02*
X150105542Y-63902656D01*
X150105542Y-63902656D02*
X149962685Y-63997894D01*
X149962685Y-63997894D02*
X149772209Y-64045513D01*
X149772209Y-64045513D02*
X149391257Y-64045513D01*
X149391257Y-64045513D02*
X149296019Y-63997894D01*
X149296019Y-63997894D02*
X149248400Y-63950275D01*
X149248400Y-63950275D02*
X149200780Y-63855037D01*
X149200780Y-63855037D02*
X149200780Y-63664561D01*
X149200780Y-63664561D02*
X149248400Y-63569323D01*
X149248400Y-63569323D02*
X149296019Y-63521704D01*
X149296019Y-63521704D02*
X149391257Y-63474085D01*
X149391257Y-63474085D02*
X149629352Y-63474085D01*
X149629352Y-63474085D02*
X149724590Y-63521704D01*
X149724590Y-63521704D02*
X149772209Y-63569323D01*
X149772209Y-63569323D02*
X149819828Y-63664561D01*
X149819828Y-63664561D02*
X149819828Y-63855037D01*
X149819828Y-63855037D02*
X149772209Y-63950275D01*
X149772209Y-63950275D02*
X149724590Y-63997894D01*
X149724590Y-63997894D02*
X149629352Y-64045513D01*
X154220780Y-64426466D02*
X154696971Y-64759799D01*
X154220780Y-64997894D02*
X155220780Y-64997894D01*
X155220780Y-64997894D02*
X155220780Y-64616942D01*
X155220780Y-64616942D02*
X155173161Y-64521704D01*
X155173161Y-64521704D02*
X155125542Y-64474085D01*
X155125542Y-64474085D02*
X155030304Y-64426466D01*
X155030304Y-64426466D02*
X154887447Y-64426466D01*
X154887447Y-64426466D02*
X154792209Y-64474085D01*
X154792209Y-64474085D02*
X154744590Y-64521704D01*
X154744590Y-64521704D02*
X154696971Y-64616942D01*
X154696971Y-64616942D02*
X154696971Y-64997894D01*
X154792209Y-63855037D02*
X154839828Y-63950275D01*
X154839828Y-63950275D02*
X154887447Y-63997894D01*
X154887447Y-63997894D02*
X154982685Y-64045513D01*
X154982685Y-64045513D02*
X155030304Y-64045513D01*
X155030304Y-64045513D02*
X155125542Y-63997894D01*
X155125542Y-63997894D02*
X155173161Y-63950275D01*
X155173161Y-63950275D02*
X155220780Y-63855037D01*
X155220780Y-63855037D02*
X155220780Y-63664561D01*
X155220780Y-63664561D02*
X155173161Y-63569323D01*
X155173161Y-63569323D02*
X155125542Y-63521704D01*
X155125542Y-63521704D02*
X155030304Y-63474085D01*
X155030304Y-63474085D02*
X154982685Y-63474085D01*
X154982685Y-63474085D02*
X154887447Y-63521704D01*
X154887447Y-63521704D02*
X154839828Y-63569323D01*
X154839828Y-63569323D02*
X154792209Y-63664561D01*
X154792209Y-63664561D02*
X154792209Y-63855037D01*
X154792209Y-63855037D02*
X154744590Y-63950275D01*
X154744590Y-63950275D02*
X154696971Y-63997894D01*
X154696971Y-63997894D02*
X154601733Y-64045513D01*
X154601733Y-64045513D02*
X154411257Y-64045513D01*
X154411257Y-64045513D02*
X154316019Y-63997894D01*
X154316019Y-63997894D02*
X154268400Y-63950275D01*
X154268400Y-63950275D02*
X154220780Y-63855037D01*
X154220780Y-63855037D02*
X154220780Y-63664561D01*
X154220780Y-63664561D02*
X154268400Y-63569323D01*
X154268400Y-63569323D02*
X154316019Y-63521704D01*
X154316019Y-63521704D02*
X154411257Y-63474085D01*
X154411257Y-63474085D02*
X154601733Y-63474085D01*
X154601733Y-63474085D02*
X154696971Y-63521704D01*
X154696971Y-63521704D02*
X154744590Y-63569323D01*
X154744590Y-63569323D02*
X154792209Y-63664561D01*
D13*
X118406400Y-97429200D02*
X118677333Y-97429200D01*
X118677333Y-97530800D01*
X118677333Y-97801733D01*
X118304800Y-97801733D01*
X118304800Y-97717067D01*
X118406400Y-97717067D01*
X118592667Y-97717067D01*
X118592667Y-97530800D01*
X118406400Y-97530800D01*
X118406400Y-97717067D01*
X118304800Y-97717067D01*
X118304800Y-97530800D01*
X118033867Y-97530800D01*
X118033867Y-97429200D01*
X118118534Y-97429200D01*
X118304800Y-97429200D01*
X118304800Y-97242933D01*
X118118534Y-97242933D01*
X118118534Y-97429200D01*
X118033867Y-97429200D01*
X118033867Y-97158267D01*
X118406400Y-97158267D01*
X118406400Y-97242933D01*
X118406400Y-97429200D01*
G36*
X118406400Y-97429200D02*
G01*
X118677333Y-97429200D01*
X118677333Y-97530800D01*
X118677333Y-97801733D01*
X118304800Y-97801733D01*
X118304800Y-97717067D01*
X118406400Y-97717067D01*
X118592667Y-97717067D01*
X118592667Y-97530800D01*
X118406400Y-97530800D01*
X118406400Y-97717067D01*
X118304800Y-97717067D01*
X118304800Y-97530800D01*
X118033867Y-97530800D01*
X118033867Y-97429200D01*
X118118534Y-97429200D01*
X118304800Y-97429200D01*
X118304800Y-97242933D01*
X118118534Y-97242933D01*
X118118534Y-97429200D01*
X118033867Y-97429200D01*
X118033867Y-97158267D01*
X118406400Y-97158267D01*
X118406400Y-97242933D01*
X118406400Y-97429200D01*
G37*
X116154267Y-97530800D02*
X115883334Y-97530800D01*
X115883334Y-97801733D01*
X115509654Y-97801733D01*
X115511890Y-97717067D01*
X115595467Y-97717067D01*
X115798667Y-97717067D01*
X115798667Y-97530800D01*
X115595467Y-97530800D01*
X115595467Y-97717067D01*
X115511890Y-97717067D01*
X115514461Y-97619700D01*
X115519267Y-97437667D01*
X115658967Y-97432748D01*
X115759751Y-97429200D01*
X115883334Y-97429200D01*
X116069600Y-97429200D01*
X116069600Y-97242933D01*
X115883334Y-97242933D01*
X115883334Y-97429200D01*
X115759751Y-97429200D01*
X115798667Y-97427830D01*
X115798667Y-97158267D01*
X116154267Y-97158267D01*
X116154267Y-97242933D01*
X116154267Y-97530800D01*
G36*
X116154267Y-97530800D02*
G01*
X115883334Y-97530800D01*
X115883334Y-97801733D01*
X115509654Y-97801733D01*
X115511890Y-97717067D01*
X115595467Y-97717067D01*
X115798667Y-97717067D01*
X115798667Y-97530800D01*
X115595467Y-97530800D01*
X115595467Y-97717067D01*
X115511890Y-97717067D01*
X115514461Y-97619700D01*
X115519267Y-97437667D01*
X115658967Y-97432748D01*
X115759751Y-97429200D01*
X115883334Y-97429200D01*
X116069600Y-97429200D01*
X116069600Y-97242933D01*
X115883334Y-97242933D01*
X115883334Y-97429200D01*
X115759751Y-97429200D01*
X115798667Y-97427830D01*
X115798667Y-97158267D01*
X116154267Y-97158267D01*
X116154267Y-97242933D01*
X116154267Y-97530800D01*
G37*
X115290667Y-96379333D02*
X115019733Y-96379333D01*
X115019733Y-96650266D01*
X114731867Y-96650266D01*
X114731867Y-96938133D01*
X114427067Y-96938133D01*
X114427067Y-96633333D01*
X114696631Y-96633333D01*
X114706467Y-96353933D01*
X114985867Y-96344097D01*
X114985867Y-96074533D01*
X115290667Y-96074533D01*
X115290667Y-96379333D01*
G36*
X115290667Y-96379333D02*
G01*
X115019733Y-96379333D01*
X115019733Y-96650266D01*
X114731867Y-96650266D01*
X114731867Y-96938133D01*
X114427067Y-96938133D01*
X114427067Y-96633333D01*
X114696631Y-96633333D01*
X114706467Y-96353933D01*
X114985867Y-96344097D01*
X114985867Y-96074533D01*
X115290667Y-96074533D01*
X115290667Y-96379333D01*
G37*
X119490133Y-96345466D02*
X119761067Y-96345466D01*
X119761067Y-96650266D01*
X119456267Y-96650266D01*
X119456267Y-96379333D01*
X119185333Y-96379333D01*
X119185333Y-96074533D01*
X119490133Y-96074533D01*
X119490133Y-96345466D01*
G36*
X119490133Y-96345466D02*
G01*
X119761067Y-96345466D01*
X119761067Y-96650266D01*
X119456267Y-96650266D01*
X119456267Y-96379333D01*
X119185333Y-96379333D01*
X119185333Y-96074533D01*
X119490133Y-96074533D01*
X119490133Y-96345466D01*
G37*
X116726402Y-93682700D02*
X116731271Y-93839333D01*
X116967067Y-93839333D01*
X116967067Y-94110267D01*
X117779867Y-94110267D01*
X117779867Y-93839333D01*
X118084667Y-93839333D01*
X118084667Y-94110267D01*
X118338667Y-94110267D01*
X118338667Y-93839333D01*
X118643467Y-93839333D01*
X118643467Y-94144133D01*
X118372533Y-94144133D01*
X118372533Y-94669066D01*
X118643467Y-94669066D01*
X118643467Y-94702933D01*
X118643467Y-94973867D01*
X118372533Y-94973867D01*
X118372533Y-95261733D01*
X118084667Y-95261733D01*
X118084667Y-95515733D01*
X118372533Y-95515733D01*
X118372533Y-95786667D01*
X118643467Y-95786667D01*
X118643467Y-96379333D01*
X118338667Y-96379333D01*
X118338667Y-95820533D01*
X118084667Y-95820533D01*
X118084667Y-96091466D01*
X117779867Y-96091466D01*
X117779867Y-95820533D01*
X117255772Y-95820533D01*
X117251120Y-96095700D01*
X117246467Y-96370866D01*
X117098995Y-96375749D01*
X116951524Y-96380631D01*
X116946595Y-96240282D01*
X116941667Y-96099933D01*
X116697527Y-96090011D01*
X116692597Y-96230439D01*
X116687667Y-96370866D01*
X116412500Y-96375519D01*
X116137334Y-96380172D01*
X116137334Y-96650266D01*
X115832534Y-96650266D01*
X115832534Y-96345466D01*
X116103467Y-96345466D01*
X116103467Y-95786667D01*
X116391334Y-95786667D01*
X116677716Y-95786667D01*
X116950133Y-95786667D01*
X116950133Y-95531242D01*
X116818900Y-95536188D01*
X116687667Y-95541133D01*
X116682692Y-95663900D01*
X116677716Y-95786667D01*
X116391334Y-95786667D01*
X116391334Y-95515733D01*
X116662267Y-95515733D01*
X116662267Y-94956933D01*
X116967067Y-94956933D01*
X117221067Y-94956933D01*
X117221067Y-94702933D01*
X117525867Y-94702933D01*
X117525867Y-94956933D01*
X117779867Y-94956933D01*
X117779867Y-94702933D01*
X117525867Y-94702933D01*
X117221067Y-94702933D01*
X116967067Y-94702933D01*
X116967067Y-94956933D01*
X116662267Y-94956933D01*
X116662267Y-94415066D01*
X116391334Y-94415066D01*
X116391334Y-94110267D01*
X116662267Y-94110267D01*
X116662267Y-93890133D01*
X116357467Y-93890133D01*
X116357467Y-93805467D01*
X116442134Y-93805467D01*
X116628400Y-93805467D01*
X116628400Y-93619200D01*
X116442134Y-93619200D01*
X116442134Y-93805467D01*
X116357467Y-93805467D01*
X116357467Y-93516454D01*
X116721533Y-93526066D01*
X116724429Y-93619200D01*
X116726402Y-93682700D01*
G36*
X116726402Y-93682700D02*
G01*
X116731271Y-93839333D01*
X116967067Y-93839333D01*
X116967067Y-94110267D01*
X117779867Y-94110267D01*
X117779867Y-93839333D01*
X118084667Y-93839333D01*
X118084667Y-94110267D01*
X118338667Y-94110267D01*
X118338667Y-93839333D01*
X118643467Y-93839333D01*
X118643467Y-94144133D01*
X118372533Y-94144133D01*
X118372533Y-94669066D01*
X118643467Y-94669066D01*
X118643467Y-94702933D01*
X118643467Y-94973867D01*
X118372533Y-94973867D01*
X118372533Y-95261733D01*
X118084667Y-95261733D01*
X118084667Y-95515733D01*
X118372533Y-95515733D01*
X118372533Y-95786667D01*
X118643467Y-95786667D01*
X118643467Y-96379333D01*
X118338667Y-96379333D01*
X118338667Y-95820533D01*
X118084667Y-95820533D01*
X118084667Y-96091466D01*
X117779867Y-96091466D01*
X117779867Y-95820533D01*
X117255772Y-95820533D01*
X117251120Y-96095700D01*
X117246467Y-96370866D01*
X117098995Y-96375749D01*
X116951524Y-96380631D01*
X116946595Y-96240282D01*
X116941667Y-96099933D01*
X116697527Y-96090011D01*
X116692597Y-96230439D01*
X116687667Y-96370866D01*
X116412500Y-96375519D01*
X116137334Y-96380172D01*
X116137334Y-96650266D01*
X115832534Y-96650266D01*
X115832534Y-96345466D01*
X116103467Y-96345466D01*
X116103467Y-95786667D01*
X116391334Y-95786667D01*
X116677716Y-95786667D01*
X116950133Y-95786667D01*
X116950133Y-95531242D01*
X116818900Y-95536188D01*
X116687667Y-95541133D01*
X116682692Y-95663900D01*
X116677716Y-95786667D01*
X116391334Y-95786667D01*
X116391334Y-95515733D01*
X116662267Y-95515733D01*
X116662267Y-94956933D01*
X116967067Y-94956933D01*
X117221067Y-94956933D01*
X117221067Y-94702933D01*
X117525867Y-94702933D01*
X117525867Y-94956933D01*
X117779867Y-94956933D01*
X117779867Y-94702933D01*
X117525867Y-94702933D01*
X117221067Y-94702933D01*
X116967067Y-94702933D01*
X116967067Y-94956933D01*
X116662267Y-94956933D01*
X116662267Y-94415066D01*
X116391334Y-94415066D01*
X116391334Y-94110267D01*
X116662267Y-94110267D01*
X116662267Y-93890133D01*
X116357467Y-93890133D01*
X116357467Y-93805467D01*
X116442134Y-93805467D01*
X116628400Y-93805467D01*
X116628400Y-93619200D01*
X116442134Y-93619200D01*
X116442134Y-93805467D01*
X116357467Y-93805467D01*
X116357467Y-93516454D01*
X116721533Y-93526066D01*
X116724429Y-93619200D01*
X116726402Y-93682700D01*
G37*
X116442134Y-95296144D02*
X115980700Y-95291639D01*
X115519267Y-95287133D01*
X115516808Y-95194000D01*
X115595467Y-95194000D01*
X116357467Y-95194000D01*
X116357467Y-95007733D01*
X115595467Y-95007733D01*
X115595467Y-95194000D01*
X115516808Y-95194000D01*
X115514461Y-95105100D01*
X115509654Y-94923067D01*
X116442134Y-94923067D01*
X116442134Y-95007733D01*
X116442134Y-95296144D01*
G36*
X116442134Y-95296144D02*
G01*
X115980700Y-95291639D01*
X115519267Y-95287133D01*
X115516808Y-95194000D01*
X115595467Y-95194000D01*
X116357467Y-95194000D01*
X116357467Y-95007733D01*
X115595467Y-95007733D01*
X115595467Y-95194000D01*
X115516808Y-95194000D01*
X115514461Y-95105100D01*
X115509654Y-94923067D01*
X116442134Y-94923067D01*
X116442134Y-95007733D01*
X116442134Y-95296144D01*
G37*
X115324533Y-95295600D02*
X114393200Y-95295600D01*
X114393200Y-95007733D01*
X114476177Y-95007733D01*
X114486333Y-95202467D01*
X114851490Y-95207021D01*
X114893223Y-95207465D01*
X114997413Y-95207870D01*
X115088101Y-95207227D01*
X115160197Y-95205632D01*
X115208612Y-95203180D01*
X115228256Y-95199966D01*
X115232663Y-95188764D01*
X115237846Y-95150818D01*
X115239867Y-95098044D01*
X115239867Y-95007733D01*
X114476177Y-95007733D01*
X114393200Y-95007733D01*
X114393200Y-94923067D01*
X115324533Y-94923067D01*
X115324533Y-95007733D01*
X115324533Y-95295600D01*
G36*
X115324533Y-95295600D02*
G01*
X114393200Y-95295600D01*
X114393200Y-95007733D01*
X114476177Y-95007733D01*
X114486333Y-95202467D01*
X114851490Y-95207021D01*
X114893223Y-95207465D01*
X114997413Y-95207870D01*
X115088101Y-95207227D01*
X115160197Y-95205632D01*
X115208612Y-95203180D01*
X115228256Y-95199966D01*
X115232663Y-95188764D01*
X115237846Y-95150818D01*
X115239867Y-95098044D01*
X115239867Y-95007733D01*
X114476177Y-95007733D01*
X114393200Y-95007733D01*
X114393200Y-94923067D01*
X115324533Y-94923067D01*
X115324533Y-95007733D01*
X115324533Y-95295600D01*
G37*
X119794933Y-95007733D02*
X119151467Y-95007733D01*
X119151467Y-94923067D01*
X119236133Y-94923067D01*
X119710267Y-94923067D01*
X119710267Y-94719866D01*
X119236133Y-94719866D01*
X119236133Y-94923067D01*
X119151467Y-94923067D01*
X119151467Y-94635200D01*
X119794933Y-94635200D01*
X119794933Y-94719866D01*
X119794933Y-95007733D01*
G36*
X119794933Y-95007733D02*
G01*
X119151467Y-95007733D01*
X119151467Y-94923067D01*
X119236133Y-94923067D01*
X119710267Y-94923067D01*
X119710267Y-94719866D01*
X119236133Y-94719866D01*
X119236133Y-94923067D01*
X119151467Y-94923067D01*
X119151467Y-94635200D01*
X119794933Y-94635200D01*
X119794933Y-94719866D01*
X119794933Y-95007733D01*
G37*
X114765733Y-93517600D02*
X115036667Y-93517600D01*
X115036667Y-93602266D01*
X115036667Y-93805467D01*
X115324533Y-93805467D01*
X115324533Y-93890133D01*
X115324533Y-94178000D01*
X114952000Y-94178000D01*
X114952000Y-93890133D01*
X115034977Y-93890133D01*
X115045133Y-94084867D01*
X115130451Y-94089861D01*
X115160933Y-94090842D01*
X115205229Y-94088824D01*
X115227817Y-94082805D01*
X115232384Y-94071465D01*
X115237768Y-94033320D01*
X115239867Y-93980444D01*
X115239867Y-93890133D01*
X115034977Y-93890133D01*
X114952000Y-93890133D01*
X114681067Y-93890133D01*
X114681067Y-93805467D01*
X114765733Y-93805467D01*
X114952000Y-93805467D01*
X114952000Y-93602266D01*
X114765733Y-93602266D01*
X114765733Y-93805467D01*
X114681067Y-93805467D01*
X114681067Y-93619200D01*
X114393200Y-93619200D01*
X114393200Y-93331333D01*
X114476177Y-93331333D01*
X114481255Y-93428700D01*
X114486333Y-93526066D01*
X114571651Y-93531061D01*
X114602133Y-93532042D01*
X114646429Y-93530024D01*
X114669017Y-93524005D01*
X114673584Y-93512665D01*
X114678968Y-93474520D01*
X114681067Y-93421644D01*
X114681067Y-93331333D01*
X114476177Y-93331333D01*
X114393200Y-93331333D01*
X114393200Y-93246667D01*
X114765733Y-93246667D01*
X114765733Y-93331333D01*
X114765733Y-93517600D01*
G36*
X114765733Y-93517600D02*
G01*
X115036667Y-93517600D01*
X115036667Y-93602266D01*
X115036667Y-93805467D01*
X115324533Y-93805467D01*
X115324533Y-93890133D01*
X115324533Y-94178000D01*
X114952000Y-94178000D01*
X114952000Y-93890133D01*
X115034977Y-93890133D01*
X115045133Y-94084867D01*
X115130451Y-94089861D01*
X115160933Y-94090842D01*
X115205229Y-94088824D01*
X115227817Y-94082805D01*
X115232384Y-94071465D01*
X115237768Y-94033320D01*
X115239867Y-93980444D01*
X115239867Y-93890133D01*
X115034977Y-93890133D01*
X114952000Y-93890133D01*
X114681067Y-93890133D01*
X114681067Y-93805467D01*
X114765733Y-93805467D01*
X114952000Y-93805467D01*
X114952000Y-93602266D01*
X114765733Y-93602266D01*
X114765733Y-93805467D01*
X114681067Y-93805467D01*
X114681067Y-93619200D01*
X114393200Y-93619200D01*
X114393200Y-93331333D01*
X114476177Y-93331333D01*
X114481255Y-93428700D01*
X114486333Y-93526066D01*
X114571651Y-93531061D01*
X114602133Y-93532042D01*
X114646429Y-93530024D01*
X114669017Y-93524005D01*
X114673584Y-93512665D01*
X114678968Y-93474520D01*
X114681067Y-93421644D01*
X114681067Y-93331333D01*
X114476177Y-93331333D01*
X114393200Y-93331333D01*
X114393200Y-93246667D01*
X114765733Y-93246667D01*
X114765733Y-93331333D01*
X114765733Y-93517600D01*
G37*
X118677333Y-93060400D02*
X118406400Y-93060400D01*
X118406400Y-93331333D01*
X118033867Y-93331333D01*
X118033867Y-93246667D01*
X118118534Y-93246667D01*
X118304800Y-93246667D01*
X118304800Y-93060400D01*
X118118534Y-93060400D01*
X118118534Y-93246667D01*
X118033867Y-93246667D01*
X118033867Y-92958800D01*
X118304800Y-92958800D01*
X118406400Y-92958800D01*
X118592667Y-92958800D01*
X118592667Y-92772533D01*
X118406400Y-92772533D01*
X118406400Y-92958800D01*
X118304800Y-92958800D01*
X118304800Y-92687867D01*
X118677333Y-92687867D01*
X118677333Y-92772533D01*
X118677333Y-93060400D01*
G36*
X118677333Y-93060400D02*
G01*
X118406400Y-93060400D01*
X118406400Y-93331333D01*
X118033867Y-93331333D01*
X118033867Y-93246667D01*
X118118534Y-93246667D01*
X118304800Y-93246667D01*
X118304800Y-93060400D01*
X118118534Y-93060400D01*
X118118534Y-93246667D01*
X118033867Y-93246667D01*
X118033867Y-92958800D01*
X118304800Y-92958800D01*
X118406400Y-92958800D01*
X118592667Y-92958800D01*
X118592667Y-92772533D01*
X118406400Y-92772533D01*
X118406400Y-92958800D01*
X118304800Y-92958800D01*
X118304800Y-92687867D01*
X118677333Y-92687867D01*
X118677333Y-92772533D01*
X118677333Y-93060400D01*
G37*
X115883334Y-92958800D02*
X116154267Y-92958800D01*
X116154267Y-93060400D01*
X116154267Y-93331333D01*
X115798667Y-93331333D01*
X115798667Y-93246667D01*
X115883334Y-93246667D01*
X116069600Y-93246667D01*
X116069600Y-93060400D01*
X115883334Y-93060400D01*
X115883334Y-93246667D01*
X115798667Y-93246667D01*
X115798667Y-93061769D01*
X115519267Y-93051933D01*
X115516808Y-92958800D01*
X115595467Y-92958800D01*
X115798667Y-92958800D01*
X115798667Y-92772533D01*
X115595467Y-92772533D01*
X115595467Y-92958800D01*
X115516808Y-92958800D01*
X115514461Y-92869900D01*
X115509654Y-92687867D01*
X115883334Y-92687867D01*
X115883334Y-92772533D01*
X115883334Y-92958800D01*
G36*
X115883334Y-92958800D02*
G01*
X116154267Y-92958800D01*
X116154267Y-93060400D01*
X116154267Y-93331333D01*
X115798667Y-93331333D01*
X115798667Y-93246667D01*
X115883334Y-93246667D01*
X116069600Y-93246667D01*
X116069600Y-93060400D01*
X115883334Y-93060400D01*
X115883334Y-93246667D01*
X115798667Y-93246667D01*
X115798667Y-93061769D01*
X115519267Y-93051933D01*
X115516808Y-92958800D01*
X115595467Y-92958800D01*
X115798667Y-92958800D01*
X115798667Y-92772533D01*
X115595467Y-92772533D01*
X115595467Y-92958800D01*
X115516808Y-92958800D01*
X115514461Y-92869900D01*
X115509654Y-92687867D01*
X115883334Y-92687867D01*
X115883334Y-92772533D01*
X115883334Y-92958800D01*
G37*
X114268206Y-115484234D02*
X114273012Y-115666267D01*
X113881254Y-115666267D01*
X113883489Y-115581600D01*
X113983999Y-115581600D01*
X114170266Y-115581600D01*
X114170266Y-115395334D01*
X113983999Y-115395334D01*
X113983999Y-115581600D01*
X113883489Y-115581600D01*
X113886060Y-115484234D01*
X113890866Y-115302200D01*
X114263399Y-115302200D01*
X114265859Y-115395334D01*
X114268206Y-115484234D01*
G36*
X114268206Y-115484234D02*
G01*
X114273012Y-115666267D01*
X113881254Y-115666267D01*
X113883489Y-115581600D01*
X113983999Y-115581600D01*
X114170266Y-115581600D01*
X114170266Y-115395334D01*
X113983999Y-115395334D01*
X113983999Y-115581600D01*
X113883489Y-115581600D01*
X113886060Y-115484234D01*
X113890866Y-115302200D01*
X114263399Y-115302200D01*
X114265859Y-115395334D01*
X114268206Y-115484234D01*
G37*
X114268307Y-114902997D02*
X114269207Y-114940779D01*
X114269421Y-115008123D01*
X114267750Y-115059351D01*
X114264385Y-115085606D01*
X114263257Y-115087897D01*
X114248474Y-115097595D01*
X114215284Y-115103155D01*
X114158568Y-115105064D01*
X114073210Y-115103810D01*
X113890866Y-115099000D01*
X113890866Y-115022800D01*
X113983999Y-115022800D01*
X114170266Y-115022800D01*
X114170266Y-114836533D01*
X113983999Y-114836533D01*
X113983999Y-115022800D01*
X113890866Y-115022800D01*
X113890866Y-114743400D01*
X114263399Y-114743400D01*
X114266264Y-114836533D01*
X114268307Y-114902997D01*
G36*
X114268307Y-114902997D02*
G01*
X114269207Y-114940779D01*
X114269421Y-115008123D01*
X114267750Y-115059351D01*
X114264385Y-115085606D01*
X114263257Y-115087897D01*
X114248474Y-115097595D01*
X114215284Y-115103155D01*
X114158568Y-115105064D01*
X114073210Y-115103810D01*
X113890866Y-115099000D01*
X113890866Y-115022800D01*
X113983999Y-115022800D01*
X114170266Y-115022800D01*
X114170266Y-114836533D01*
X113983999Y-114836533D01*
X113983999Y-115022800D01*
X113890866Y-115022800D01*
X113890866Y-114743400D01*
X114263399Y-114743400D01*
X114266264Y-114836533D01*
X114268307Y-114902997D01*
G37*
X114271866Y-111094267D02*
X114542799Y-111094267D01*
X114542799Y-111195867D01*
X114542799Y-111466800D01*
X114273236Y-111466800D01*
X114268318Y-111606500D01*
X114263399Y-111746200D01*
X114123700Y-111751118D01*
X114022886Y-111754667D01*
X113983999Y-111756036D01*
X113983999Y-111939564D01*
X114123700Y-111944482D01*
X114263399Y-111949400D01*
X114266271Y-112025600D01*
X114268345Y-112080634D01*
X114273291Y-112211867D01*
X114542799Y-112211867D01*
X114542799Y-112313467D01*
X114542799Y-112584400D01*
X114273236Y-112584400D01*
X114268318Y-112724100D01*
X114263399Y-112863800D01*
X114123700Y-112868718D01*
X114022886Y-112872267D01*
X113983999Y-112873636D01*
X113983999Y-113057164D01*
X114123700Y-113062082D01*
X114263399Y-113067000D01*
X114266083Y-113143200D01*
X114268318Y-113206700D01*
X114273236Y-113346400D01*
X114542799Y-113346400D01*
X114542799Y-113431067D01*
X114542799Y-113702000D01*
X114271866Y-113702000D01*
X114271866Y-113834645D01*
X114271793Y-113849463D01*
X114269799Y-113911393D01*
X114265633Y-113957641D01*
X114260038Y-113979117D01*
X114247208Y-113982594D01*
X114206007Y-113985795D01*
X114144251Y-113987081D01*
X114069538Y-113986172D01*
X113890866Y-113981400D01*
X113890866Y-113905200D01*
X113983999Y-113905200D01*
X114170266Y-113905200D01*
X114170266Y-113702000D01*
X113983999Y-113702000D01*
X113983999Y-113905200D01*
X113890866Y-113905200D01*
X113890866Y-113625800D01*
X114131350Y-113617334D01*
X114271866Y-113617334D01*
X114458133Y-113617334D01*
X114458133Y-113431067D01*
X114271866Y-113431067D01*
X114271866Y-113617334D01*
X114131350Y-113617334D01*
X114170266Y-113615964D01*
X114170266Y-113432436D01*
X113890866Y-113422600D01*
X113888183Y-113346400D01*
X113983999Y-113346400D01*
X114170266Y-113346400D01*
X114170266Y-113143200D01*
X113983999Y-113143200D01*
X113983999Y-113346400D01*
X113888183Y-113346400D01*
X113881030Y-113143200D01*
X113611466Y-113143200D01*
X113611466Y-113058534D01*
X113696133Y-113058534D01*
X113882399Y-113058534D01*
X113882399Y-112872267D01*
X113696133Y-112872267D01*
X113696133Y-113058534D01*
X113611466Y-113058534D01*
X113611466Y-112787600D01*
X113881030Y-112787600D01*
X113983999Y-112787600D01*
X114170266Y-112787600D01*
X114170266Y-112584400D01*
X113983999Y-112584400D01*
X113983999Y-112787600D01*
X113881030Y-112787600D01*
X113890866Y-112508200D01*
X114131378Y-112499733D01*
X114271866Y-112499733D01*
X114458133Y-112499733D01*
X114458133Y-112313467D01*
X114271866Y-112313467D01*
X114271866Y-112499733D01*
X114131378Y-112499733D01*
X114170266Y-112498364D01*
X114170266Y-112314836D01*
X113890866Y-112305000D01*
X113887587Y-112211867D01*
X113983999Y-112211867D01*
X114170266Y-112211867D01*
X114170266Y-112025600D01*
X113983999Y-112025600D01*
X113983999Y-112211867D01*
X113887587Y-112211867D01*
X113881030Y-112025600D01*
X113611466Y-112025600D01*
X113611466Y-111940934D01*
X113696133Y-111940934D01*
X113882399Y-111940934D01*
X113882399Y-111754667D01*
X113696133Y-111754667D01*
X113696133Y-111940934D01*
X113611466Y-111940934D01*
X113611466Y-111653067D01*
X113880975Y-111653067D01*
X113983999Y-111653067D01*
X114170266Y-111653067D01*
X114170266Y-111466800D01*
X113983999Y-111466800D01*
X113983999Y-111653067D01*
X113880975Y-111653067D01*
X113885921Y-111521834D01*
X113890866Y-111390600D01*
X114131350Y-111382134D01*
X114271866Y-111382134D01*
X114458133Y-111382134D01*
X114458133Y-111195867D01*
X114271866Y-111195867D01*
X114271866Y-111382134D01*
X114131350Y-111382134D01*
X114170266Y-111380764D01*
X114170266Y-111197236D01*
X113890866Y-111187400D01*
X113888407Y-111094267D01*
X113983999Y-111094267D01*
X114170266Y-111094267D01*
X114170266Y-110908000D01*
X113983999Y-110908000D01*
X113983999Y-111094267D01*
X113888407Y-111094267D01*
X113881254Y-110823334D01*
X114271866Y-110823334D01*
X114271866Y-110908000D01*
X114271866Y-111094267D01*
G36*
X114271866Y-111094267D02*
G01*
X114542799Y-111094267D01*
X114542799Y-111195867D01*
X114542799Y-111466800D01*
X114273236Y-111466800D01*
X114268318Y-111606500D01*
X114263399Y-111746200D01*
X114123700Y-111751118D01*
X114022886Y-111754667D01*
X113983999Y-111756036D01*
X113983999Y-111939564D01*
X114123700Y-111944482D01*
X114263399Y-111949400D01*
X114266271Y-112025600D01*
X114268345Y-112080634D01*
X114273291Y-112211867D01*
X114542799Y-112211867D01*
X114542799Y-112313467D01*
X114542799Y-112584400D01*
X114273236Y-112584400D01*
X114268318Y-112724100D01*
X114263399Y-112863800D01*
X114123700Y-112868718D01*
X114022886Y-112872267D01*
X113983999Y-112873636D01*
X113983999Y-113057164D01*
X114123700Y-113062082D01*
X114263399Y-113067000D01*
X114266083Y-113143200D01*
X114268318Y-113206700D01*
X114273236Y-113346400D01*
X114542799Y-113346400D01*
X114542799Y-113431067D01*
X114542799Y-113702000D01*
X114271866Y-113702000D01*
X114271866Y-113834645D01*
X114271793Y-113849463D01*
X114269799Y-113911393D01*
X114265633Y-113957641D01*
X114260038Y-113979117D01*
X114247208Y-113982594D01*
X114206007Y-113985795D01*
X114144251Y-113987081D01*
X114069538Y-113986172D01*
X113890866Y-113981400D01*
X113890866Y-113905200D01*
X113983999Y-113905200D01*
X114170266Y-113905200D01*
X114170266Y-113702000D01*
X113983999Y-113702000D01*
X113983999Y-113905200D01*
X113890866Y-113905200D01*
X113890866Y-113625800D01*
X114131350Y-113617334D01*
X114271866Y-113617334D01*
X114458133Y-113617334D01*
X114458133Y-113431067D01*
X114271866Y-113431067D01*
X114271866Y-113617334D01*
X114131350Y-113617334D01*
X114170266Y-113615964D01*
X114170266Y-113432436D01*
X113890866Y-113422600D01*
X113888183Y-113346400D01*
X113983999Y-113346400D01*
X114170266Y-113346400D01*
X114170266Y-113143200D01*
X113983999Y-113143200D01*
X113983999Y-113346400D01*
X113888183Y-113346400D01*
X113881030Y-113143200D01*
X113611466Y-113143200D01*
X113611466Y-113058534D01*
X113696133Y-113058534D01*
X113882399Y-113058534D01*
X113882399Y-112872267D01*
X113696133Y-112872267D01*
X113696133Y-113058534D01*
X113611466Y-113058534D01*
X113611466Y-112787600D01*
X113881030Y-112787600D01*
X113983999Y-112787600D01*
X114170266Y-112787600D01*
X114170266Y-112584400D01*
X113983999Y-112584400D01*
X113983999Y-112787600D01*
X113881030Y-112787600D01*
X113890866Y-112508200D01*
X114131378Y-112499733D01*
X114271866Y-112499733D01*
X114458133Y-112499733D01*
X114458133Y-112313467D01*
X114271866Y-112313467D01*
X114271866Y-112499733D01*
X114131378Y-112499733D01*
X114170266Y-112498364D01*
X114170266Y-112314836D01*
X113890866Y-112305000D01*
X113887587Y-112211867D01*
X113983999Y-112211867D01*
X114170266Y-112211867D01*
X114170266Y-112025600D01*
X113983999Y-112025600D01*
X113983999Y-112211867D01*
X113887587Y-112211867D01*
X113881030Y-112025600D01*
X113611466Y-112025600D01*
X113611466Y-111940934D01*
X113696133Y-111940934D01*
X113882399Y-111940934D01*
X113882399Y-111754667D01*
X113696133Y-111754667D01*
X113696133Y-111940934D01*
X113611466Y-111940934D01*
X113611466Y-111653067D01*
X113880975Y-111653067D01*
X113983999Y-111653067D01*
X114170266Y-111653067D01*
X114170266Y-111466800D01*
X113983999Y-111466800D01*
X113983999Y-111653067D01*
X113880975Y-111653067D01*
X113885921Y-111521834D01*
X113890866Y-111390600D01*
X114131350Y-111382134D01*
X114271866Y-111382134D01*
X114458133Y-111382134D01*
X114458133Y-111195867D01*
X114271866Y-111195867D01*
X114271866Y-111382134D01*
X114131350Y-111382134D01*
X114170266Y-111380764D01*
X114170266Y-111197236D01*
X113890866Y-111187400D01*
X113888407Y-111094267D01*
X113983999Y-111094267D01*
X114170266Y-111094267D01*
X114170266Y-110908000D01*
X113983999Y-110908000D01*
X113983999Y-111094267D01*
X113888407Y-111094267D01*
X113881254Y-110823334D01*
X114271866Y-110823334D01*
X114271866Y-110908000D01*
X114271866Y-111094267D01*
G37*
X119165600Y-122657050D02*
X118657600Y-122657050D01*
X118657600Y-123165050D01*
X117612419Y-123165050D01*
X117603197Y-123426987D01*
X117593975Y-123688925D01*
X117332038Y-123698146D01*
X117070101Y-123707368D01*
X117070100Y-123960084D01*
X117070100Y-124212800D01*
X116562100Y-124212800D01*
X116562100Y-125260550D01*
X116022350Y-125260550D01*
X116022350Y-125784425D01*
X116021785Y-125959565D01*
X116019303Y-126107665D01*
X116014125Y-126208130D01*
X116005482Y-126269418D01*
X115992605Y-126299989D01*
X115974725Y-126308300D01*
X115965211Y-126310004D01*
X115949020Y-126328529D01*
X115938040Y-126374699D01*
X115931345Y-126457474D01*
X115928007Y-126585813D01*
X115927100Y-126768675D01*
X115927100Y-127229050D01*
X116466850Y-127229050D01*
X116466850Y-127260800D01*
X116466850Y-128276800D01*
X116974850Y-128276800D01*
X116974850Y-128782231D01*
X117236788Y-128791453D01*
X117498725Y-128800675D01*
X117503756Y-128943550D01*
X117507947Y-129062612D01*
X117517169Y-129324550D01*
X118562350Y-129324550D01*
X118562350Y-129832550D01*
X119070350Y-129832550D01*
X119070350Y-130404050D01*
X116911350Y-130404050D01*
X116911350Y-129896050D01*
X115355600Y-129896050D01*
X115355600Y-129356300D01*
X114466600Y-129356300D01*
X114466600Y-131039050D01*
X113672850Y-131039050D01*
X113672850Y-130816800D01*
X113926850Y-130816800D01*
X114212600Y-130816800D01*
X114212600Y-128943550D01*
X113926850Y-128943550D01*
X113926850Y-130816800D01*
X113672850Y-130816800D01*
X113672850Y-129356300D01*
X112783850Y-129356300D01*
X112783850Y-129896050D01*
X111228100Y-129896050D01*
X111228100Y-130404050D01*
X109069100Y-130404050D01*
X109069100Y-129832550D01*
X109577100Y-129832550D01*
X109577100Y-129324550D01*
X110622282Y-129324550D01*
X110631504Y-129062612D01*
X110640725Y-128800675D01*
X110902663Y-128791453D01*
X111164600Y-128782231D01*
X111164600Y-128276800D01*
X111672600Y-128276800D01*
X111672600Y-127737050D01*
X112783850Y-127737050D01*
X113260100Y-127737050D01*
X113260100Y-127260800D01*
X113831600Y-127260800D01*
X113831600Y-127737050D01*
X114307850Y-127737050D01*
X114307850Y-127260800D01*
X114879350Y-127260800D01*
X114879350Y-127737050D01*
X115355600Y-127737050D01*
X115355600Y-127260800D01*
X114879350Y-127260800D01*
X114307850Y-127260800D01*
X113831600Y-127260800D01*
X113260100Y-127260800D01*
X112783850Y-127260800D01*
X112783850Y-127737050D01*
X111672600Y-127737050D01*
X111672600Y-127229050D01*
X112212350Y-127229050D01*
X112212350Y-126768675D01*
X112212174Y-126676706D01*
X112210258Y-126520188D01*
X112205482Y-126414048D01*
X112196919Y-126349326D01*
X112183642Y-126317063D01*
X112164725Y-126308300D01*
X112148804Y-126302083D01*
X112135340Y-126274777D01*
X112126207Y-126217816D01*
X112120635Y-126122743D01*
X112117856Y-125981098D01*
X112117100Y-125784425D01*
X112117100Y-125260550D01*
X111577350Y-125260550D01*
X111577350Y-124212800D01*
X111069350Y-124212800D01*
X111069350Y-123707368D01*
X110807413Y-123698146D01*
X110545475Y-123688925D01*
X110536254Y-123426987D01*
X110527032Y-123165050D01*
X109481850Y-123165050D01*
X109481850Y-122657050D01*
X108973850Y-122657050D01*
X108973850Y-122403050D01*
X109196100Y-122403050D01*
X109735850Y-122403050D01*
X109735850Y-122942800D01*
X110783600Y-122942800D01*
X110783600Y-123450800D01*
X111289032Y-123450800D01*
X111298254Y-123712737D01*
X111307475Y-123974675D01*
X111569413Y-123983896D01*
X111831350Y-123993118D01*
X111831350Y-125038300D01*
X112337778Y-125038300D01*
X112346502Y-125554237D01*
X112355225Y-126070175D01*
X112483377Y-126079606D01*
X112510381Y-126081066D01*
X112590733Y-126078575D01*
X112634190Y-126066377D01*
X112636702Y-126062336D01*
X112646944Y-126010193D01*
X112654136Y-125915389D01*
X112656850Y-125795008D01*
X112656850Y-125546300D01*
X113164850Y-125546300D01*
X113164850Y-123993118D01*
X113426788Y-123983896D01*
X113688725Y-123974675D01*
X113697612Y-123569862D01*
X113706498Y-123165050D01*
X114432953Y-123165050D01*
X114441839Y-123569862D01*
X114450725Y-123974675D01*
X114712663Y-123983896D01*
X114974600Y-123993118D01*
X114974600Y-125546300D01*
X115480032Y-125546300D01*
X115489254Y-125808237D01*
X115498475Y-126070175D01*
X115626627Y-126079606D01*
X115653631Y-126081066D01*
X115733983Y-126078575D01*
X115777440Y-126066377D01*
X115782185Y-126050469D01*
X115789290Y-125979813D01*
X115794970Y-125863795D01*
X115798736Y-125713749D01*
X115800100Y-125541008D01*
X115800100Y-125038300D01*
X116308100Y-125038300D01*
X116308100Y-123993118D01*
X116570038Y-123983896D01*
X116831975Y-123974675D01*
X116841197Y-123712737D01*
X116850419Y-123450800D01*
X117355850Y-123450800D01*
X117355850Y-122942800D01*
X118403600Y-122942800D01*
X118403600Y-122403050D01*
X118943350Y-122403050D01*
X118943350Y-122117300D01*
X117070100Y-122117300D01*
X117070100Y-122624190D01*
X116284288Y-122632682D01*
X115498475Y-122641175D01*
X115489254Y-122903112D01*
X115480032Y-123165050D01*
X114432953Y-123165050D01*
X113706498Y-123165050D01*
X113182958Y-123165050D01*
X112659419Y-123165049D01*
X112640975Y-122641175D01*
X111855163Y-122632682D01*
X111069350Y-122624190D01*
X111069350Y-122117300D01*
X109196100Y-122117300D01*
X109196100Y-122403050D01*
X108973850Y-122403050D01*
X108973850Y-121862517D01*
X110140663Y-121870846D01*
X111307475Y-121879175D01*
X111316697Y-122141112D01*
X111325919Y-122403050D01*
X112879100Y-122403050D01*
X112879100Y-122911050D01*
X113768100Y-122911050D01*
X113768100Y-121450550D01*
X114371350Y-121450550D01*
X114371350Y-122911050D01*
X115260350Y-122911050D01*
X115260350Y-122403050D01*
X116813532Y-122403050D01*
X116822754Y-122141112D01*
X116831975Y-121879175D01*
X117998788Y-121870846D01*
X119165600Y-121862517D01*
X119165600Y-122117300D01*
X119165600Y-122657050D01*
G36*
X119165600Y-122657050D02*
G01*
X118657600Y-122657050D01*
X118657600Y-123165050D01*
X117612419Y-123165050D01*
X117603197Y-123426987D01*
X117593975Y-123688925D01*
X117332038Y-123698146D01*
X117070101Y-123707368D01*
X117070100Y-123960084D01*
X117070100Y-124212800D01*
X116562100Y-124212800D01*
X116562100Y-125260550D01*
X116022350Y-125260550D01*
X116022350Y-125784425D01*
X116021785Y-125959565D01*
X116019303Y-126107665D01*
X116014125Y-126208130D01*
X116005482Y-126269418D01*
X115992605Y-126299989D01*
X115974725Y-126308300D01*
X115965211Y-126310004D01*
X115949020Y-126328529D01*
X115938040Y-126374699D01*
X115931345Y-126457474D01*
X115928007Y-126585813D01*
X115927100Y-126768675D01*
X115927100Y-127229050D01*
X116466850Y-127229050D01*
X116466850Y-127260800D01*
X116466850Y-128276800D01*
X116974850Y-128276800D01*
X116974850Y-128782231D01*
X117236788Y-128791453D01*
X117498725Y-128800675D01*
X117503756Y-128943550D01*
X117507947Y-129062612D01*
X117517169Y-129324550D01*
X118562350Y-129324550D01*
X118562350Y-129832550D01*
X119070350Y-129832550D01*
X119070350Y-130404050D01*
X116911350Y-130404050D01*
X116911350Y-129896050D01*
X115355600Y-129896050D01*
X115355600Y-129356300D01*
X114466600Y-129356300D01*
X114466600Y-131039050D01*
X113672850Y-131039050D01*
X113672850Y-130816800D01*
X113926850Y-130816800D01*
X114212600Y-130816800D01*
X114212600Y-128943550D01*
X113926850Y-128943550D01*
X113926850Y-130816800D01*
X113672850Y-130816800D01*
X113672850Y-129356300D01*
X112783850Y-129356300D01*
X112783850Y-129896050D01*
X111228100Y-129896050D01*
X111228100Y-130404050D01*
X109069100Y-130404050D01*
X109069100Y-129832550D01*
X109577100Y-129832550D01*
X109577100Y-129324550D01*
X110622282Y-129324550D01*
X110631504Y-129062612D01*
X110640725Y-128800675D01*
X110902663Y-128791453D01*
X111164600Y-128782231D01*
X111164600Y-128276800D01*
X111672600Y-128276800D01*
X111672600Y-127737050D01*
X112783850Y-127737050D01*
X113260100Y-127737050D01*
X113260100Y-127260800D01*
X113831600Y-127260800D01*
X113831600Y-127737050D01*
X114307850Y-127737050D01*
X114307850Y-127260800D01*
X114879350Y-127260800D01*
X114879350Y-127737050D01*
X115355600Y-127737050D01*
X115355600Y-127260800D01*
X114879350Y-127260800D01*
X114307850Y-127260800D01*
X113831600Y-127260800D01*
X113260100Y-127260800D01*
X112783850Y-127260800D01*
X112783850Y-127737050D01*
X111672600Y-127737050D01*
X111672600Y-127229050D01*
X112212350Y-127229050D01*
X112212350Y-126768675D01*
X112212174Y-126676706D01*
X112210258Y-126520188D01*
X112205482Y-126414048D01*
X112196919Y-126349326D01*
X112183642Y-126317063D01*
X112164725Y-126308300D01*
X112148804Y-126302083D01*
X112135340Y-126274777D01*
X112126207Y-126217816D01*
X112120635Y-126122743D01*
X112117856Y-125981098D01*
X112117100Y-125784425D01*
X112117100Y-125260550D01*
X111577350Y-125260550D01*
X111577350Y-124212800D01*
X111069350Y-124212800D01*
X111069350Y-123707368D01*
X110807413Y-123698146D01*
X110545475Y-123688925D01*
X110536254Y-123426987D01*
X110527032Y-123165050D01*
X109481850Y-123165050D01*
X109481850Y-122657050D01*
X108973850Y-122657050D01*
X108973850Y-122403050D01*
X109196100Y-122403050D01*
X109735850Y-122403050D01*
X109735850Y-122942800D01*
X110783600Y-122942800D01*
X110783600Y-123450800D01*
X111289032Y-123450800D01*
X111298254Y-123712737D01*
X111307475Y-123974675D01*
X111569413Y-123983896D01*
X111831350Y-123993118D01*
X111831350Y-125038300D01*
X112337778Y-125038300D01*
X112346502Y-125554237D01*
X112355225Y-126070175D01*
X112483377Y-126079606D01*
X112510381Y-126081066D01*
X112590733Y-126078575D01*
X112634190Y-126066377D01*
X112636702Y-126062336D01*
X112646944Y-126010193D01*
X112654136Y-125915389D01*
X112656850Y-125795008D01*
X112656850Y-125546300D01*
X113164850Y-125546300D01*
X113164850Y-123993118D01*
X113426788Y-123983896D01*
X113688725Y-123974675D01*
X113697612Y-123569862D01*
X113706498Y-123165050D01*
X114432953Y-123165050D01*
X114441839Y-123569862D01*
X114450725Y-123974675D01*
X114712663Y-123983896D01*
X114974600Y-123993118D01*
X114974600Y-125546300D01*
X115480032Y-125546300D01*
X115489254Y-125808237D01*
X115498475Y-126070175D01*
X115626627Y-126079606D01*
X115653631Y-126081066D01*
X115733983Y-126078575D01*
X115777440Y-126066377D01*
X115782185Y-126050469D01*
X115789290Y-125979813D01*
X115794970Y-125863795D01*
X115798736Y-125713749D01*
X115800100Y-125541008D01*
X115800100Y-125038300D01*
X116308100Y-125038300D01*
X116308100Y-123993118D01*
X116570038Y-123983896D01*
X116831975Y-123974675D01*
X116841197Y-123712737D01*
X116850419Y-123450800D01*
X117355850Y-123450800D01*
X117355850Y-122942800D01*
X118403600Y-122942800D01*
X118403600Y-122403050D01*
X118943350Y-122403050D01*
X118943350Y-122117300D01*
X117070100Y-122117300D01*
X117070100Y-122624190D01*
X116284288Y-122632682D01*
X115498475Y-122641175D01*
X115489254Y-122903112D01*
X115480032Y-123165050D01*
X114432953Y-123165050D01*
X113706498Y-123165050D01*
X113182958Y-123165050D01*
X112659419Y-123165049D01*
X112640975Y-122641175D01*
X111855163Y-122632682D01*
X111069350Y-122624190D01*
X111069350Y-122117300D01*
X109196100Y-122117300D01*
X109196100Y-122403050D01*
X108973850Y-122403050D01*
X108973850Y-121862517D01*
X110140663Y-121870846D01*
X111307475Y-121879175D01*
X111316697Y-122141112D01*
X111325919Y-122403050D01*
X112879100Y-122403050D01*
X112879100Y-122911050D01*
X113768100Y-122911050D01*
X113768100Y-121450550D01*
X114371350Y-121450550D01*
X114371350Y-122911050D01*
X115260350Y-122911050D01*
X115260350Y-122403050D01*
X116813532Y-122403050D01*
X116822754Y-122141112D01*
X116831975Y-121879175D01*
X117998788Y-121870846D01*
X119165600Y-121862517D01*
X119165600Y-122117300D01*
X119165600Y-122657050D01*
G37*
D14*
X77775600Y-88189800D02*
X130975600Y-88189800D01*
X77775600Y-112994800D02*
X77775600Y-88194800D01*
X79205600Y-89164800D02*
X81745600Y-89164800D01*
X79205600Y-100944800D02*
X102065600Y-100944800D01*
X79205600Y-112024800D02*
X79205600Y-89164800D01*
X81745600Y-89164800D02*
X81745600Y-90434800D01*
X81745600Y-90434800D02*
X94445600Y-90434800D01*
X81745600Y-110754800D02*
X81745600Y-112024800D01*
X81745600Y-110754800D02*
X94445600Y-110754800D01*
X81745600Y-112024800D02*
X79205600Y-112024800D01*
X94445600Y-89164800D02*
X114305600Y-89164800D01*
X94445600Y-90434800D02*
X94445600Y-89164800D01*
X94445600Y-91704800D02*
X94445600Y-96784800D01*
X94445600Y-96784800D02*
X113035600Y-96784800D01*
X94445600Y-105674800D02*
X94445600Y-108214800D01*
X94445600Y-108214800D02*
X95715600Y-108214800D01*
X94445600Y-112024800D02*
X94445600Y-110754800D01*
X95715600Y-104404800D02*
X95715600Y-105674800D01*
X95715600Y-105674800D02*
X94445600Y-105674800D01*
X95715600Y-108214800D02*
X95715600Y-109484800D01*
X95715600Y-109484800D02*
X114305600Y-109484800D01*
X102065600Y-100244800D02*
X79205600Y-100244800D01*
X102065600Y-100944800D02*
X102065600Y-100244800D01*
X109225600Y-100244800D02*
X129545600Y-100244800D01*
X109225600Y-100944800D02*
X109225600Y-100244800D01*
X113035600Y-91704800D02*
X94445600Y-91704800D01*
X113035600Y-92974800D02*
X113035600Y-91704800D01*
X113035600Y-95514800D02*
X114305600Y-95514800D01*
X113035600Y-96784800D02*
X113035600Y-95514800D01*
X114305600Y-89164800D02*
X114305600Y-90434800D01*
X114305600Y-92974800D02*
X113035600Y-92974800D01*
X114305600Y-95514800D02*
X114305600Y-92974800D01*
X114305600Y-104404800D02*
X95715600Y-104404800D01*
X114305600Y-109484800D02*
X114305600Y-104404800D01*
X114305600Y-110754800D02*
X114305600Y-112024800D01*
X114305600Y-112024800D02*
X94445600Y-112024800D01*
X127005600Y-89164800D02*
X127005600Y-90434800D01*
X127005600Y-90434800D02*
X114305600Y-90434800D01*
X127005600Y-110754800D02*
X114305600Y-110754800D01*
X127005600Y-112024800D02*
X127005600Y-110754800D01*
X129545600Y-89164800D02*
X127005600Y-89164800D01*
X129545600Y-100944800D02*
X109225600Y-100944800D01*
X129545600Y-112024800D02*
X127005600Y-112024800D01*
X129545600Y-112024800D02*
X129545600Y-89164800D01*
X130975600Y-88194800D02*
X130975600Y-112994800D01*
X130975600Y-112999800D02*
X77775600Y-112999800D01*
D15*
X110250700Y-92747980D02*
X110354840Y-92753060D01*
X110431040Y-92758140D01*
X110461520Y-92763220D01*
X110461520Y-92765760D01*
X110474220Y-92806400D01*
X110492000Y-92890220D01*
X110514860Y-93004520D01*
X110542800Y-93141680D01*
X110547880Y-93167080D01*
X110570740Y-93299160D01*
X110593600Y-93405840D01*
X110608840Y-93482040D01*
X110619000Y-93509980D01*
X110629160Y-93517600D01*
X110685040Y-93540460D01*
X110773940Y-93578560D01*
X110883160Y-93621740D01*
X111137160Y-93725880D01*
X111449580Y-93509980D01*
X111480060Y-93492200D01*
X111591820Y-93416000D01*
X111683260Y-93352500D01*
X111746760Y-93311860D01*
X111774700Y-93296620D01*
X111777240Y-93299160D01*
X111807720Y-93324560D01*
X111868680Y-93382980D01*
X111955040Y-93466800D01*
X112051560Y-93563320D01*
X112125220Y-93636980D01*
X112211580Y-93723340D01*
X112264920Y-93781760D01*
X112295400Y-93819860D01*
X112305560Y-93842720D01*
X112303020Y-93857960D01*
X112282700Y-93890980D01*
X112236980Y-93959560D01*
X112173480Y-94053540D01*
X112097280Y-94165300D01*
X112033780Y-94256740D01*
X111967740Y-94360880D01*
X111922020Y-94437080D01*
X111906780Y-94472640D01*
X111911860Y-94487880D01*
X111932180Y-94548840D01*
X111970280Y-94642820D01*
X112016000Y-94752040D01*
X112125220Y-94998420D01*
X112287780Y-95031440D01*
X112386840Y-95049220D01*
X112524000Y-95074620D01*
X112653540Y-95100020D01*
X112859280Y-95140660D01*
X112866900Y-95892500D01*
X112836420Y-95907740D01*
X112805940Y-95915360D01*
X112729740Y-95933140D01*
X112620520Y-95953460D01*
X112493520Y-95978860D01*
X112384300Y-95999180D01*
X112272540Y-96019500D01*
X112193800Y-96034740D01*
X112158240Y-96042360D01*
X112150620Y-96052520D01*
X112122680Y-96105860D01*
X112084580Y-96192220D01*
X112041400Y-96293820D01*
X111995680Y-96397960D01*
X111957580Y-96497020D01*
X111929640Y-96570680D01*
X111919480Y-96608780D01*
X111934720Y-96636720D01*
X111977900Y-96702760D01*
X112038860Y-96794200D01*
X112112520Y-96903420D01*
X112186180Y-97012640D01*
X112249680Y-97106620D01*
X112292860Y-97172660D01*
X112313180Y-97203140D01*
X112303020Y-97226000D01*
X112259840Y-97276800D01*
X112176020Y-97363160D01*
X112054100Y-97485080D01*
X112033780Y-97502860D01*
X111937260Y-97596840D01*
X111853440Y-97673040D01*
X111797560Y-97723840D01*
X111772160Y-97744160D01*
X111741680Y-97728920D01*
X111678180Y-97688280D01*
X111584200Y-97627320D01*
X111474980Y-97553660D01*
X111363220Y-97477460D01*
X111274320Y-97416500D01*
X111210820Y-97375860D01*
X111182880Y-97363160D01*
X111170180Y-97368240D01*
X111116840Y-97393640D01*
X111040640Y-97431740D01*
X110997460Y-97454600D01*
X110926340Y-97485080D01*
X110893320Y-97490160D01*
X110885700Y-97482540D01*
X110860300Y-97429200D01*
X110822200Y-97337760D01*
X110768860Y-97215840D01*
X110707900Y-97076140D01*
X110644400Y-96923740D01*
X110578360Y-96768800D01*
X110517400Y-96618940D01*
X110464060Y-96486860D01*
X110420880Y-96377640D01*
X110390400Y-96303980D01*
X110380240Y-96270960D01*
X110382780Y-96263340D01*
X110418340Y-96230320D01*
X110479300Y-96184600D01*
X110611380Y-96077920D01*
X110740920Y-95915360D01*
X110819660Y-95729940D01*
X110847600Y-95526740D01*
X110824740Y-95336240D01*
X110748540Y-95153360D01*
X110621540Y-94990800D01*
X110469140Y-94868880D01*
X110288800Y-94790140D01*
X110085600Y-94767280D01*
X109892560Y-94787600D01*
X109707140Y-94861260D01*
X109542040Y-94985720D01*
X109473460Y-95067000D01*
X109376940Y-95232100D01*
X109323600Y-95409900D01*
X109315980Y-95455620D01*
X109326140Y-95651200D01*
X109382020Y-95836620D01*
X109486160Y-96004260D01*
X109628400Y-96141420D01*
X109646180Y-96156660D01*
X109714760Y-96204920D01*
X109757940Y-96240480D01*
X109793500Y-96268420D01*
X109544580Y-96867860D01*
X109503940Y-96961840D01*
X109435360Y-97126940D01*
X109376940Y-97266640D01*
X109328680Y-97378400D01*
X109295660Y-97454600D01*
X109280420Y-97485080D01*
X109277880Y-97485080D01*
X109257560Y-97490160D01*
X109211840Y-97472380D01*
X109128020Y-97431740D01*
X109072140Y-97403800D01*
X109008640Y-97373320D01*
X108980700Y-97363160D01*
X108955300Y-97375860D01*
X108894340Y-97413960D01*
X108805440Y-97474920D01*
X108698760Y-97548580D01*
X108597160Y-97617160D01*
X108503180Y-97678120D01*
X108434600Y-97721300D01*
X108401580Y-97739080D01*
X108396500Y-97739080D01*
X108366020Y-97723840D01*
X108312680Y-97678120D01*
X108231400Y-97601920D01*
X108114560Y-97487620D01*
X108096780Y-97469840D01*
X108002800Y-97373320D01*
X107926600Y-97292040D01*
X107873260Y-97236160D01*
X107855480Y-97208220D01*
X107873260Y-97175200D01*
X107916440Y-97109160D01*
X107977400Y-97012640D01*
X108053600Y-96900880D01*
X108251720Y-96613860D01*
X108142500Y-96342080D01*
X108109480Y-96258260D01*
X108066300Y-96156660D01*
X108035820Y-96085540D01*
X108020580Y-96052520D01*
X107990100Y-96042360D01*
X107916440Y-96024580D01*
X107807220Y-96001720D01*
X107677680Y-95978860D01*
X107555760Y-95956000D01*
X107446540Y-95935680D01*
X107365260Y-95920440D01*
X107329700Y-95912820D01*
X107319540Y-95907740D01*
X107314460Y-95889960D01*
X107309380Y-95851860D01*
X107306840Y-95785820D01*
X107304300Y-95679140D01*
X107304300Y-95526740D01*
X107304300Y-95508960D01*
X107306840Y-95361640D01*
X107309380Y-95247340D01*
X107311920Y-95171140D01*
X107317000Y-95140660D01*
X107352560Y-95133040D01*
X107431300Y-95115260D01*
X107540520Y-95094940D01*
X107672600Y-95069540D01*
X107682760Y-95067000D01*
X107812300Y-95041600D01*
X107924060Y-95018740D01*
X108000260Y-95000960D01*
X108033280Y-94990800D01*
X108040900Y-94980640D01*
X108066300Y-94929840D01*
X108104400Y-94848560D01*
X108147580Y-94749500D01*
X108190760Y-94645360D01*
X108228860Y-94553920D01*
X108254260Y-94482800D01*
X108261880Y-94452320D01*
X108259340Y-94452320D01*
X108241560Y-94419300D01*
X108195840Y-94350720D01*
X108132340Y-94256740D01*
X108053600Y-94144980D01*
X108048520Y-94137360D01*
X107972320Y-94025600D01*
X107911360Y-93931620D01*
X107870720Y-93863040D01*
X107855480Y-93832560D01*
X107880880Y-93799540D01*
X107936760Y-93736040D01*
X108018040Y-93649680D01*
X108117100Y-93553160D01*
X108147580Y-93522680D01*
X108254260Y-93416000D01*
X108330460Y-93347420D01*
X108376180Y-93309320D01*
X108399040Y-93301700D01*
X108401580Y-93301700D01*
X108434600Y-93322020D01*
X108503180Y-93367740D01*
X108599700Y-93433780D01*
X108711460Y-93509980D01*
X108719080Y-93515060D01*
X108830840Y-93591260D01*
X108924820Y-93654760D01*
X108990860Y-93697940D01*
X109018800Y-93715720D01*
X109023880Y-93715720D01*
X109069600Y-93700480D01*
X109148340Y-93672540D01*
X109244860Y-93636980D01*
X109349000Y-93593800D01*
X109440440Y-93555700D01*
X109511560Y-93522680D01*
X109544580Y-93504900D01*
X109544580Y-93502360D01*
X109557280Y-93464260D01*
X109577600Y-93380440D01*
X109600460Y-93266140D01*
X109625860Y-93128980D01*
X109630940Y-93106120D01*
X109656340Y-92974040D01*
X109676660Y-92864820D01*
X109691900Y-92788620D01*
X109699520Y-92758140D01*
X109719840Y-92753060D01*
X109783340Y-92747980D01*
X109882400Y-92745440D01*
X110001780Y-92745440D01*
X110126240Y-92745440D01*
X110250700Y-92747980D01*
G36*
X110250700Y-92747980D02*
G01*
X110354840Y-92753060D01*
X110431040Y-92758140D01*
X110461520Y-92763220D01*
X110461520Y-92765760D01*
X110474220Y-92806400D01*
X110492000Y-92890220D01*
X110514860Y-93004520D01*
X110542800Y-93141680D01*
X110547880Y-93167080D01*
X110570740Y-93299160D01*
X110593600Y-93405840D01*
X110608840Y-93482040D01*
X110619000Y-93509980D01*
X110629160Y-93517600D01*
X110685040Y-93540460D01*
X110773940Y-93578560D01*
X110883160Y-93621740D01*
X111137160Y-93725880D01*
X111449580Y-93509980D01*
X111480060Y-93492200D01*
X111591820Y-93416000D01*
X111683260Y-93352500D01*
X111746760Y-93311860D01*
X111774700Y-93296620D01*
X111777240Y-93299160D01*
X111807720Y-93324560D01*
X111868680Y-93382980D01*
X111955040Y-93466800D01*
X112051560Y-93563320D01*
X112125220Y-93636980D01*
X112211580Y-93723340D01*
X112264920Y-93781760D01*
X112295400Y-93819860D01*
X112305560Y-93842720D01*
X112303020Y-93857960D01*
X112282700Y-93890980D01*
X112236980Y-93959560D01*
X112173480Y-94053540D01*
X112097280Y-94165300D01*
X112033780Y-94256740D01*
X111967740Y-94360880D01*
X111922020Y-94437080D01*
X111906780Y-94472640D01*
X111911860Y-94487880D01*
X111932180Y-94548840D01*
X111970280Y-94642820D01*
X112016000Y-94752040D01*
X112125220Y-94998420D01*
X112287780Y-95031440D01*
X112386840Y-95049220D01*
X112524000Y-95074620D01*
X112653540Y-95100020D01*
X112859280Y-95140660D01*
X112866900Y-95892500D01*
X112836420Y-95907740D01*
X112805940Y-95915360D01*
X112729740Y-95933140D01*
X112620520Y-95953460D01*
X112493520Y-95978860D01*
X112384300Y-95999180D01*
X112272540Y-96019500D01*
X112193800Y-96034740D01*
X112158240Y-96042360D01*
X112150620Y-96052520D01*
X112122680Y-96105860D01*
X112084580Y-96192220D01*
X112041400Y-96293820D01*
X111995680Y-96397960D01*
X111957580Y-96497020D01*
X111929640Y-96570680D01*
X111919480Y-96608780D01*
X111934720Y-96636720D01*
X111977900Y-96702760D01*
X112038860Y-96794200D01*
X112112520Y-96903420D01*
X112186180Y-97012640D01*
X112249680Y-97106620D01*
X112292860Y-97172660D01*
X112313180Y-97203140D01*
X112303020Y-97226000D01*
X112259840Y-97276800D01*
X112176020Y-97363160D01*
X112054100Y-97485080D01*
X112033780Y-97502860D01*
X111937260Y-97596840D01*
X111853440Y-97673040D01*
X111797560Y-97723840D01*
X111772160Y-97744160D01*
X111741680Y-97728920D01*
X111678180Y-97688280D01*
X111584200Y-97627320D01*
X111474980Y-97553660D01*
X111363220Y-97477460D01*
X111274320Y-97416500D01*
X111210820Y-97375860D01*
X111182880Y-97363160D01*
X111170180Y-97368240D01*
X111116840Y-97393640D01*
X111040640Y-97431740D01*
X110997460Y-97454600D01*
X110926340Y-97485080D01*
X110893320Y-97490160D01*
X110885700Y-97482540D01*
X110860300Y-97429200D01*
X110822200Y-97337760D01*
X110768860Y-97215840D01*
X110707900Y-97076140D01*
X110644400Y-96923740D01*
X110578360Y-96768800D01*
X110517400Y-96618940D01*
X110464060Y-96486860D01*
X110420880Y-96377640D01*
X110390400Y-96303980D01*
X110380240Y-96270960D01*
X110382780Y-96263340D01*
X110418340Y-96230320D01*
X110479300Y-96184600D01*
X110611380Y-96077920D01*
X110740920Y-95915360D01*
X110819660Y-95729940D01*
X110847600Y-95526740D01*
X110824740Y-95336240D01*
X110748540Y-95153360D01*
X110621540Y-94990800D01*
X110469140Y-94868880D01*
X110288800Y-94790140D01*
X110085600Y-94767280D01*
X109892560Y-94787600D01*
X109707140Y-94861260D01*
X109542040Y-94985720D01*
X109473460Y-95067000D01*
X109376940Y-95232100D01*
X109323600Y-95409900D01*
X109315980Y-95455620D01*
X109326140Y-95651200D01*
X109382020Y-95836620D01*
X109486160Y-96004260D01*
X109628400Y-96141420D01*
X109646180Y-96156660D01*
X109714760Y-96204920D01*
X109757940Y-96240480D01*
X109793500Y-96268420D01*
X109544580Y-96867860D01*
X109503940Y-96961840D01*
X109435360Y-97126940D01*
X109376940Y-97266640D01*
X109328680Y-97378400D01*
X109295660Y-97454600D01*
X109280420Y-97485080D01*
X109277880Y-97485080D01*
X109257560Y-97490160D01*
X109211840Y-97472380D01*
X109128020Y-97431740D01*
X109072140Y-97403800D01*
X109008640Y-97373320D01*
X108980700Y-97363160D01*
X108955300Y-97375860D01*
X108894340Y-97413960D01*
X108805440Y-97474920D01*
X108698760Y-97548580D01*
X108597160Y-97617160D01*
X108503180Y-97678120D01*
X108434600Y-97721300D01*
X108401580Y-97739080D01*
X108396500Y-97739080D01*
X108366020Y-97723840D01*
X108312680Y-97678120D01*
X108231400Y-97601920D01*
X108114560Y-97487620D01*
X108096780Y-97469840D01*
X108002800Y-97373320D01*
X107926600Y-97292040D01*
X107873260Y-97236160D01*
X107855480Y-97208220D01*
X107873260Y-97175200D01*
X107916440Y-97109160D01*
X107977400Y-97012640D01*
X108053600Y-96900880D01*
X108251720Y-96613860D01*
X108142500Y-96342080D01*
X108109480Y-96258260D01*
X108066300Y-96156660D01*
X108035820Y-96085540D01*
X108020580Y-96052520D01*
X107990100Y-96042360D01*
X107916440Y-96024580D01*
X107807220Y-96001720D01*
X107677680Y-95978860D01*
X107555760Y-95956000D01*
X107446540Y-95935680D01*
X107365260Y-95920440D01*
X107329700Y-95912820D01*
X107319540Y-95907740D01*
X107314460Y-95889960D01*
X107309380Y-95851860D01*
X107306840Y-95785820D01*
X107304300Y-95679140D01*
X107304300Y-95526740D01*
X107304300Y-95508960D01*
X107306840Y-95361640D01*
X107309380Y-95247340D01*
X107311920Y-95171140D01*
X107317000Y-95140660D01*
X107352560Y-95133040D01*
X107431300Y-95115260D01*
X107540520Y-95094940D01*
X107672600Y-95069540D01*
X107682760Y-95067000D01*
X107812300Y-95041600D01*
X107924060Y-95018740D01*
X108000260Y-95000960D01*
X108033280Y-94990800D01*
X108040900Y-94980640D01*
X108066300Y-94929840D01*
X108104400Y-94848560D01*
X108147580Y-94749500D01*
X108190760Y-94645360D01*
X108228860Y-94553920D01*
X108254260Y-94482800D01*
X108261880Y-94452320D01*
X108259340Y-94452320D01*
X108241560Y-94419300D01*
X108195840Y-94350720D01*
X108132340Y-94256740D01*
X108053600Y-94144980D01*
X108048520Y-94137360D01*
X107972320Y-94025600D01*
X107911360Y-93931620D01*
X107870720Y-93863040D01*
X107855480Y-93832560D01*
X107880880Y-93799540D01*
X107936760Y-93736040D01*
X108018040Y-93649680D01*
X108117100Y-93553160D01*
X108147580Y-93522680D01*
X108254260Y-93416000D01*
X108330460Y-93347420D01*
X108376180Y-93309320D01*
X108399040Y-93301700D01*
X108401580Y-93301700D01*
X108434600Y-93322020D01*
X108503180Y-93367740D01*
X108599700Y-93433780D01*
X108711460Y-93509980D01*
X108719080Y-93515060D01*
X108830840Y-93591260D01*
X108924820Y-93654760D01*
X108990860Y-93697940D01*
X109018800Y-93715720D01*
X109023880Y-93715720D01*
X109069600Y-93700480D01*
X109148340Y-93672540D01*
X109244860Y-93636980D01*
X109349000Y-93593800D01*
X109440440Y-93555700D01*
X109511560Y-93522680D01*
X109544580Y-93504900D01*
X109544580Y-93502360D01*
X109557280Y-93464260D01*
X109577600Y-93380440D01*
X109600460Y-93266140D01*
X109625860Y-93128980D01*
X109630940Y-93106120D01*
X109656340Y-92974040D01*
X109676660Y-92864820D01*
X109691900Y-92788620D01*
X109699520Y-92758140D01*
X109719840Y-92753060D01*
X109783340Y-92747980D01*
X109882400Y-92745440D01*
X110001780Y-92745440D01*
X110126240Y-92745440D01*
X110250700Y-92747980D01*
G37*
D13*
X91264424Y-130283741D02*
X90935718Y-130283741D01*
X90935718Y-129955035D01*
X91264424Y-129955035D01*
X91264424Y-130283741D01*
G36*
X91264424Y-130283741D02*
G01*
X90935718Y-130283741D01*
X90935718Y-129955035D01*
X91264424Y-129955035D01*
X91264424Y-130283741D01*
G37*
X98525835Y-130074564D02*
X98645365Y-130074564D01*
X98645365Y-130283741D01*
X98340097Y-130283741D01*
X98268613Y-130213332D01*
X98197130Y-130142923D01*
X98197130Y-129835505D01*
X98525835Y-129835505D01*
X98525835Y-130074564D01*
G36*
X98525835Y-130074564D02*
G01*
X98645365Y-130074564D01*
X98645365Y-130283741D01*
X98340097Y-130283741D01*
X98268613Y-130213332D01*
X98197130Y-130142923D01*
X98197130Y-129835505D01*
X98525835Y-129835505D01*
X98525835Y-130074564D01*
G37*
X106130894Y-130283741D02*
X105802188Y-130283741D01*
X105802188Y-129790682D01*
X105518306Y-129790682D01*
X105518306Y-130283741D01*
X105189600Y-130283741D01*
X105189600Y-129724473D01*
X105330418Y-129581505D01*
X106130894Y-129581505D01*
X106130894Y-130283741D01*
G36*
X106130894Y-130283741D02*
G01*
X105802188Y-130283741D01*
X105802188Y-129790682D01*
X105518306Y-129790682D01*
X105518306Y-130283741D01*
X105189600Y-130283741D01*
X105189600Y-129724473D01*
X105330418Y-129581505D01*
X106130894Y-129581505D01*
X106130894Y-130283741D01*
G37*
X100811835Y-130283741D02*
X100483130Y-130283741D01*
X100483130Y-129790682D01*
X100199247Y-129790682D01*
X100199247Y-130283741D01*
X99870541Y-130283741D01*
X99870541Y-129739327D01*
X100026403Y-129581505D01*
X100811835Y-129581505D01*
X100811835Y-130283741D01*
G36*
X100811835Y-130283741D02*
G01*
X100483130Y-130283741D01*
X100483130Y-129790682D01*
X100199247Y-129790682D01*
X100199247Y-130283741D01*
X99870541Y-130283741D01*
X99870541Y-129739327D01*
X100026403Y-129581505D01*
X100811835Y-129581505D01*
X100811835Y-130283741D01*
G37*
X97913247Y-130283741D02*
X97584541Y-130283741D01*
X97584541Y-129790682D01*
X97300659Y-129790682D01*
X97300659Y-130283741D01*
X96971953Y-130283741D01*
X96971953Y-129724473D01*
X97112771Y-129581505D01*
X97913247Y-129581505D01*
X97913247Y-130283741D01*
G36*
X97913247Y-130283741D02*
G01*
X97584541Y-130283741D01*
X97584541Y-129790682D01*
X97300659Y-129790682D01*
X97300659Y-130283741D01*
X96971953Y-130283741D01*
X96971953Y-129724473D01*
X97112771Y-129581505D01*
X97913247Y-129581505D01*
X97913247Y-130283741D01*
G37*
X101648541Y-129790682D02*
X101529012Y-129790682D01*
X101529012Y-130074564D01*
X101768071Y-130074564D01*
X101768071Y-130283741D01*
X100946306Y-130283741D01*
X100946306Y-130074564D01*
X101200306Y-130074564D01*
X101200306Y-129581505D01*
X101648541Y-129581505D01*
X101648541Y-129790682D01*
G36*
X101648541Y-129790682D02*
G01*
X101529012Y-129790682D01*
X101529012Y-130074564D01*
X101768071Y-130074564D01*
X101768071Y-130283741D01*
X100946306Y-130283741D01*
X100946306Y-130074564D01*
X101200306Y-130074564D01*
X101200306Y-129581505D01*
X101648541Y-129581505D01*
X101648541Y-129790682D01*
G37*
X93430894Y-129737367D02*
X93430894Y-130140773D01*
X93290076Y-130283741D01*
X92489600Y-130283741D01*
X92489600Y-130074564D01*
X93102188Y-130074564D01*
X93102188Y-129790682D01*
X92489600Y-129790682D01*
X92489600Y-129581505D01*
X93273072Y-129581505D01*
X93430894Y-129737367D01*
G36*
X93430894Y-129737367D02*
G01*
X93430894Y-130140773D01*
X93290076Y-130283741D01*
X92489600Y-130283741D01*
X92489600Y-130074564D01*
X93102188Y-130074564D01*
X93102188Y-129790682D01*
X92489600Y-129790682D01*
X92489600Y-129581505D01*
X93273072Y-129581505D01*
X93430894Y-129737367D01*
G37*
X101529012Y-129437074D02*
X101527838Y-129482673D01*
X101524236Y-129522555D01*
X101519051Y-129541662D01*
X101508818Y-129544668D01*
X101473506Y-129548258D01*
X101419876Y-129550714D01*
X101354698Y-129551623D01*
X101200306Y-129551623D01*
X101200306Y-129342447D01*
X101529012Y-129342447D01*
X101529012Y-129437074D01*
G36*
X101529012Y-129437074D02*
G01*
X101527838Y-129482673D01*
X101524236Y-129522555D01*
X101519051Y-129541662D01*
X101508818Y-129544668D01*
X101473506Y-129548258D01*
X101419876Y-129550714D01*
X101354698Y-129551623D01*
X101200306Y-129551623D01*
X101200306Y-129342447D01*
X101529012Y-129342447D01*
X101529012Y-129437074D01*
G37*
X95597365Y-130283741D02*
X95268659Y-130283741D01*
X95268659Y-129790682D01*
X94984777Y-129790682D01*
X94984777Y-130283741D01*
X94656071Y-130283741D01*
X94656071Y-129724473D01*
X94796889Y-129581505D01*
X95268659Y-129581505D01*
X95268659Y-129342447D01*
X95597365Y-129342447D01*
X95597365Y-130283741D01*
G36*
X95597365Y-130283741D02*
G01*
X95268659Y-130283741D01*
X95268659Y-129790682D01*
X94984777Y-129790682D01*
X94984777Y-130283741D01*
X94656071Y-130283741D01*
X94656071Y-129724473D01*
X94796889Y-129581505D01*
X95268659Y-129581505D01*
X95268659Y-129342447D01*
X95597365Y-129342447D01*
X95597365Y-130283741D01*
G37*
X103815012Y-130140773D02*
X103674194Y-130283741D01*
X102873718Y-130283741D01*
X102873718Y-130074564D01*
X103202424Y-130074564D01*
X103486306Y-130074564D01*
X103486306Y-129790682D01*
X103202424Y-129790682D01*
X103202424Y-130074564D01*
X102873718Y-130074564D01*
X102873718Y-129342447D01*
X103202424Y-129342447D01*
X103202424Y-129581505D01*
X103657190Y-129581505D01*
X103815012Y-129737367D01*
X103815012Y-129790682D01*
X103815012Y-130140773D01*
G36*
X103815012Y-130140773D02*
G01*
X103674194Y-130283741D01*
X102873718Y-130283741D01*
X102873718Y-130074564D01*
X103202424Y-130074564D01*
X103486306Y-130074564D01*
X103486306Y-129790682D01*
X103202424Y-129790682D01*
X103202424Y-130074564D01*
X102873718Y-130074564D01*
X102873718Y-129342447D01*
X103202424Y-129342447D01*
X103202424Y-129581505D01*
X103657190Y-129581505D01*
X103815012Y-129737367D01*
X103815012Y-129790682D01*
X103815012Y-130140773D01*
G37*
X96822541Y-130140773D02*
X96681723Y-130283741D01*
X96024215Y-130283741D01*
X95881247Y-130142923D01*
X95881247Y-130074564D01*
X96209953Y-130074564D01*
X96493835Y-130074564D01*
X96493835Y-129790682D01*
X96209953Y-129790682D01*
X96209953Y-130074564D01*
X95881247Y-130074564D01*
X95881247Y-129739327D01*
X96037109Y-129581505D01*
X96679574Y-129581505D01*
X96751058Y-129651914D01*
X96822541Y-129722323D01*
X96822541Y-129790682D01*
X96822541Y-130140773D01*
G36*
X96822541Y-130140773D02*
G01*
X96681723Y-130283741D01*
X96024215Y-130283741D01*
X95881247Y-130142923D01*
X95881247Y-130074564D01*
X96209953Y-130074564D01*
X96493835Y-130074564D01*
X96493835Y-129790682D01*
X96209953Y-129790682D01*
X96209953Y-130074564D01*
X95881247Y-130074564D01*
X95881247Y-129739327D01*
X96037109Y-129581505D01*
X96679574Y-129581505D01*
X96751058Y-129651914D01*
X96822541Y-129722323D01*
X96822541Y-129790682D01*
X96822541Y-130140773D01*
G37*
X105040188Y-130140773D02*
X104969779Y-130212257D01*
X104899371Y-130283741D01*
X104256716Y-130283741D01*
X104098894Y-130127879D01*
X104098894Y-130074564D01*
X104427600Y-130074564D01*
X104711482Y-130074564D01*
X104711482Y-129790682D01*
X104427600Y-129790682D01*
X104427600Y-130074564D01*
X104098894Y-130074564D01*
X104098894Y-129739327D01*
X104254756Y-129581505D01*
X104897221Y-129581505D01*
X104968705Y-129651914D01*
X105040188Y-129722323D01*
X105040188Y-129790682D01*
X105040188Y-130140773D01*
G36*
X105040188Y-130140773D02*
G01*
X104969779Y-130212257D01*
X104899371Y-130283741D01*
X104256716Y-130283741D01*
X104098894Y-130127879D01*
X104098894Y-130074564D01*
X104427600Y-130074564D01*
X104711482Y-130074564D01*
X104711482Y-129790682D01*
X104427600Y-129790682D01*
X104427600Y-130074564D01*
X104098894Y-130074564D01*
X104098894Y-129739327D01*
X104254756Y-129581505D01*
X104897221Y-129581505D01*
X104968705Y-129651914D01*
X105040188Y-129722323D01*
X105040188Y-129790682D01*
X105040188Y-130140773D01*
G37*
X102191806Y-129581709D02*
X102255567Y-129582919D01*
X102298827Y-129585820D01*
X102326851Y-129591083D01*
X102344902Y-129599381D01*
X102358247Y-129611388D01*
X102385716Y-129635946D01*
X102404293Y-129636968D01*
X102410541Y-129610882D01*
X102410726Y-129604869D01*
X102414500Y-129593554D01*
X102427195Y-129586736D01*
X102454046Y-129583561D01*
X102500289Y-129583178D01*
X102571159Y-129584735D01*
X102731777Y-129588976D01*
X102735787Y-129936358D01*
X102739798Y-130283741D01*
X102410541Y-130283741D01*
X102410541Y-129963372D01*
X102239653Y-129790682D01*
X101917482Y-129790682D01*
X101917482Y-129581505D01*
X102124343Y-129581505D01*
X102191806Y-129581709D01*
G36*
X102191806Y-129581709D02*
G01*
X102255567Y-129582919D01*
X102298827Y-129585820D01*
X102326851Y-129591083D01*
X102344902Y-129599381D01*
X102358247Y-129611388D01*
X102385716Y-129635946D01*
X102404293Y-129636968D01*
X102410541Y-129610882D01*
X102410726Y-129604869D01*
X102414500Y-129593554D01*
X102427195Y-129586736D01*
X102454046Y-129583561D01*
X102500289Y-129583178D01*
X102571159Y-129584735D01*
X102731777Y-129588976D01*
X102735787Y-129936358D01*
X102739798Y-130283741D01*
X102410541Y-130283741D01*
X102410541Y-129963372D01*
X102239653Y-129790682D01*
X101917482Y-129790682D01*
X101917482Y-129581505D01*
X102124343Y-129581505D01*
X102191806Y-129581709D01*
G37*
X93879621Y-127581014D02*
X94201347Y-127912727D01*
X94337424Y-127585440D01*
X94473502Y-127258152D01*
X94759021Y-127254095D01*
X94766411Y-127253994D01*
X94854341Y-127253478D01*
X94930693Y-127254247D01*
X94990893Y-127256158D01*
X95030367Y-127259072D01*
X95044541Y-127262849D01*
X95044409Y-127263560D01*
X95036559Y-127283201D01*
X95017583Y-127326414D01*
X94988866Y-127390164D01*
X94951791Y-127471416D01*
X94907741Y-127567138D01*
X94858099Y-127674293D01*
X94804250Y-127789848D01*
X94563959Y-128304035D01*
X94654838Y-128612705D01*
X94665171Y-128647859D01*
X94690892Y-128735915D01*
X94713035Y-128812509D01*
X94730373Y-128873342D01*
X94741677Y-128914119D01*
X94745718Y-128930542D01*
X94732662Y-128933146D01*
X94694251Y-128935120D01*
X94635145Y-128936252D01*
X94560030Y-128936453D01*
X94473590Y-128935637D01*
X94201461Y-128931564D01*
X94103796Y-128606393D01*
X94006130Y-128281221D01*
X93470020Y-127769687D01*
X92933910Y-127258152D01*
X93245902Y-127253727D01*
X93557894Y-127249301D01*
X93879621Y-127581014D01*
G36*
X93879621Y-127581014D02*
G01*
X94201347Y-127912727D01*
X94337424Y-127585440D01*
X94473502Y-127258152D01*
X94759021Y-127254095D01*
X94766411Y-127253994D01*
X94854341Y-127253478D01*
X94930693Y-127254247D01*
X94990893Y-127256158D01*
X95030367Y-127259072D01*
X95044541Y-127262849D01*
X95044409Y-127263560D01*
X95036559Y-127283201D01*
X95017583Y-127326414D01*
X94988866Y-127390164D01*
X94951791Y-127471416D01*
X94907741Y-127567138D01*
X94858099Y-127674293D01*
X94804250Y-127789848D01*
X94563959Y-128304035D01*
X94654838Y-128612705D01*
X94665171Y-128647859D01*
X94690892Y-128735915D01*
X94713035Y-128812509D01*
X94730373Y-128873342D01*
X94741677Y-128914119D01*
X94745718Y-128930542D01*
X94732662Y-128933146D01*
X94694251Y-128935120D01*
X94635145Y-128936252D01*
X94560030Y-128936453D01*
X94473590Y-128935637D01*
X94201461Y-128931564D01*
X94103796Y-128606393D01*
X94006130Y-128281221D01*
X93470020Y-127769687D01*
X92933910Y-127258152D01*
X93245902Y-127253727D01*
X93557894Y-127249301D01*
X93879621Y-127581014D01*
G37*
X99736071Y-130283741D02*
X99408573Y-130283741D01*
X99404234Y-130160641D01*
X99403776Y-130148820D01*
X99398337Y-130082713D01*
X99387289Y-130044192D01*
X99368260Y-130031372D01*
X99338873Y-130042369D01*
X99296756Y-130075296D01*
X99276573Y-130093766D01*
X99254377Y-130121518D01*
X99244966Y-130153745D01*
X99243012Y-130203112D01*
X99243012Y-130283741D01*
X98779835Y-130283741D01*
X98779835Y-130111169D01*
X98891894Y-129999858D01*
X98927249Y-129964003D01*
X98966890Y-129921652D01*
X98993944Y-129890050D01*
X99003953Y-129874195D01*
X99003949Y-129873953D01*
X98994232Y-129853633D01*
X98971466Y-129825262D01*
X98946114Y-129804559D01*
X98911674Y-129793589D01*
X98858725Y-129790682D01*
X98778470Y-129790682D01*
X98787306Y-129588976D01*
X98965582Y-129584743D01*
X99143857Y-129580510D01*
X99213672Y-129649275D01*
X99248101Y-129681828D01*
X99279135Y-129704612D01*
X99307239Y-129713548D01*
X99341690Y-129713272D01*
X99399894Y-129708505D01*
X99404089Y-129525476D01*
X99408285Y-129342447D01*
X99736071Y-129342447D01*
X99736071Y-130283741D01*
G36*
X99736071Y-130283741D02*
G01*
X99408573Y-130283741D01*
X99404234Y-130160641D01*
X99403776Y-130148820D01*
X99398337Y-130082713D01*
X99387289Y-130044192D01*
X99368260Y-130031372D01*
X99338873Y-130042369D01*
X99296756Y-130075296D01*
X99276573Y-130093766D01*
X99254377Y-130121518D01*
X99244966Y-130153745D01*
X99243012Y-130203112D01*
X99243012Y-130283741D01*
X98779835Y-130283741D01*
X98779835Y-130111169D01*
X98891894Y-129999858D01*
X98927249Y-129964003D01*
X98966890Y-129921652D01*
X98993944Y-129890050D01*
X99003953Y-129874195D01*
X99003949Y-129873953D01*
X98994232Y-129853633D01*
X98971466Y-129825262D01*
X98946114Y-129804559D01*
X98911674Y-129793589D01*
X98858725Y-129790682D01*
X98778470Y-129790682D01*
X98787306Y-129588976D01*
X98965582Y-129584743D01*
X99143857Y-129580510D01*
X99213672Y-129649275D01*
X99248101Y-129681828D01*
X99279135Y-129704612D01*
X99307239Y-129713548D01*
X99341690Y-129713272D01*
X99399894Y-129708505D01*
X99404089Y-129525476D01*
X99408285Y-129342447D01*
X99736071Y-129342447D01*
X99736071Y-130283741D01*
G37*
X92355130Y-130283741D02*
X92027632Y-130283741D01*
X92023293Y-130160476D01*
X92021997Y-130127368D01*
X92018658Y-130078777D01*
X92012975Y-130050911D01*
X92003237Y-130037620D01*
X91987729Y-130032751D01*
X91982408Y-130032448D01*
X91947109Y-130046854D01*
X91901818Y-130088823D01*
X91897563Y-130093566D01*
X91865745Y-130134379D01*
X91850833Y-130170936D01*
X91847130Y-130216548D01*
X91847130Y-130283741D01*
X91398894Y-130283741D01*
X91398894Y-130111169D01*
X91510953Y-129999858D01*
X91546308Y-129964003D01*
X91585948Y-129921652D01*
X91613003Y-129890050D01*
X91623012Y-129874195D01*
X91623007Y-129873953D01*
X91613290Y-129853633D01*
X91590525Y-129825262D01*
X91565753Y-129804893D01*
X91531316Y-129793665D01*
X91478466Y-129790682D01*
X91398894Y-129790682D01*
X91398894Y-129581505D01*
X91766202Y-129581505D01*
X91832813Y-129649404D01*
X91865287Y-129681190D01*
X91895608Y-129704099D01*
X91923712Y-129713064D01*
X91959188Y-129712904D01*
X92018953Y-129708505D01*
X92027343Y-129342447D01*
X92355130Y-129342447D01*
X92355130Y-130283741D01*
G36*
X92355130Y-130283741D02*
G01*
X92027632Y-130283741D01*
X92023293Y-130160476D01*
X92021997Y-130127368D01*
X92018658Y-130078777D01*
X92012975Y-130050911D01*
X92003237Y-130037620D01*
X91987729Y-130032751D01*
X91982408Y-130032448D01*
X91947109Y-130046854D01*
X91901818Y-130088823D01*
X91897563Y-130093566D01*
X91865745Y-130134379D01*
X91850833Y-130170936D01*
X91847130Y-130216548D01*
X91847130Y-130283741D01*
X91398894Y-130283741D01*
X91398894Y-130111169D01*
X91510953Y-129999858D01*
X91546308Y-129964003D01*
X91585948Y-129921652D01*
X91613003Y-129890050D01*
X91623012Y-129874195D01*
X91623007Y-129873953D01*
X91613290Y-129853633D01*
X91590525Y-129825262D01*
X91565753Y-129804893D01*
X91531316Y-129793665D01*
X91478466Y-129790682D01*
X91398894Y-129790682D01*
X91398894Y-129581505D01*
X91766202Y-129581505D01*
X91832813Y-129649404D01*
X91865287Y-129681190D01*
X91895608Y-129704099D01*
X91923712Y-129713064D01*
X91959188Y-129712904D01*
X92018953Y-129708505D01*
X92027343Y-129342447D01*
X92355130Y-129342447D01*
X92355130Y-130283741D01*
G37*
X101684678Y-127373947D02*
X101689976Y-127391633D01*
X101707955Y-127452854D01*
X101722758Y-127504992D01*
X101731602Y-127538300D01*
X101741428Y-127579388D01*
X101410095Y-127579388D01*
X101343834Y-127579429D01*
X101251907Y-127579811D01*
X101184265Y-127580833D01*
X101137375Y-127582780D01*
X101107704Y-127585938D01*
X101091716Y-127590593D01*
X101085878Y-127597030D01*
X101086657Y-127605535D01*
X101100302Y-127651048D01*
X101123151Y-127728060D01*
X101150512Y-127820926D01*
X101181392Y-127926222D01*
X101214797Y-128040522D01*
X101249734Y-128160401D01*
X101285211Y-128282432D01*
X101320233Y-128403191D01*
X101353808Y-128519251D01*
X101384943Y-128627188D01*
X101412644Y-128723575D01*
X101435918Y-128804986D01*
X101453772Y-128867997D01*
X101465213Y-128909182D01*
X101469247Y-128925115D01*
X101465117Y-128928097D01*
X101435661Y-128932529D01*
X101379766Y-128935321D01*
X101299655Y-128936385D01*
X101197554Y-128935637D01*
X100925860Y-128931564D01*
X100728912Y-128259211D01*
X100531965Y-127586858D01*
X100201646Y-127582838D01*
X99871328Y-127578818D01*
X99834317Y-127455838D01*
X99829101Y-127438426D01*
X99811133Y-127377241D01*
X99796330Y-127325101D01*
X99787481Y-127291770D01*
X99777655Y-127250682D01*
X101647581Y-127250682D01*
X101684678Y-127373947D01*
G36*
X101684678Y-127373947D02*
G01*
X101689976Y-127391633D01*
X101707955Y-127452854D01*
X101722758Y-127504992D01*
X101731602Y-127538300D01*
X101741428Y-127579388D01*
X101410095Y-127579388D01*
X101343834Y-127579429D01*
X101251907Y-127579811D01*
X101184265Y-127580833D01*
X101137375Y-127582780D01*
X101107704Y-127585938D01*
X101091716Y-127590593D01*
X101085878Y-127597030D01*
X101086657Y-127605535D01*
X101100302Y-127651048D01*
X101123151Y-127728060D01*
X101150512Y-127820926D01*
X101181392Y-127926222D01*
X101214797Y-128040522D01*
X101249734Y-128160401D01*
X101285211Y-128282432D01*
X101320233Y-128403191D01*
X101353808Y-128519251D01*
X101384943Y-128627188D01*
X101412644Y-128723575D01*
X101435918Y-128804986D01*
X101453772Y-128867997D01*
X101465213Y-128909182D01*
X101469247Y-128925115D01*
X101465117Y-128928097D01*
X101435661Y-128932529D01*
X101379766Y-128935321D01*
X101299655Y-128936385D01*
X101197554Y-128935637D01*
X100925860Y-128931564D01*
X100728912Y-128259211D01*
X100531965Y-127586858D01*
X100201646Y-127582838D01*
X99871328Y-127578818D01*
X99834317Y-127455838D01*
X99829101Y-127438426D01*
X99811133Y-127377241D01*
X99796330Y-127325101D01*
X99787481Y-127291770D01*
X99777655Y-127250682D01*
X101647581Y-127250682D01*
X101684678Y-127373947D01*
G37*
X94506659Y-130058407D02*
X94506634Y-130068022D01*
X94504455Y-130110657D01*
X94495259Y-130141782D01*
X94474154Y-130172086D01*
X94436250Y-130212257D01*
X94365841Y-130283741D01*
X93565365Y-130283741D01*
X93565365Y-130052152D01*
X93894071Y-130052152D01*
X93894107Y-130058471D01*
X93896307Y-130073571D01*
X93906001Y-130082752D01*
X93928784Y-130087486D01*
X93970256Y-130089246D01*
X94036012Y-130089505D01*
X94060021Y-130089496D01*
X94117403Y-130088917D01*
X94152290Y-130086366D01*
X94170279Y-130080370D01*
X94176967Y-130069457D01*
X94177953Y-130052152D01*
X94177917Y-130045834D01*
X94175717Y-130030734D01*
X94166023Y-130021553D01*
X94143239Y-130016819D01*
X94101768Y-130015059D01*
X94036012Y-130014800D01*
X94012002Y-130014809D01*
X93954621Y-130015388D01*
X93919734Y-130017939D01*
X93901745Y-130023935D01*
X93895056Y-130034848D01*
X93894071Y-130052152D01*
X93565365Y-130052152D01*
X93565365Y-129739327D01*
X93643296Y-129660416D01*
X93721226Y-129581505D01*
X94387130Y-129581505D01*
X94387130Y-129775741D01*
X93891992Y-129775741D01*
X93896767Y-129809358D01*
X93898896Y-129819980D01*
X93905050Y-129829638D01*
X93919237Y-129836495D01*
X93945825Y-129841278D01*
X93989181Y-129844713D01*
X94053673Y-129847527D01*
X94143668Y-129850447D01*
X94385796Y-129857917D01*
X94446227Y-129916979D01*
X94473155Y-129944397D01*
X94495493Y-129975209D01*
X94504799Y-130008854D01*
X94506425Y-130052152D01*
X94506659Y-130058407D01*
G36*
X94506659Y-130058407D02*
G01*
X94506634Y-130068022D01*
X94504455Y-130110657D01*
X94495259Y-130141782D01*
X94474154Y-130172086D01*
X94436250Y-130212257D01*
X94365841Y-130283741D01*
X93565365Y-130283741D01*
X93565365Y-130052152D01*
X93894071Y-130052152D01*
X93894107Y-130058471D01*
X93896307Y-130073571D01*
X93906001Y-130082752D01*
X93928784Y-130087486D01*
X93970256Y-130089246D01*
X94036012Y-130089505D01*
X94060021Y-130089496D01*
X94117403Y-130088917D01*
X94152290Y-130086366D01*
X94170279Y-130080370D01*
X94176967Y-130069457D01*
X94177953Y-130052152D01*
X94177917Y-130045834D01*
X94175717Y-130030734D01*
X94166023Y-130021553D01*
X94143239Y-130016819D01*
X94101768Y-130015059D01*
X94036012Y-130014800D01*
X94012002Y-130014809D01*
X93954621Y-130015388D01*
X93919734Y-130017939D01*
X93901745Y-130023935D01*
X93895056Y-130034848D01*
X93894071Y-130052152D01*
X93565365Y-130052152D01*
X93565365Y-129739327D01*
X93643296Y-129660416D01*
X93721226Y-129581505D01*
X94387130Y-129581505D01*
X94387130Y-129775741D01*
X93891992Y-129775741D01*
X93896767Y-129809358D01*
X93898896Y-129819980D01*
X93905050Y-129829638D01*
X93919237Y-129836495D01*
X93945825Y-129841278D01*
X93989181Y-129844713D01*
X94053673Y-129847527D01*
X94143668Y-129850447D01*
X94385796Y-129857917D01*
X94446227Y-129916979D01*
X94473155Y-129944397D01*
X94495493Y-129975209D01*
X94504799Y-130008854D01*
X94506425Y-130052152D01*
X94506659Y-130058407D01*
G37*
X105754044Y-128300956D02*
X105849279Y-128427151D01*
X105936778Y-128543359D01*
X106015065Y-128647606D01*
X106082663Y-128737921D01*
X106138092Y-128812332D01*
X106179876Y-128868866D01*
X106206535Y-128905552D01*
X106216594Y-128920417D01*
X106215049Y-128926328D01*
X106200679Y-128931504D01*
X106169585Y-128934840D01*
X106118481Y-128936518D01*
X106044085Y-128936723D01*
X105943111Y-128935636D01*
X105662226Y-128931564D01*
X105541707Y-128763795D01*
X105421188Y-128596027D01*
X105025833Y-128599443D01*
X104630477Y-128602858D01*
X104607480Y-128767211D01*
X104584482Y-128931564D01*
X104311806Y-128935637D01*
X104251571Y-128936402D01*
X104166371Y-128936681D01*
X104105898Y-128935430D01*
X104066875Y-128932469D01*
X104046023Y-128927618D01*
X104040063Y-128920695D01*
X104041295Y-128912001D01*
X104047180Y-128876157D01*
X104057486Y-128815402D01*
X104071744Y-128732454D01*
X104089482Y-128630029D01*
X104110229Y-128510845D01*
X104133514Y-128377620D01*
X104152316Y-128270417D01*
X104681611Y-128270417D01*
X104682105Y-128275637D01*
X104687528Y-128283785D01*
X104702285Y-128289508D01*
X104730486Y-128293227D01*
X104776240Y-128295361D01*
X104843657Y-128296334D01*
X104936845Y-128296564D01*
X104983361Y-128296392D01*
X105070270Y-128294868D01*
X105134879Y-128291888D01*
X105174666Y-128287598D01*
X105187110Y-128282143D01*
X105179932Y-128269613D01*
X105157744Y-128236480D01*
X105123609Y-128187668D01*
X105080458Y-128127176D01*
X105031222Y-128059005D01*
X104978833Y-127987153D01*
X104926222Y-127915621D01*
X104876321Y-127848407D01*
X104832062Y-127789513D01*
X104796375Y-127742937D01*
X104772192Y-127712679D01*
X104762445Y-127702738D01*
X104761992Y-127703658D01*
X104757527Y-127724570D01*
X104750134Y-127768417D01*
X104740614Y-127829577D01*
X104729765Y-127902431D01*
X104718390Y-127981360D01*
X104707287Y-128060743D01*
X104697258Y-128134960D01*
X104689102Y-128198391D01*
X104683619Y-128245417D01*
X104681611Y-128270417D01*
X104152316Y-128270417D01*
X104158866Y-128233072D01*
X104185814Y-128079917D01*
X104330632Y-127258152D01*
X104644322Y-127254223D01*
X104958012Y-127250293D01*
X105583602Y-128075710D01*
X105652554Y-128166744D01*
X105739818Y-128282143D01*
X105754044Y-128300956D01*
G36*
X105754044Y-128300956D02*
G01*
X105849279Y-128427151D01*
X105936778Y-128543359D01*
X106015065Y-128647606D01*
X106082663Y-128737921D01*
X106138092Y-128812332D01*
X106179876Y-128868866D01*
X106206535Y-128905552D01*
X106216594Y-128920417D01*
X106215049Y-128926328D01*
X106200679Y-128931504D01*
X106169585Y-128934840D01*
X106118481Y-128936518D01*
X106044085Y-128936723D01*
X105943111Y-128935636D01*
X105662226Y-128931564D01*
X105541707Y-128763795D01*
X105421188Y-128596027D01*
X105025833Y-128599443D01*
X104630477Y-128602858D01*
X104607480Y-128767211D01*
X104584482Y-128931564D01*
X104311806Y-128935637D01*
X104251571Y-128936402D01*
X104166371Y-128936681D01*
X104105898Y-128935430D01*
X104066875Y-128932469D01*
X104046023Y-128927618D01*
X104040063Y-128920695D01*
X104041295Y-128912001D01*
X104047180Y-128876157D01*
X104057486Y-128815402D01*
X104071744Y-128732454D01*
X104089482Y-128630029D01*
X104110229Y-128510845D01*
X104133514Y-128377620D01*
X104152316Y-128270417D01*
X104681611Y-128270417D01*
X104682105Y-128275637D01*
X104687528Y-128283785D01*
X104702285Y-128289508D01*
X104730486Y-128293227D01*
X104776240Y-128295361D01*
X104843657Y-128296334D01*
X104936845Y-128296564D01*
X104983361Y-128296392D01*
X105070270Y-128294868D01*
X105134879Y-128291888D01*
X105174666Y-128287598D01*
X105187110Y-128282143D01*
X105179932Y-128269613D01*
X105157744Y-128236480D01*
X105123609Y-128187668D01*
X105080458Y-128127176D01*
X105031222Y-128059005D01*
X104978833Y-127987153D01*
X104926222Y-127915621D01*
X104876321Y-127848407D01*
X104832062Y-127789513D01*
X104796375Y-127742937D01*
X104772192Y-127712679D01*
X104762445Y-127702738D01*
X104761992Y-127703658D01*
X104757527Y-127724570D01*
X104750134Y-127768417D01*
X104740614Y-127829577D01*
X104729765Y-127902431D01*
X104718390Y-127981360D01*
X104707287Y-128060743D01*
X104697258Y-128134960D01*
X104689102Y-128198391D01*
X104683619Y-128245417D01*
X104681611Y-128270417D01*
X104152316Y-128270417D01*
X104158866Y-128233072D01*
X104185814Y-128079917D01*
X104330632Y-127258152D01*
X104644322Y-127254223D01*
X104958012Y-127250293D01*
X105583602Y-128075710D01*
X105652554Y-128166744D01*
X105739818Y-128282143D01*
X105754044Y-128300956D01*
G37*
X93218105Y-128338581D02*
X93195626Y-128469140D01*
X93147081Y-128587856D01*
X93073286Y-128693287D01*
X92975055Y-128783987D01*
X92853203Y-128858511D01*
X92708544Y-128915417D01*
X92541894Y-128953259D01*
X92534280Y-128954373D01*
X92464837Y-128960308D01*
X92375196Y-128962838D01*
X92273652Y-128962223D01*
X92168501Y-128958723D01*
X92068039Y-128952600D01*
X91980562Y-128944114D01*
X91914365Y-128933527D01*
X91736594Y-128884093D01*
X91559457Y-128809917D01*
X91402407Y-128715870D01*
X91266595Y-128602921D01*
X91153167Y-128472038D01*
X91063272Y-128324191D01*
X90998058Y-128160349D01*
X90996616Y-128155603D01*
X90962257Y-128000987D01*
X90957619Y-127907718D01*
X91535907Y-127907718D01*
X91543606Y-128056551D01*
X91579198Y-128196506D01*
X91641895Y-128325367D01*
X91730912Y-128440919D01*
X91779555Y-128489864D01*
X91849287Y-128547441D01*
X91922529Y-128590073D01*
X92009835Y-128624715D01*
X92069997Y-128640072D01*
X92158565Y-128651668D01*
X92251438Y-128654480D01*
X92337730Y-128648285D01*
X92406560Y-128632858D01*
X92458401Y-128610372D01*
X92537288Y-128553517D01*
X92593672Y-128477001D01*
X92627552Y-128380824D01*
X92638929Y-128264986D01*
X92632195Y-128159100D01*
X92599962Y-128016763D01*
X92542714Y-127886555D01*
X92462216Y-127771415D01*
X92360232Y-127674283D01*
X92238526Y-127598097D01*
X92219426Y-127588770D01*
X92164425Y-127564515D01*
X92116175Y-127549854D01*
X92062467Y-127541787D01*
X91991091Y-127537314D01*
X91971947Y-127536583D01*
X91874544Y-127537586D01*
X91796927Y-127548856D01*
X91731469Y-127572101D01*
X91670544Y-127609026D01*
X91634563Y-127638994D01*
X91583466Y-127705270D01*
X91551499Y-127788715D01*
X91536628Y-127893647D01*
X91535907Y-127907718D01*
X90957619Y-127907718D01*
X90955132Y-127857704D01*
X90974494Y-127726638D01*
X91019593Y-127608675D01*
X91089680Y-127504701D01*
X91184005Y-127415603D01*
X91301820Y-127342264D01*
X91442374Y-127285571D01*
X91604920Y-127246411D01*
X91788708Y-127225667D01*
X91934723Y-127223120D01*
X92135191Y-127239469D01*
X92325851Y-127278129D01*
X92504316Y-127337880D01*
X92668199Y-127417506D01*
X92815115Y-127515788D01*
X92942676Y-127631508D01*
X93048496Y-127763448D01*
X93130189Y-127910390D01*
X93181608Y-128047716D01*
X93213704Y-128197625D01*
X93215808Y-128264986D01*
X93218105Y-128338581D01*
G36*
X93218105Y-128338581D02*
G01*
X93195626Y-128469140D01*
X93147081Y-128587856D01*
X93073286Y-128693287D01*
X92975055Y-128783987D01*
X92853203Y-128858511D01*
X92708544Y-128915417D01*
X92541894Y-128953259D01*
X92534280Y-128954373D01*
X92464837Y-128960308D01*
X92375196Y-128962838D01*
X92273652Y-128962223D01*
X92168501Y-128958723D01*
X92068039Y-128952600D01*
X91980562Y-128944114D01*
X91914365Y-128933527D01*
X91736594Y-128884093D01*
X91559457Y-128809917D01*
X91402407Y-128715870D01*
X91266595Y-128602921D01*
X91153167Y-128472038D01*
X91063272Y-128324191D01*
X90998058Y-128160349D01*
X90996616Y-128155603D01*
X90962257Y-128000987D01*
X90957619Y-127907718D01*
X91535907Y-127907718D01*
X91543606Y-128056551D01*
X91579198Y-128196506D01*
X91641895Y-128325367D01*
X91730912Y-128440919D01*
X91779555Y-128489864D01*
X91849287Y-128547441D01*
X91922529Y-128590073D01*
X92009835Y-128624715D01*
X92069997Y-128640072D01*
X92158565Y-128651668D01*
X92251438Y-128654480D01*
X92337730Y-128648285D01*
X92406560Y-128632858D01*
X92458401Y-128610372D01*
X92537288Y-128553517D01*
X92593672Y-128477001D01*
X92627552Y-128380824D01*
X92638929Y-128264986D01*
X92632195Y-128159100D01*
X92599962Y-128016763D01*
X92542714Y-127886555D01*
X92462216Y-127771415D01*
X92360232Y-127674283D01*
X92238526Y-127598097D01*
X92219426Y-127588770D01*
X92164425Y-127564515D01*
X92116175Y-127549854D01*
X92062467Y-127541787D01*
X91991091Y-127537314D01*
X91971947Y-127536583D01*
X91874544Y-127537586D01*
X91796927Y-127548856D01*
X91731469Y-127572101D01*
X91670544Y-127609026D01*
X91634563Y-127638994D01*
X91583466Y-127705270D01*
X91551499Y-127788715D01*
X91536628Y-127893647D01*
X91535907Y-127907718D01*
X90957619Y-127907718D01*
X90955132Y-127857704D01*
X90974494Y-127726638D01*
X91019593Y-127608675D01*
X91089680Y-127504701D01*
X91184005Y-127415603D01*
X91301820Y-127342264D01*
X91442374Y-127285571D01*
X91604920Y-127246411D01*
X91788708Y-127225667D01*
X91934723Y-127223120D01*
X92135191Y-127239469D01*
X92325851Y-127278129D01*
X92504316Y-127337880D01*
X92668199Y-127417506D01*
X92815115Y-127515788D01*
X92942676Y-127631508D01*
X93048496Y-127763448D01*
X93130189Y-127910390D01*
X93181608Y-128047716D01*
X93213704Y-128197625D01*
X93215808Y-128264986D01*
X93218105Y-128338581D01*
G37*
X96307849Y-127617461D02*
X96345192Y-127646365D01*
X96446100Y-127724177D01*
X96538591Y-127795080D01*
X96620139Y-127857163D01*
X96688216Y-127908519D01*
X96740298Y-127947237D01*
X96773859Y-127971409D01*
X96786372Y-127979126D01*
X96785181Y-127970458D01*
X96776887Y-127936686D01*
X96761910Y-127881162D01*
X96741345Y-127807833D01*
X96716285Y-127720647D01*
X96687824Y-127623552D01*
X96666682Y-127551857D01*
X96640032Y-127460800D01*
X96617258Y-127382194D01*
X96599523Y-127320085D01*
X96587990Y-127278522D01*
X96583822Y-127261551D01*
X96596861Y-127258212D01*
X96635248Y-127255582D01*
X96694334Y-127253930D01*
X96769443Y-127253387D01*
X96855900Y-127254080D01*
X97128318Y-127258152D01*
X97371060Y-128087388D01*
X97407721Y-128212746D01*
X97449974Y-128357539D01*
X97489013Y-128491655D01*
X97524093Y-128612523D01*
X97554472Y-128717573D01*
X97579407Y-128804232D01*
X97598154Y-128869931D01*
X97609970Y-128912100D01*
X97614113Y-128928166D01*
X97601198Y-128931492D01*
X97562924Y-128934129D01*
X97503937Y-128935784D01*
X97428920Y-128936330D01*
X97342552Y-128935637D01*
X97070679Y-128931564D01*
X96994481Y-128670094D01*
X96918282Y-128408623D01*
X96806617Y-128331627D01*
X96694952Y-128254630D01*
X96456776Y-128596833D01*
X96218601Y-128939035D01*
X95922924Y-128939035D01*
X95907092Y-128939022D01*
X95818338Y-128938466D01*
X95741481Y-128937181D01*
X95681015Y-128935301D01*
X95641439Y-128932957D01*
X95627247Y-128930285D01*
X95635555Y-128916720D01*
X95659407Y-128881646D01*
X95696859Y-128827838D01*
X95745969Y-128758056D01*
X95804793Y-128675063D01*
X95871386Y-128581619D01*
X95943807Y-128480486D01*
X96260367Y-128039439D01*
X96223954Y-128011659D01*
X96220015Y-128008699D01*
X96192925Y-127988717D01*
X96145380Y-127953878D01*
X96080186Y-127906231D01*
X96000145Y-127847822D01*
X95908062Y-127780697D01*
X95806741Y-127706903D01*
X95698986Y-127628486D01*
X95658038Y-127598662D01*
X95554576Y-127522961D01*
X95459988Y-127453262D01*
X95376829Y-127391482D01*
X95307659Y-127339539D01*
X95255036Y-127299348D01*
X95221518Y-127272825D01*
X95209662Y-127261888D01*
X95211070Y-127260796D01*
X95233625Y-127257572D01*
X95280319Y-127254793D01*
X95346796Y-127252613D01*
X95428698Y-127251191D01*
X95521668Y-127250682D01*
X95834441Y-127250682D01*
X96307849Y-127617461D01*
G36*
X96307849Y-127617461D02*
G01*
X96345192Y-127646365D01*
X96446100Y-127724177D01*
X96538591Y-127795080D01*
X96620139Y-127857163D01*
X96688216Y-127908519D01*
X96740298Y-127947237D01*
X96773859Y-127971409D01*
X96786372Y-127979126D01*
X96785181Y-127970458D01*
X96776887Y-127936686D01*
X96761910Y-127881162D01*
X96741345Y-127807833D01*
X96716285Y-127720647D01*
X96687824Y-127623552D01*
X96666682Y-127551857D01*
X96640032Y-127460800D01*
X96617258Y-127382194D01*
X96599523Y-127320085D01*
X96587990Y-127278522D01*
X96583822Y-127261551D01*
X96596861Y-127258212D01*
X96635248Y-127255582D01*
X96694334Y-127253930D01*
X96769443Y-127253387D01*
X96855900Y-127254080D01*
X97128318Y-127258152D01*
X97371060Y-128087388D01*
X97407721Y-128212746D01*
X97449974Y-128357539D01*
X97489013Y-128491655D01*
X97524093Y-128612523D01*
X97554472Y-128717573D01*
X97579407Y-128804232D01*
X97598154Y-128869931D01*
X97609970Y-128912100D01*
X97614113Y-128928166D01*
X97601198Y-128931492D01*
X97562924Y-128934129D01*
X97503937Y-128935784D01*
X97428920Y-128936330D01*
X97342552Y-128935637D01*
X97070679Y-128931564D01*
X96994481Y-128670094D01*
X96918282Y-128408623D01*
X96806617Y-128331627D01*
X96694952Y-128254630D01*
X96456776Y-128596833D01*
X96218601Y-128939035D01*
X95922924Y-128939035D01*
X95907092Y-128939022D01*
X95818338Y-128938466D01*
X95741481Y-128937181D01*
X95681015Y-128935301D01*
X95641439Y-128932957D01*
X95627247Y-128930285D01*
X95635555Y-128916720D01*
X95659407Y-128881646D01*
X95696859Y-128827838D01*
X95745969Y-128758056D01*
X95804793Y-128675063D01*
X95871386Y-128581619D01*
X95943807Y-128480486D01*
X96260367Y-128039439D01*
X96223954Y-128011659D01*
X96220015Y-128008699D01*
X96192925Y-127988717D01*
X96145380Y-127953878D01*
X96080186Y-127906231D01*
X96000145Y-127847822D01*
X95908062Y-127780697D01*
X95806741Y-127706903D01*
X95698986Y-127628486D01*
X95658038Y-127598662D01*
X95554576Y-127522961D01*
X95459988Y-127453262D01*
X95376829Y-127391482D01*
X95307659Y-127339539D01*
X95255036Y-127299348D01*
X95221518Y-127272825D01*
X95209662Y-127261888D01*
X95211070Y-127260796D01*
X95233625Y-127257572D01*
X95280319Y-127254793D01*
X95346796Y-127252613D01*
X95428698Y-127251191D01*
X95521668Y-127250682D01*
X95834441Y-127250682D01*
X96307849Y-127617461D01*
G37*
X102759835Y-127840542D02*
X102764538Y-127847234D01*
X102847251Y-127964721D01*
X102924805Y-128074520D01*
X102995489Y-128174233D01*
X103057591Y-128261460D01*
X103109399Y-128333805D01*
X103149201Y-128388867D01*
X103175286Y-128424249D01*
X103185941Y-128437553D01*
X103186324Y-128437518D01*
X103191427Y-128421274D01*
X103199984Y-128379016D01*
X103211472Y-128313923D01*
X103225369Y-128229175D01*
X103241151Y-128127949D01*
X103258294Y-128013424D01*
X103276276Y-127888781D01*
X103277443Y-127880544D01*
X103295441Y-127753910D01*
X103312362Y-127635522D01*
X103327691Y-127528936D01*
X103340912Y-127437711D01*
X103351510Y-127365403D01*
X103358970Y-127315570D01*
X103362776Y-127291770D01*
X103370512Y-127250682D01*
X103645056Y-127250682D01*
X103749864Y-127251276D01*
X103827663Y-127253168D01*
X103880313Y-127256508D01*
X103910172Y-127261446D01*
X103919600Y-127268131D01*
X103917403Y-127284612D01*
X103910726Y-127327568D01*
X103900114Y-127393578D01*
X103886118Y-127479362D01*
X103869286Y-127581641D01*
X103850168Y-127697137D01*
X103829315Y-127822570D01*
X103807276Y-127954661D01*
X103784600Y-128090131D01*
X103761838Y-128225701D01*
X103739540Y-128358091D01*
X103718254Y-128484024D01*
X103698531Y-128600218D01*
X103680920Y-128703396D01*
X103665972Y-128790278D01*
X103654236Y-128857585D01*
X103646261Y-128902038D01*
X103642599Y-128920358D01*
X103639638Y-128923942D01*
X103621892Y-128929857D01*
X103585977Y-128934143D01*
X103528967Y-128936981D01*
X103447939Y-128938551D01*
X103339968Y-128939035D01*
X103286245Y-128939014D01*
X103198173Y-128938681D01*
X103133576Y-128937592D01*
X103088169Y-128935308D01*
X103057671Y-128931389D01*
X103037796Y-128925394D01*
X103024264Y-128916884D01*
X103012789Y-128905417D01*
X103005046Y-128896154D01*
X102979242Y-128863387D01*
X102938961Y-128811136D01*
X102886007Y-128741807D01*
X102822187Y-128657806D01*
X102749305Y-128561541D01*
X102669168Y-128455418D01*
X102583582Y-128341844D01*
X102494351Y-128223226D01*
X102403281Y-128101969D01*
X102312178Y-127980482D01*
X102222848Y-127861170D01*
X102137096Y-127746440D01*
X102056727Y-127638699D01*
X101983548Y-127540354D01*
X101919363Y-127453811D01*
X101865979Y-127381477D01*
X101825201Y-127325758D01*
X101798834Y-127289062D01*
X101788684Y-127273795D01*
X101787686Y-127268735D01*
X101792577Y-127261923D01*
X101808923Y-127257047D01*
X101840409Y-127253796D01*
X101890720Y-127251859D01*
X101963541Y-127250924D01*
X102062557Y-127250682D01*
X102345298Y-127250682D01*
X102759835Y-127840542D01*
G36*
X102759835Y-127840542D02*
G01*
X102764538Y-127847234D01*
X102847251Y-127964721D01*
X102924805Y-128074520D01*
X102995489Y-128174233D01*
X103057591Y-128261460D01*
X103109399Y-128333805D01*
X103149201Y-128388867D01*
X103175286Y-128424249D01*
X103185941Y-128437553D01*
X103186324Y-128437518D01*
X103191427Y-128421274D01*
X103199984Y-128379016D01*
X103211472Y-128313923D01*
X103225369Y-128229175D01*
X103241151Y-128127949D01*
X103258294Y-128013424D01*
X103276276Y-127888781D01*
X103277443Y-127880544D01*
X103295441Y-127753910D01*
X103312362Y-127635522D01*
X103327691Y-127528936D01*
X103340912Y-127437711D01*
X103351510Y-127365403D01*
X103358970Y-127315570D01*
X103362776Y-127291770D01*
X103370512Y-127250682D01*
X103645056Y-127250682D01*
X103749864Y-127251276D01*
X103827663Y-127253168D01*
X103880313Y-127256508D01*
X103910172Y-127261446D01*
X103919600Y-127268131D01*
X103917403Y-127284612D01*
X103910726Y-127327568D01*
X103900114Y-127393578D01*
X103886118Y-127479362D01*
X103869286Y-127581641D01*
X103850168Y-127697137D01*
X103829315Y-127822570D01*
X103807276Y-127954661D01*
X103784600Y-128090131D01*
X103761838Y-128225701D01*
X103739540Y-128358091D01*
X103718254Y-128484024D01*
X103698531Y-128600218D01*
X103680920Y-128703396D01*
X103665972Y-128790278D01*
X103654236Y-128857585D01*
X103646261Y-128902038D01*
X103642599Y-128920358D01*
X103639638Y-128923942D01*
X103621892Y-128929857D01*
X103585977Y-128934143D01*
X103528967Y-128936981D01*
X103447939Y-128938551D01*
X103339968Y-128939035D01*
X103286245Y-128939014D01*
X103198173Y-128938681D01*
X103133576Y-128937592D01*
X103088169Y-128935308D01*
X103057671Y-128931389D01*
X103037796Y-128925394D01*
X103024264Y-128916884D01*
X103012789Y-128905417D01*
X103005046Y-128896154D01*
X102979242Y-128863387D01*
X102938961Y-128811136D01*
X102886007Y-128741807D01*
X102822187Y-128657806D01*
X102749305Y-128561541D01*
X102669168Y-128455418D01*
X102583582Y-128341844D01*
X102494351Y-128223226D01*
X102403281Y-128101969D01*
X102312178Y-127980482D01*
X102222848Y-127861170D01*
X102137096Y-127746440D01*
X102056727Y-127638699D01*
X101983548Y-127540354D01*
X101919363Y-127453811D01*
X101865979Y-127381477D01*
X101825201Y-127325758D01*
X101798834Y-127289062D01*
X101788684Y-127273795D01*
X101787686Y-127268735D01*
X101792577Y-127261923D01*
X101808923Y-127257047D01*
X101840409Y-127253796D01*
X101890720Y-127251859D01*
X101963541Y-127250924D01*
X102062557Y-127250682D01*
X102345298Y-127250682D01*
X102759835Y-127840542D01*
G37*
X99846768Y-128281623D02*
X99846620Y-128309328D01*
X99840875Y-128417955D01*
X99824987Y-128506066D01*
X99796475Y-128580620D01*
X99752861Y-128648575D01*
X99691665Y-128716890D01*
X99620333Y-128779270D01*
X99493144Y-128857871D01*
X99344721Y-128915566D01*
X99175195Y-128952297D01*
X99138181Y-128956956D01*
X99020568Y-128964965D01*
X98890503Y-128965854D01*
X98760134Y-128959750D01*
X98641607Y-128946779D01*
X98499817Y-128919053D01*
X98314074Y-128861006D01*
X98146056Y-128781826D01*
X97997207Y-128682698D01*
X97868970Y-128564806D01*
X97762788Y-128429335D01*
X97680106Y-128277470D01*
X97622366Y-128110396D01*
X97609155Y-128040690D01*
X97601029Y-127946775D01*
X97600992Y-127922011D01*
X98167507Y-127922011D01*
X98177063Y-128040268D01*
X98212355Y-128179258D01*
X98271400Y-128307826D01*
X98351834Y-128422020D01*
X98451298Y-128517885D01*
X98567427Y-128591468D01*
X98574727Y-128595068D01*
X98626511Y-128619373D01*
X98668985Y-128635029D01*
X98711947Y-128644222D01*
X98765196Y-128649137D01*
X98838530Y-128651961D01*
X98904600Y-128653340D01*
X98959067Y-128652199D01*
X98999413Y-128647082D01*
X99033999Y-128636854D01*
X99071188Y-128620379D01*
X99140138Y-128580575D01*
X99202799Y-128523374D01*
X99244484Y-128452488D01*
X99267538Y-128363668D01*
X99274311Y-128252663D01*
X99273432Y-128216575D01*
X99253120Y-128066637D01*
X99206452Y-127930303D01*
X99134027Y-127808636D01*
X99036446Y-127702699D01*
X98914306Y-127613558D01*
X98911655Y-127611987D01*
X98822408Y-127572693D01*
X98716651Y-127546568D01*
X98604556Y-127534711D01*
X98496293Y-127538221D01*
X98402033Y-127558198D01*
X98344719Y-127584451D01*
X98271024Y-127643582D01*
X98215080Y-127722412D01*
X98179653Y-127816651D01*
X98167507Y-127922011D01*
X97600992Y-127922011D01*
X97600885Y-127850051D01*
X97608675Y-127761068D01*
X97624347Y-127690373D01*
X97679020Y-127573691D01*
X97759268Y-127472066D01*
X97864698Y-127386148D01*
X97995074Y-127316132D01*
X98150162Y-127262207D01*
X98224311Y-127246920D01*
X98329890Y-127234834D01*
X98449404Y-127228606D01*
X98574635Y-127228236D01*
X98697366Y-127233723D01*
X98809381Y-127245067D01*
X98902464Y-127262266D01*
X99012079Y-127292833D01*
X99203675Y-127365126D01*
X99371590Y-127455614D01*
X99515869Y-127564330D01*
X99636554Y-127691312D01*
X99733690Y-127836594D01*
X99807319Y-128000212D01*
X99819818Y-128036790D01*
X99833556Y-128087014D01*
X99841725Y-128138126D01*
X99845678Y-128199778D01*
X99846383Y-128252663D01*
X99846768Y-128281623D01*
G36*
X99846768Y-128281623D02*
G01*
X99846620Y-128309328D01*
X99840875Y-128417955D01*
X99824987Y-128506066D01*
X99796475Y-128580620D01*
X99752861Y-128648575D01*
X99691665Y-128716890D01*
X99620333Y-128779270D01*
X99493144Y-128857871D01*
X99344721Y-128915566D01*
X99175195Y-128952297D01*
X99138181Y-128956956D01*
X99020568Y-128964965D01*
X98890503Y-128965854D01*
X98760134Y-128959750D01*
X98641607Y-128946779D01*
X98499817Y-128919053D01*
X98314074Y-128861006D01*
X98146056Y-128781826D01*
X97997207Y-128682698D01*
X97868970Y-128564806D01*
X97762788Y-128429335D01*
X97680106Y-128277470D01*
X97622366Y-128110396D01*
X97609155Y-128040690D01*
X97601029Y-127946775D01*
X97600992Y-127922011D01*
X98167507Y-127922011D01*
X98177063Y-128040268D01*
X98212355Y-128179258D01*
X98271400Y-128307826D01*
X98351834Y-128422020D01*
X98451298Y-128517885D01*
X98567427Y-128591468D01*
X98574727Y-128595068D01*
X98626511Y-128619373D01*
X98668985Y-128635029D01*
X98711947Y-128644222D01*
X98765196Y-128649137D01*
X98838530Y-128651961D01*
X98904600Y-128653340D01*
X98959067Y-128652199D01*
X98999413Y-128647082D01*
X99033999Y-128636854D01*
X99071188Y-128620379D01*
X99140138Y-128580575D01*
X99202799Y-128523374D01*
X99244484Y-128452488D01*
X99267538Y-128363668D01*
X99274311Y-128252663D01*
X99273432Y-128216575D01*
X99253120Y-128066637D01*
X99206452Y-127930303D01*
X99134027Y-127808636D01*
X99036446Y-127702699D01*
X98914306Y-127613558D01*
X98911655Y-127611987D01*
X98822408Y-127572693D01*
X98716651Y-127546568D01*
X98604556Y-127534711D01*
X98496293Y-127538221D01*
X98402033Y-127558198D01*
X98344719Y-127584451D01*
X98271024Y-127643582D01*
X98215080Y-127722412D01*
X98179653Y-127816651D01*
X98167507Y-127922011D01*
X97600992Y-127922011D01*
X97600885Y-127850051D01*
X97608675Y-127761068D01*
X97624347Y-127690373D01*
X97679020Y-127573691D01*
X97759268Y-127472066D01*
X97864698Y-127386148D01*
X97995074Y-127316132D01*
X98150162Y-127262207D01*
X98224311Y-127246920D01*
X98329890Y-127234834D01*
X98449404Y-127228606D01*
X98574635Y-127228236D01*
X98697366Y-127233723D01*
X98809381Y-127245067D01*
X98902464Y-127262266D01*
X99012079Y-127292833D01*
X99203675Y-127365126D01*
X99371590Y-127455614D01*
X99515869Y-127564330D01*
X99636554Y-127691312D01*
X99733690Y-127836594D01*
X99807319Y-128000212D01*
X99819818Y-128036790D01*
X99833556Y-128087014D01*
X99841725Y-128138126D01*
X99845678Y-128199778D01*
X99846383Y-128252663D01*
X99846768Y-128281623D01*
G37*
X158255867Y-64839333D02*
X157984934Y-64839333D01*
X157984934Y-65110267D01*
X157680134Y-65110267D01*
X157680134Y-64805467D01*
X157951067Y-64805467D01*
X157951067Y-64534533D01*
X158255867Y-64534533D01*
X158255867Y-64839333D01*
G36*
X158255867Y-64839333D02*
G01*
X157984934Y-64839333D01*
X157984934Y-65110267D01*
X157680134Y-65110267D01*
X157680134Y-64805467D01*
X157951067Y-64805467D01*
X157951067Y-64534533D01*
X158255867Y-64534533D01*
X158255867Y-64839333D01*
G37*
X159695200Y-65144133D02*
X159610534Y-65144133D01*
X159322667Y-65144133D01*
X159322667Y-64585333D01*
X159407333Y-64585333D01*
X159407333Y-65059467D01*
X159610534Y-65059467D01*
X159610534Y-64585333D01*
X159407333Y-64585333D01*
X159322667Y-64585333D01*
X159322667Y-64500667D01*
X159695200Y-64500667D01*
X159695200Y-65144133D01*
G36*
X159695200Y-65144133D02*
G01*
X159610534Y-65144133D01*
X159322667Y-65144133D01*
X159322667Y-64585333D01*
X159407333Y-64585333D01*
X159407333Y-65059467D01*
X159610534Y-65059467D01*
X159610534Y-64585333D01*
X159407333Y-64585333D01*
X159322667Y-64585333D01*
X159322667Y-64500667D01*
X159695200Y-64500667D01*
X159695200Y-65144133D01*
G37*
X157697067Y-60045831D02*
X157976467Y-60055667D01*
X157986303Y-60335067D01*
X158255867Y-60335067D01*
X158255867Y-60639867D01*
X157951067Y-60639867D01*
X157951067Y-60368933D01*
X157680134Y-60368933D01*
X157680134Y-60081067D01*
X157392267Y-60081067D01*
X157392267Y-59776267D01*
X157697067Y-59776267D01*
X157697067Y-60045831D01*
G36*
X157697067Y-60045831D02*
G01*
X157976467Y-60055667D01*
X157986303Y-60335067D01*
X158255867Y-60335067D01*
X158255867Y-60639867D01*
X157951067Y-60639867D01*
X157951067Y-60368933D01*
X157680134Y-60368933D01*
X157680134Y-60081067D01*
X157392267Y-60081067D01*
X157392267Y-59776267D01*
X157697067Y-59776267D01*
X157697067Y-60045831D01*
G37*
X159407333Y-61791334D02*
X159322667Y-61791334D01*
X159034256Y-61791334D01*
X159038761Y-61329900D01*
X159042523Y-60944667D01*
X159136400Y-60944667D01*
X159136400Y-61706667D01*
X159322667Y-61706667D01*
X159322667Y-60944667D01*
X159136400Y-60944667D01*
X159042523Y-60944667D01*
X159043267Y-60868467D01*
X159225300Y-60863661D01*
X159407333Y-60858854D01*
X159407333Y-61791334D01*
G36*
X159407333Y-61791334D02*
G01*
X159322667Y-61791334D01*
X159034256Y-61791334D01*
X159038761Y-61329900D01*
X159042523Y-60944667D01*
X159136400Y-60944667D01*
X159136400Y-61706667D01*
X159322667Y-61706667D01*
X159322667Y-60944667D01*
X159136400Y-60944667D01*
X159042523Y-60944667D01*
X159043267Y-60868467D01*
X159225300Y-60863661D01*
X159407333Y-60858854D01*
X159407333Y-61791334D01*
G37*
X159407333Y-60673733D02*
X159322667Y-60673733D01*
X159034800Y-60673733D01*
X159034800Y-60346613D01*
X159122530Y-60346613D01*
X159123173Y-60437301D01*
X159124768Y-60509397D01*
X159127220Y-60557812D01*
X159130434Y-60577456D01*
X159141636Y-60581863D01*
X159179582Y-60587046D01*
X159232356Y-60589067D01*
X159322667Y-60589067D01*
X159322667Y-59825377D01*
X159127933Y-59835533D01*
X159123379Y-60200690D01*
X159122935Y-60242423D01*
X159122530Y-60346613D01*
X159034800Y-60346613D01*
X159034800Y-59742400D01*
X159407333Y-59742400D01*
X159407333Y-60673733D01*
G36*
X159407333Y-60673733D02*
G01*
X159322667Y-60673733D01*
X159034800Y-60673733D01*
X159034800Y-60346613D01*
X159122530Y-60346613D01*
X159123173Y-60437301D01*
X159124768Y-60509397D01*
X159127220Y-60557812D01*
X159130434Y-60577456D01*
X159141636Y-60581863D01*
X159179582Y-60587046D01*
X159232356Y-60589067D01*
X159322667Y-60589067D01*
X159322667Y-59825377D01*
X159127933Y-59835533D01*
X159123379Y-60200690D01*
X159122935Y-60242423D01*
X159122530Y-60346613D01*
X159034800Y-60346613D01*
X159034800Y-59742400D01*
X159407333Y-59742400D01*
X159407333Y-60673733D01*
G37*
X161371600Y-63654000D02*
X161642533Y-63654000D01*
X161642533Y-64026533D01*
X161557867Y-64026533D01*
X161270000Y-64026533D01*
X161270000Y-63755600D01*
X161371600Y-63755600D01*
X161371600Y-63941867D01*
X161557867Y-63941867D01*
X161557867Y-63755600D01*
X161371600Y-63755600D01*
X161270000Y-63755600D01*
X160999067Y-63755600D01*
X160999067Y-63467734D01*
X161083733Y-63467734D01*
X161083733Y-63654000D01*
X161270000Y-63654000D01*
X161270000Y-63467734D01*
X161083733Y-63467734D01*
X160999067Y-63467734D01*
X160999067Y-63383067D01*
X161371600Y-63383067D01*
X161371600Y-63654000D01*
G36*
X161371600Y-63654000D02*
G01*
X161642533Y-63654000D01*
X161642533Y-64026533D01*
X161557867Y-64026533D01*
X161270000Y-64026533D01*
X161270000Y-63755600D01*
X161371600Y-63755600D01*
X161371600Y-63941867D01*
X161557867Y-63941867D01*
X161557867Y-63755600D01*
X161371600Y-63755600D01*
X161270000Y-63755600D01*
X160999067Y-63755600D01*
X160999067Y-63467734D01*
X161083733Y-63467734D01*
X161083733Y-63654000D01*
X161270000Y-63654000D01*
X161270000Y-63467734D01*
X161083733Y-63467734D01*
X160999067Y-63467734D01*
X160999067Y-63383067D01*
X161371600Y-63383067D01*
X161371600Y-63654000D01*
G37*
X157172133Y-63755600D02*
X157087467Y-63755600D01*
X156901200Y-63755600D01*
X156901200Y-64026533D01*
X156799600Y-64026533D01*
X156528667Y-64026533D01*
X156528667Y-63755600D01*
X156613333Y-63755600D01*
X156613333Y-63941867D01*
X156799600Y-63941867D01*
X156799600Y-63755600D01*
X156613333Y-63755600D01*
X156528667Y-63755600D01*
X156528667Y-63654000D01*
X156799600Y-63654000D01*
X156799600Y-63467734D01*
X156901200Y-63467734D01*
X156901200Y-63654000D01*
X157087467Y-63654000D01*
X157087467Y-63467734D01*
X156901200Y-63467734D01*
X156799600Y-63467734D01*
X156799600Y-63383067D01*
X157172133Y-63383067D01*
X157172133Y-63755600D01*
G36*
X157172133Y-63755600D02*
G01*
X157087467Y-63755600D01*
X156901200Y-63755600D01*
X156901200Y-64026533D01*
X156799600Y-64026533D01*
X156528667Y-64026533D01*
X156528667Y-63755600D01*
X156613333Y-63755600D01*
X156613333Y-63941867D01*
X156799600Y-63941867D01*
X156799600Y-63755600D01*
X156613333Y-63755600D01*
X156528667Y-63755600D01*
X156528667Y-63654000D01*
X156799600Y-63654000D01*
X156799600Y-63467734D01*
X156901200Y-63467734D01*
X156901200Y-63654000D01*
X157087467Y-63654000D01*
X157087467Y-63467734D01*
X156901200Y-63467734D01*
X156799600Y-63467734D01*
X156799600Y-63383067D01*
X157172133Y-63383067D01*
X157172133Y-63755600D01*
G37*
X156710700Y-60863661D02*
X156892733Y-60868467D01*
X156897652Y-61008167D01*
X156902570Y-61147867D01*
X157172133Y-61147867D01*
X157172133Y-61503467D01*
X157087467Y-61503467D01*
X156799600Y-61503467D01*
X156799600Y-61232534D01*
X156901200Y-61232534D01*
X156901200Y-61418800D01*
X157087467Y-61418800D01*
X157087467Y-61232534D01*
X156901200Y-61232534D01*
X156799600Y-61232534D01*
X156528667Y-61232534D01*
X156528667Y-60944667D01*
X156613333Y-60944667D01*
X156613333Y-61147867D01*
X156799600Y-61147867D01*
X156799600Y-60944667D01*
X156613333Y-60944667D01*
X156528667Y-60944667D01*
X156528667Y-60858854D01*
X156710700Y-60863661D01*
G36*
X156710700Y-60863661D02*
G01*
X156892733Y-60868467D01*
X156897652Y-61008167D01*
X156902570Y-61147867D01*
X157172133Y-61147867D01*
X157172133Y-61503467D01*
X157087467Y-61503467D01*
X156799600Y-61503467D01*
X156799600Y-61232534D01*
X156901200Y-61232534D01*
X156901200Y-61418800D01*
X157087467Y-61418800D01*
X157087467Y-61232534D01*
X156901200Y-61232534D01*
X156799600Y-61232534D01*
X156528667Y-61232534D01*
X156528667Y-60944667D01*
X156613333Y-60944667D01*
X156613333Y-61147867D01*
X156799600Y-61147867D01*
X156799600Y-60944667D01*
X156613333Y-60944667D01*
X156528667Y-60944667D01*
X156528667Y-60858854D01*
X156710700Y-60863661D01*
G37*
X161642533Y-61232534D02*
X161557867Y-61232534D01*
X161371600Y-61232534D01*
X161371600Y-61503467D01*
X161270000Y-61503467D01*
X160999067Y-61503467D01*
X160999067Y-61232534D01*
X161083733Y-61232534D01*
X161083733Y-61418800D01*
X161270000Y-61418800D01*
X161270000Y-61232534D01*
X161083733Y-61232534D01*
X160999067Y-61232534D01*
X160999067Y-61147867D01*
X161268631Y-61147867D01*
X161275784Y-60944667D01*
X161371600Y-60944667D01*
X161371600Y-61147867D01*
X161557867Y-61147867D01*
X161557867Y-60944667D01*
X161371600Y-60944667D01*
X161275784Y-60944667D01*
X161278467Y-60868467D01*
X161460500Y-60863661D01*
X161642533Y-60858854D01*
X161642533Y-61232534D01*
G36*
X161642533Y-61232534D02*
G01*
X161557867Y-61232534D01*
X161371600Y-61232534D01*
X161371600Y-61503467D01*
X161270000Y-61503467D01*
X160999067Y-61503467D01*
X160999067Y-61232534D01*
X161083733Y-61232534D01*
X161083733Y-61418800D01*
X161270000Y-61418800D01*
X161270000Y-61232534D01*
X161083733Y-61232534D01*
X160999067Y-61232534D01*
X160999067Y-61147867D01*
X161268631Y-61147867D01*
X161275784Y-60944667D01*
X161371600Y-60944667D01*
X161371600Y-61147867D01*
X161557867Y-61147867D01*
X161557867Y-60944667D01*
X161371600Y-60944667D01*
X161275784Y-60944667D01*
X161278467Y-60868467D01*
X161460500Y-60863661D01*
X161642533Y-60858854D01*
X161642533Y-61232534D01*
G37*
X161083733Y-60114933D02*
X160999067Y-60114933D01*
X160812800Y-60114933D01*
X160812800Y-60385867D01*
X160728134Y-60385867D01*
X160524933Y-60385867D01*
X160524933Y-60673733D01*
X160440267Y-60673733D01*
X160152400Y-60673733D01*
X160152400Y-60510133D01*
X160239558Y-60510133D01*
X160241576Y-60554429D01*
X160247595Y-60577017D01*
X160258935Y-60581584D01*
X160297080Y-60586968D01*
X160349956Y-60589067D01*
X160440267Y-60589067D01*
X160440267Y-60384177D01*
X160245533Y-60394333D01*
X160240539Y-60479651D01*
X160239558Y-60510133D01*
X160152400Y-60510133D01*
X160152400Y-60301200D01*
X160440267Y-60301200D01*
X160440267Y-60114933D01*
X160524933Y-60114933D01*
X160524933Y-60301200D01*
X160728134Y-60301200D01*
X160728134Y-60114933D01*
X160524933Y-60114933D01*
X160440267Y-60114933D01*
X160440267Y-60030267D01*
X160711200Y-60030267D01*
X160711200Y-59951333D01*
X160798358Y-59951333D01*
X160800376Y-59995629D01*
X160806395Y-60018217D01*
X160817735Y-60022784D01*
X160855880Y-60028168D01*
X160908756Y-60030267D01*
X160999067Y-60030267D01*
X160999067Y-59825377D01*
X160901700Y-59830455D01*
X160804334Y-59835533D01*
X160799339Y-59920851D01*
X160798358Y-59951333D01*
X160711200Y-59951333D01*
X160711200Y-59742400D01*
X161083733Y-59742400D01*
X161083733Y-60114933D01*
G36*
X161083733Y-60114933D02*
G01*
X160999067Y-60114933D01*
X160812800Y-60114933D01*
X160812800Y-60385867D01*
X160728134Y-60385867D01*
X160524933Y-60385867D01*
X160524933Y-60673733D01*
X160440267Y-60673733D01*
X160152400Y-60673733D01*
X160152400Y-60510133D01*
X160239558Y-60510133D01*
X160241576Y-60554429D01*
X160247595Y-60577017D01*
X160258935Y-60581584D01*
X160297080Y-60586968D01*
X160349956Y-60589067D01*
X160440267Y-60589067D01*
X160440267Y-60384177D01*
X160245533Y-60394333D01*
X160240539Y-60479651D01*
X160239558Y-60510133D01*
X160152400Y-60510133D01*
X160152400Y-60301200D01*
X160440267Y-60301200D01*
X160440267Y-60114933D01*
X160524933Y-60114933D01*
X160524933Y-60301200D01*
X160728134Y-60301200D01*
X160728134Y-60114933D01*
X160524933Y-60114933D01*
X160440267Y-60114933D01*
X160440267Y-60030267D01*
X160711200Y-60030267D01*
X160711200Y-59951333D01*
X160798358Y-59951333D01*
X160800376Y-59995629D01*
X160806395Y-60018217D01*
X160817735Y-60022784D01*
X160855880Y-60028168D01*
X160908756Y-60030267D01*
X160999067Y-60030267D01*
X160999067Y-59825377D01*
X160901700Y-59830455D01*
X160804334Y-59835533D01*
X160799339Y-59920851D01*
X160798358Y-59951333D01*
X160711200Y-59951333D01*
X160711200Y-59742400D01*
X161083733Y-59742400D01*
X161083733Y-60114933D01*
G37*
X157984934Y-61452667D02*
X158543733Y-61452667D01*
X158543733Y-61740534D01*
X158814667Y-61740534D01*
X158814667Y-62011467D01*
X159915334Y-62011467D01*
X159915334Y-61740534D01*
X160220133Y-61740534D01*
X160220133Y-62011467D01*
X160440267Y-62011467D01*
X160440267Y-61791334D01*
X160524933Y-61791334D01*
X160524933Y-61977600D01*
X160711200Y-61977600D01*
X160711200Y-61791334D01*
X160524933Y-61791334D01*
X160440267Y-61791334D01*
X160440267Y-61706667D01*
X160813946Y-61706667D01*
X160804334Y-62070733D01*
X160711200Y-62073629D01*
X160647700Y-62075602D01*
X160491067Y-62080471D01*
X160491067Y-62316267D01*
X160220133Y-62316267D01*
X160220133Y-63129067D01*
X160491067Y-63129067D01*
X160491067Y-63433867D01*
X160220133Y-63433867D01*
X160220133Y-63687867D01*
X160491067Y-63687867D01*
X160491067Y-63992667D01*
X160186267Y-63992667D01*
X160186267Y-63721733D01*
X159661334Y-63721733D01*
X159661334Y-63992667D01*
X159627467Y-63992667D01*
X159356533Y-63992667D01*
X159356533Y-63721733D01*
X159068667Y-63721733D01*
X159068667Y-63433867D01*
X158814667Y-63433867D01*
X158814667Y-63721733D01*
X158543733Y-63721733D01*
X158543733Y-63992667D01*
X157951067Y-63992667D01*
X157951067Y-63687867D01*
X158509867Y-63687867D01*
X158509867Y-63433867D01*
X158238934Y-63433867D01*
X158238934Y-63129067D01*
X158509867Y-63129067D01*
X159373467Y-63129067D01*
X159627467Y-63129067D01*
X159627467Y-62875067D01*
X159373467Y-62875067D01*
X159373467Y-63129067D01*
X158509867Y-63129067D01*
X158509867Y-62604972D01*
X158234700Y-62600320D01*
X157959534Y-62595667D01*
X157954651Y-62448195D01*
X157950284Y-62316267D01*
X159373467Y-62316267D01*
X159373467Y-62570267D01*
X159627467Y-62570267D01*
X159627467Y-62316267D01*
X159373467Y-62316267D01*
X157950284Y-62316267D01*
X157949769Y-62300724D01*
X158090118Y-62295795D01*
X158230467Y-62290867D01*
X158240389Y-62046727D01*
X158099961Y-62041797D01*
X157959534Y-62036867D01*
X157959366Y-62026916D01*
X158543733Y-62026916D01*
X158543733Y-62299333D01*
X158799158Y-62299333D01*
X158794212Y-62168100D01*
X158789267Y-62036867D01*
X158666500Y-62031892D01*
X158543733Y-62026916D01*
X157959366Y-62026916D01*
X157954881Y-61761700D01*
X157950228Y-61486534D01*
X157680134Y-61486534D01*
X157680134Y-61181734D01*
X157984934Y-61181734D01*
X157984934Y-61452667D01*
G36*
X157984934Y-61452667D02*
G01*
X158543733Y-61452667D01*
X158543733Y-61740534D01*
X158814667Y-61740534D01*
X158814667Y-62011467D01*
X159915334Y-62011467D01*
X159915334Y-61740534D01*
X160220133Y-61740534D01*
X160220133Y-62011467D01*
X160440267Y-62011467D01*
X160440267Y-61791334D01*
X160524933Y-61791334D01*
X160524933Y-61977600D01*
X160711200Y-61977600D01*
X160711200Y-61791334D01*
X160524933Y-61791334D01*
X160440267Y-61791334D01*
X160440267Y-61706667D01*
X160813946Y-61706667D01*
X160804334Y-62070733D01*
X160711200Y-62073629D01*
X160647700Y-62075602D01*
X160491067Y-62080471D01*
X160491067Y-62316267D01*
X160220133Y-62316267D01*
X160220133Y-63129067D01*
X160491067Y-63129067D01*
X160491067Y-63433867D01*
X160220133Y-63433867D01*
X160220133Y-63687867D01*
X160491067Y-63687867D01*
X160491067Y-63992667D01*
X160186267Y-63992667D01*
X160186267Y-63721733D01*
X159661334Y-63721733D01*
X159661334Y-63992667D01*
X159627467Y-63992667D01*
X159356533Y-63992667D01*
X159356533Y-63721733D01*
X159068667Y-63721733D01*
X159068667Y-63433867D01*
X158814667Y-63433867D01*
X158814667Y-63721733D01*
X158543733Y-63721733D01*
X158543733Y-63992667D01*
X157951067Y-63992667D01*
X157951067Y-63687867D01*
X158509867Y-63687867D01*
X158509867Y-63433867D01*
X158238934Y-63433867D01*
X158238934Y-63129067D01*
X158509867Y-63129067D01*
X159373467Y-63129067D01*
X159627467Y-63129067D01*
X159627467Y-62875067D01*
X159373467Y-62875067D01*
X159373467Y-63129067D01*
X158509867Y-63129067D01*
X158509867Y-62604972D01*
X158234700Y-62600320D01*
X157959534Y-62595667D01*
X157954651Y-62448195D01*
X157950284Y-62316267D01*
X159373467Y-62316267D01*
X159373467Y-62570267D01*
X159627467Y-62570267D01*
X159627467Y-62316267D01*
X159373467Y-62316267D01*
X157950284Y-62316267D01*
X157949769Y-62300724D01*
X158090118Y-62295795D01*
X158230467Y-62290867D01*
X158240389Y-62046727D01*
X158099961Y-62041797D01*
X157959534Y-62036867D01*
X157959366Y-62026916D01*
X158543733Y-62026916D01*
X158543733Y-62299333D01*
X158799158Y-62299333D01*
X158794212Y-62168100D01*
X158789267Y-62036867D01*
X158666500Y-62031892D01*
X158543733Y-62026916D01*
X157959366Y-62026916D01*
X157954881Y-61761700D01*
X157950228Y-61486534D01*
X157680134Y-61486534D01*
X157680134Y-61181734D01*
X157984934Y-61181734D01*
X157984934Y-61452667D01*
G37*
D14*
X151255600Y-59354800D02*
X151255600Y-59198800D01*
X151255600Y-61670800D02*
X151255600Y-61514800D01*
X154487934Y-59356192D02*
G75*
G03*
X151255601Y-59199285I-1672334J-1078608D01*
G01*
X153856729Y-59354964D02*
G75*
G03*
X151774640Y-59354801I-1041129J-1079836D01*
G01*
X151774640Y-61514799D02*
G75*
G03*
X153856729Y-61514636I1040960J1079999D01*
G01*
X151255601Y-61670315D02*
G75*
G03*
X154487934Y-61513408I1559999J1235515D01*
G01*
X154118100Y-64022542D02*
X154118100Y-64497058D01*
X153073100Y-64022542D02*
X153073100Y-64497058D01*
X157375600Y-67004800D02*
X157375600Y-69664800D01*
X147155600Y-67004800D02*
X157375600Y-67004800D01*
X147155600Y-67004800D02*
X147155600Y-69664800D01*
X145885600Y-67004800D02*
X144555600Y-67004800D01*
X144555600Y-67004800D02*
X144555600Y-68334800D01*
X147155600Y-69664800D02*
X157375600Y-69664800D01*
X149098100Y-64022542D02*
X149098100Y-64497058D01*
X148053100Y-64022542D02*
X148053100Y-64497058D01*
X151608100Y-64022542D02*
X151608100Y-64497058D01*
X150563100Y-64022542D02*
X150563100Y-64497058D01*
D13*
X152846166Y-62235260D02*
X153028200Y-62240066D01*
X153028200Y-62612599D01*
X152935066Y-62615059D01*
X152846166Y-62617406D01*
X152664133Y-62622212D01*
X152664133Y-62333199D01*
X152748800Y-62333199D01*
X152748800Y-62519466D01*
X152935066Y-62519466D01*
X152935066Y-62333199D01*
X152748800Y-62333199D01*
X152664133Y-62333199D01*
X152664133Y-62230454D01*
X152846166Y-62235260D01*
G36*
X152846166Y-62235260D02*
G01*
X153028200Y-62240066D01*
X153028200Y-62612599D01*
X152935066Y-62615059D01*
X152846166Y-62617406D01*
X152664133Y-62622212D01*
X152664133Y-62333199D01*
X152748800Y-62333199D01*
X152748800Y-62519466D01*
X152935066Y-62519466D01*
X152935066Y-62333199D01*
X152748800Y-62333199D01*
X152664133Y-62333199D01*
X152664133Y-62230454D01*
X152846166Y-62235260D01*
G37*
X153587000Y-62612599D02*
X153493867Y-62615464D01*
X153427403Y-62617507D01*
X153389621Y-62618407D01*
X153322277Y-62618621D01*
X153271049Y-62616950D01*
X153244794Y-62613585D01*
X153242503Y-62612457D01*
X153232805Y-62597674D01*
X153227245Y-62564484D01*
X153225336Y-62507768D01*
X153226590Y-62422410D01*
X153228943Y-62333199D01*
X153307600Y-62333199D01*
X153307600Y-62519466D01*
X153493867Y-62519466D01*
X153493867Y-62333199D01*
X153307600Y-62333199D01*
X153228943Y-62333199D01*
X153231400Y-62240066D01*
X153587000Y-62240066D01*
X153587000Y-62612599D01*
G36*
X153587000Y-62612599D02*
G01*
X153493867Y-62615464D01*
X153427403Y-62617507D01*
X153389621Y-62618407D01*
X153322277Y-62618621D01*
X153271049Y-62616950D01*
X153244794Y-62613585D01*
X153242503Y-62612457D01*
X153232805Y-62597674D01*
X153227245Y-62564484D01*
X153225336Y-62507768D01*
X153226590Y-62422410D01*
X153228943Y-62333199D01*
X153307600Y-62333199D01*
X153307600Y-62519466D01*
X153493867Y-62519466D01*
X153493867Y-62333199D01*
X153307600Y-62333199D01*
X153228943Y-62333199D01*
X153231400Y-62240066D01*
X153587000Y-62240066D01*
X153587000Y-62612599D01*
G37*
X155542800Y-62230230D02*
X155822200Y-62240066D01*
X155832036Y-62519466D01*
X156015564Y-62519466D01*
X156022121Y-62333199D01*
X156118533Y-62333199D01*
X156118533Y-62519466D01*
X156304800Y-62519466D01*
X156304800Y-62333199D01*
X156118533Y-62333199D01*
X156022121Y-62333199D01*
X156025400Y-62240066D01*
X156304800Y-62230230D01*
X156304800Y-62045333D01*
X156389466Y-62045333D01*
X156389466Y-62231599D01*
X156575733Y-62231599D01*
X156575733Y-62045333D01*
X156389466Y-62045333D01*
X156304800Y-62045333D01*
X156304800Y-61960666D01*
X156677333Y-61960666D01*
X156677333Y-62230175D01*
X156808566Y-62235121D01*
X156939800Y-62240066D01*
X156949636Y-62519466D01*
X157133164Y-62519466D01*
X157139721Y-62333199D01*
X157236133Y-62333199D01*
X157236133Y-62519466D01*
X157422400Y-62519466D01*
X157422400Y-62333199D01*
X157236133Y-62333199D01*
X157139721Y-62333199D01*
X157143000Y-62240066D01*
X157507066Y-62230454D01*
X157507066Y-62621066D01*
X157422400Y-62621066D01*
X157236133Y-62621066D01*
X157236133Y-62891999D01*
X157134533Y-62891999D01*
X156863600Y-62891999D01*
X156863600Y-62622436D01*
X156824684Y-62621066D01*
X156948266Y-62621066D01*
X156948266Y-62807333D01*
X157134533Y-62807333D01*
X157134533Y-62621066D01*
X156948266Y-62621066D01*
X156824684Y-62621066D01*
X156723900Y-62617518D01*
X156584200Y-62612599D01*
X156579282Y-62472900D01*
X156575733Y-62372086D01*
X156574364Y-62333199D01*
X156677333Y-62333199D01*
X156677333Y-62519466D01*
X156863600Y-62519466D01*
X156863600Y-62333199D01*
X156677333Y-62333199D01*
X156574364Y-62333199D01*
X156390836Y-62333199D01*
X156385918Y-62472900D01*
X156381000Y-62612599D01*
X156304800Y-62615471D01*
X156249766Y-62617545D01*
X156118533Y-62622491D01*
X156118533Y-62891999D01*
X156016933Y-62891999D01*
X155746000Y-62891999D01*
X155746000Y-62622436D01*
X155707084Y-62621066D01*
X155830667Y-62621066D01*
X155830667Y-62807333D01*
X156016933Y-62807333D01*
X156016933Y-62621066D01*
X155830667Y-62621066D01*
X155707084Y-62621066D01*
X155606300Y-62617518D01*
X155466600Y-62612599D01*
X155461682Y-62472900D01*
X155458133Y-62372086D01*
X155456764Y-62333199D01*
X155542800Y-62333199D01*
X155542800Y-62519466D01*
X155746000Y-62519466D01*
X155746000Y-62333199D01*
X155542800Y-62333199D01*
X155456764Y-62333199D01*
X155273236Y-62333199D01*
X155268318Y-62472900D01*
X155263400Y-62612599D01*
X155187200Y-62615283D01*
X155123700Y-62617518D01*
X154984000Y-62622436D01*
X154984000Y-62891999D01*
X154899333Y-62891999D01*
X154628400Y-62891999D01*
X154628400Y-62621066D01*
X154713066Y-62621066D01*
X154713066Y-62807333D01*
X154899333Y-62807333D01*
X154899333Y-62621066D01*
X154713066Y-62621066D01*
X154628400Y-62621066D01*
X154495755Y-62621066D01*
X154480937Y-62620993D01*
X154419007Y-62618999D01*
X154372759Y-62614833D01*
X154351283Y-62609238D01*
X154347806Y-62596408D01*
X154344605Y-62555207D01*
X154343319Y-62493451D01*
X154344228Y-62418738D01*
X154346513Y-62333199D01*
X154425200Y-62333199D01*
X154425200Y-62519466D01*
X154628400Y-62519466D01*
X154628400Y-62333199D01*
X154425200Y-62333199D01*
X154346513Y-62333199D01*
X154349000Y-62240066D01*
X154704600Y-62240066D01*
X154714436Y-62519466D01*
X154897964Y-62519466D01*
X154904521Y-62333199D01*
X154984000Y-62333199D01*
X154984000Y-62519466D01*
X155187200Y-62519466D01*
X155187200Y-62333199D01*
X154984000Y-62333199D01*
X154904521Y-62333199D01*
X154907800Y-62240066D01*
X155187200Y-62230230D01*
X155187200Y-62045333D01*
X155271866Y-62045333D01*
X155271866Y-62231599D01*
X155458133Y-62231599D01*
X155458133Y-62045333D01*
X155271866Y-62045333D01*
X155187200Y-62045333D01*
X155187200Y-61960666D01*
X155542800Y-61960666D01*
X155542800Y-62230230D01*
G36*
X155542800Y-62230230D02*
G01*
X155822200Y-62240066D01*
X155832036Y-62519466D01*
X156015564Y-62519466D01*
X156022121Y-62333199D01*
X156118533Y-62333199D01*
X156118533Y-62519466D01*
X156304800Y-62519466D01*
X156304800Y-62333199D01*
X156118533Y-62333199D01*
X156022121Y-62333199D01*
X156025400Y-62240066D01*
X156304800Y-62230230D01*
X156304800Y-62045333D01*
X156389466Y-62045333D01*
X156389466Y-62231599D01*
X156575733Y-62231599D01*
X156575733Y-62045333D01*
X156389466Y-62045333D01*
X156304800Y-62045333D01*
X156304800Y-61960666D01*
X156677333Y-61960666D01*
X156677333Y-62230175D01*
X156808566Y-62235121D01*
X156939800Y-62240066D01*
X156949636Y-62519466D01*
X157133164Y-62519466D01*
X157139721Y-62333199D01*
X157236133Y-62333199D01*
X157236133Y-62519466D01*
X157422400Y-62519466D01*
X157422400Y-62333199D01*
X157236133Y-62333199D01*
X157139721Y-62333199D01*
X157143000Y-62240066D01*
X157507066Y-62230454D01*
X157507066Y-62621066D01*
X157422400Y-62621066D01*
X157236133Y-62621066D01*
X157236133Y-62891999D01*
X157134533Y-62891999D01*
X156863600Y-62891999D01*
X156863600Y-62622436D01*
X156824684Y-62621066D01*
X156948266Y-62621066D01*
X156948266Y-62807333D01*
X157134533Y-62807333D01*
X157134533Y-62621066D01*
X156948266Y-62621066D01*
X156824684Y-62621066D01*
X156723900Y-62617518D01*
X156584200Y-62612599D01*
X156579282Y-62472900D01*
X156575733Y-62372086D01*
X156574364Y-62333199D01*
X156677333Y-62333199D01*
X156677333Y-62519466D01*
X156863600Y-62519466D01*
X156863600Y-62333199D01*
X156677333Y-62333199D01*
X156574364Y-62333199D01*
X156390836Y-62333199D01*
X156385918Y-62472900D01*
X156381000Y-62612599D01*
X156304800Y-62615471D01*
X156249766Y-62617545D01*
X156118533Y-62622491D01*
X156118533Y-62891999D01*
X156016933Y-62891999D01*
X155746000Y-62891999D01*
X155746000Y-62622436D01*
X155707084Y-62621066D01*
X155830667Y-62621066D01*
X155830667Y-62807333D01*
X156016933Y-62807333D01*
X156016933Y-62621066D01*
X155830667Y-62621066D01*
X155707084Y-62621066D01*
X155606300Y-62617518D01*
X155466600Y-62612599D01*
X155461682Y-62472900D01*
X155458133Y-62372086D01*
X155456764Y-62333199D01*
X155542800Y-62333199D01*
X155542800Y-62519466D01*
X155746000Y-62519466D01*
X155746000Y-62333199D01*
X155542800Y-62333199D01*
X155456764Y-62333199D01*
X155273236Y-62333199D01*
X155268318Y-62472900D01*
X155263400Y-62612599D01*
X155187200Y-62615283D01*
X155123700Y-62617518D01*
X154984000Y-62622436D01*
X154984000Y-62891999D01*
X154899333Y-62891999D01*
X154628400Y-62891999D01*
X154628400Y-62621066D01*
X154713066Y-62621066D01*
X154713066Y-62807333D01*
X154899333Y-62807333D01*
X154899333Y-62621066D01*
X154713066Y-62621066D01*
X154628400Y-62621066D01*
X154495755Y-62621066D01*
X154480937Y-62620993D01*
X154419007Y-62618999D01*
X154372759Y-62614833D01*
X154351283Y-62609238D01*
X154347806Y-62596408D01*
X154344605Y-62555207D01*
X154343319Y-62493451D01*
X154344228Y-62418738D01*
X154346513Y-62333199D01*
X154425200Y-62333199D01*
X154425200Y-62519466D01*
X154628400Y-62519466D01*
X154628400Y-62333199D01*
X154425200Y-62333199D01*
X154346513Y-62333199D01*
X154349000Y-62240066D01*
X154704600Y-62240066D01*
X154714436Y-62519466D01*
X154897964Y-62519466D01*
X154904521Y-62333199D01*
X154984000Y-62333199D01*
X154984000Y-62519466D01*
X155187200Y-62519466D01*
X155187200Y-62333199D01*
X154984000Y-62333199D01*
X154904521Y-62333199D01*
X154907800Y-62240066D01*
X155187200Y-62230230D01*
X155187200Y-62045333D01*
X155271866Y-62045333D01*
X155271866Y-62231599D01*
X155458133Y-62231599D01*
X155458133Y-62045333D01*
X155271866Y-62045333D01*
X155187200Y-62045333D01*
X155187200Y-61960666D01*
X155542800Y-61960666D01*
X155542800Y-62230230D01*
G37*
D14*
X156628100Y-64022542D02*
X156628100Y-64497058D01*
X155583100Y-64022542D02*
X155583100Y-64497058D01*
D13*
X142884267Y-59725467D02*
X143172133Y-59725467D01*
X143172133Y-59996400D01*
X143443066Y-59996400D01*
X143443066Y-60553830D01*
X143582767Y-60558748D01*
X143722467Y-60563666D01*
X143732303Y-60843066D01*
X143867085Y-60843067D01*
X144001867Y-60843067D01*
X144001867Y-61114000D01*
X144560666Y-61114000D01*
X144560666Y-61401866D01*
X144840067Y-61401866D01*
X144933475Y-61402168D01*
X145012461Y-61403492D01*
X145066043Y-61406254D01*
X145098730Y-61410863D01*
X145115034Y-61417731D01*
X145119467Y-61427266D01*
X145120376Y-61432341D01*
X145130255Y-61440976D01*
X145154880Y-61446832D01*
X145199026Y-61450403D01*
X145267474Y-61452183D01*
X145365000Y-61452666D01*
X145610533Y-61452666D01*
X145610533Y-61164800D01*
X145627467Y-61164800D01*
X146169333Y-61164800D01*
X146169333Y-60893867D01*
X146438897Y-60893867D01*
X146443815Y-60754166D01*
X146448733Y-60614466D01*
X146524933Y-60611783D01*
X146728133Y-60604630D01*
X146728133Y-60047200D01*
X146999067Y-60047200D01*
X146999067Y-59776267D01*
X147303867Y-59776267D01*
X147303867Y-60927733D01*
X147032933Y-60927733D01*
X147032933Y-61757466D01*
X146745067Y-61757466D01*
X146745067Y-62231600D01*
X147642533Y-62231600D01*
X147642533Y-62654933D01*
X146745067Y-62654933D01*
X146745067Y-63129066D01*
X147032933Y-63129066D01*
X147032933Y-63958800D01*
X147303867Y-63958800D01*
X147303867Y-65110267D01*
X146999067Y-65110267D01*
X146999067Y-64839333D01*
X146728133Y-64839333D01*
X146728133Y-64281903D01*
X146448733Y-64272067D01*
X146438897Y-63992667D01*
X146169333Y-63992667D01*
X146169333Y-63721733D01*
X145610533Y-63721733D01*
X145610533Y-63433866D01*
X145365000Y-63433866D01*
X145315950Y-63433961D01*
X145232474Y-63434983D01*
X145175866Y-63437530D01*
X145141347Y-63442097D01*
X145124140Y-63449178D01*
X145119467Y-63459266D01*
X145116151Y-63467758D01*
X145101588Y-63474939D01*
X145071209Y-63479810D01*
X145020503Y-63482781D01*
X144944959Y-63484264D01*
X144840067Y-63484666D01*
X144560666Y-63484666D01*
X144560666Y-63772533D01*
X144001867Y-63772533D01*
X144001867Y-64043467D01*
X143732303Y-64043467D01*
X143722467Y-64322867D01*
X143582767Y-64327785D01*
X143443066Y-64332703D01*
X143443066Y-64890133D01*
X143172133Y-64890133D01*
X143172133Y-65161067D01*
X142748383Y-65161067D01*
X142749229Y-65042533D01*
X142884267Y-65042533D01*
X143036666Y-65042533D01*
X143036666Y-64754667D01*
X143324533Y-64754667D01*
X143324533Y-64195867D01*
X143595467Y-64195867D01*
X143595467Y-63926303D01*
X143735167Y-63921385D01*
X143874867Y-63916466D01*
X143884703Y-63637066D01*
X144442133Y-63637066D01*
X144442133Y-63366972D01*
X144992467Y-63357666D01*
X144997497Y-63289319D01*
X144998275Y-63274917D01*
X144996947Y-63232063D01*
X144990441Y-63208886D01*
X144988286Y-63207546D01*
X144960476Y-63202083D01*
X144909914Y-63198247D01*
X144845711Y-63196800D01*
X144713067Y-63196800D01*
X144713067Y-62925867D01*
X143884703Y-62925867D01*
X143882915Y-62875067D01*
X145627467Y-62875067D01*
X145627467Y-63129066D01*
X145881466Y-63129066D01*
X145881466Y-62875067D01*
X145627467Y-62875067D01*
X143882915Y-62875067D01*
X143874867Y-62646467D01*
X143658967Y-62641727D01*
X143443067Y-62636988D01*
X143443066Y-62916209D01*
X143443066Y-63195430D01*
X143303366Y-63200348D01*
X143163667Y-63205266D01*
X143159137Y-63624366D01*
X143154608Y-64043467D01*
X142884267Y-64043467D01*
X142884267Y-65042533D01*
X142749229Y-65042533D01*
X142752825Y-64538767D01*
X142757266Y-63916466D01*
X142896967Y-63911548D01*
X143036666Y-63906630D01*
X143036666Y-63078266D01*
X143307600Y-63078266D01*
X143307600Y-62604133D01*
X142528667Y-62604133D01*
X142528667Y-62316267D01*
X145627467Y-62316267D01*
X145627467Y-62570267D01*
X145881466Y-62570267D01*
X145881466Y-62367067D01*
X146524933Y-62367067D01*
X146524933Y-62519467D01*
X147524000Y-62519467D01*
X147524000Y-62367067D01*
X146524933Y-62367067D01*
X145881466Y-62367067D01*
X145881466Y-62316267D01*
X145627467Y-62316267D01*
X142528667Y-62316267D01*
X142528667Y-62282400D01*
X143307600Y-62282400D01*
X143307600Y-61808266D01*
X143036666Y-61808266D01*
X143036666Y-60979903D01*
X142896967Y-60974985D01*
X142757266Y-60970067D01*
X142752825Y-60347767D01*
X142749229Y-59844000D01*
X142884267Y-59844000D01*
X142884267Y-60843067D01*
X143154608Y-60843067D01*
X143159137Y-61262167D01*
X143163667Y-61681266D01*
X143303367Y-61686185D01*
X143443066Y-61691103D01*
X143443067Y-61970324D01*
X143443067Y-62249545D01*
X143874867Y-62240067D01*
X143884703Y-61960667D01*
X144713067Y-61960667D01*
X144713067Y-61757466D01*
X145627467Y-61757466D01*
X145627467Y-62011467D01*
X145881466Y-62011467D01*
X145881466Y-61757466D01*
X145627467Y-61757466D01*
X144713067Y-61757466D01*
X144713067Y-61691103D01*
X144852767Y-61686185D01*
X144992467Y-61681266D01*
X144997497Y-61612919D01*
X144998275Y-61598517D01*
X144996947Y-61555663D01*
X144990441Y-61532486D01*
X144981957Y-61529955D01*
X144944274Y-61526166D01*
X144882397Y-61523136D01*
X144802373Y-61521127D01*
X144710244Y-61520400D01*
X144442133Y-61520400D01*
X144442133Y-61249467D01*
X143884703Y-61249467D01*
X143874867Y-60970067D01*
X143735167Y-60965148D01*
X143595467Y-60960230D01*
X143595467Y-60690666D01*
X143324533Y-60690666D01*
X143324533Y-60131867D01*
X143036666Y-60131867D01*
X143036666Y-59844000D01*
X142884267Y-59844000D01*
X142749229Y-59844000D01*
X142748383Y-59725467D01*
X142884267Y-59725467D01*
G36*
X142884267Y-59725467D02*
G01*
X143172133Y-59725467D01*
X143172133Y-59996400D01*
X143443066Y-59996400D01*
X143443066Y-60553830D01*
X143582767Y-60558748D01*
X143722467Y-60563666D01*
X143732303Y-60843066D01*
X143867085Y-60843067D01*
X144001867Y-60843067D01*
X144001867Y-61114000D01*
X144560666Y-61114000D01*
X144560666Y-61401866D01*
X144840067Y-61401866D01*
X144933475Y-61402168D01*
X145012461Y-61403492D01*
X145066043Y-61406254D01*
X145098730Y-61410863D01*
X145115034Y-61417731D01*
X145119467Y-61427266D01*
X145120376Y-61432341D01*
X145130255Y-61440976D01*
X145154880Y-61446832D01*
X145199026Y-61450403D01*
X145267474Y-61452183D01*
X145365000Y-61452666D01*
X145610533Y-61452666D01*
X145610533Y-61164800D01*
X145627467Y-61164800D01*
X146169333Y-61164800D01*
X146169333Y-60893867D01*
X146438897Y-60893867D01*
X146443815Y-60754166D01*
X146448733Y-60614466D01*
X146524933Y-60611783D01*
X146728133Y-60604630D01*
X146728133Y-60047200D01*
X146999067Y-60047200D01*
X146999067Y-59776267D01*
X147303867Y-59776267D01*
X147303867Y-60927733D01*
X147032933Y-60927733D01*
X147032933Y-61757466D01*
X146745067Y-61757466D01*
X146745067Y-62231600D01*
X147642533Y-62231600D01*
X147642533Y-62654933D01*
X146745067Y-62654933D01*
X146745067Y-63129066D01*
X147032933Y-63129066D01*
X147032933Y-63958800D01*
X147303867Y-63958800D01*
X147303867Y-65110267D01*
X146999067Y-65110267D01*
X146999067Y-64839333D01*
X146728133Y-64839333D01*
X146728133Y-64281903D01*
X146448733Y-64272067D01*
X146438897Y-63992667D01*
X146169333Y-63992667D01*
X146169333Y-63721733D01*
X145610533Y-63721733D01*
X145610533Y-63433866D01*
X145365000Y-63433866D01*
X145315950Y-63433961D01*
X145232474Y-63434983D01*
X145175866Y-63437530D01*
X145141347Y-63442097D01*
X145124140Y-63449178D01*
X145119467Y-63459266D01*
X145116151Y-63467758D01*
X145101588Y-63474939D01*
X145071209Y-63479810D01*
X145020503Y-63482781D01*
X144944959Y-63484264D01*
X144840067Y-63484666D01*
X144560666Y-63484666D01*
X144560666Y-63772533D01*
X144001867Y-63772533D01*
X144001867Y-64043467D01*
X143732303Y-64043467D01*
X143722467Y-64322867D01*
X143582767Y-64327785D01*
X143443066Y-64332703D01*
X143443066Y-64890133D01*
X143172133Y-64890133D01*
X143172133Y-65161067D01*
X142748383Y-65161067D01*
X142749229Y-65042533D01*
X142884267Y-65042533D01*
X143036666Y-65042533D01*
X143036666Y-64754667D01*
X143324533Y-64754667D01*
X143324533Y-64195867D01*
X143595467Y-64195867D01*
X143595467Y-63926303D01*
X143735167Y-63921385D01*
X143874867Y-63916466D01*
X143884703Y-63637066D01*
X144442133Y-63637066D01*
X144442133Y-63366972D01*
X144992467Y-63357666D01*
X144997497Y-63289319D01*
X144998275Y-63274917D01*
X144996947Y-63232063D01*
X144990441Y-63208886D01*
X144988286Y-63207546D01*
X144960476Y-63202083D01*
X144909914Y-63198247D01*
X144845711Y-63196800D01*
X144713067Y-63196800D01*
X144713067Y-62925867D01*
X143884703Y-62925867D01*
X143882915Y-62875067D01*
X145627467Y-62875067D01*
X145627467Y-63129066D01*
X145881466Y-63129066D01*
X145881466Y-62875067D01*
X145627467Y-62875067D01*
X143882915Y-62875067D01*
X143874867Y-62646467D01*
X143658967Y-62641727D01*
X143443067Y-62636988D01*
X143443066Y-62916209D01*
X143443066Y-63195430D01*
X143303366Y-63200348D01*
X143163667Y-63205266D01*
X143159137Y-63624366D01*
X143154608Y-64043467D01*
X142884267Y-64043467D01*
X142884267Y-65042533D01*
X142749229Y-65042533D01*
X142752825Y-64538767D01*
X142757266Y-63916466D01*
X142896967Y-63911548D01*
X143036666Y-63906630D01*
X143036666Y-63078266D01*
X143307600Y-63078266D01*
X143307600Y-62604133D01*
X142528667Y-62604133D01*
X142528667Y-62316267D01*
X145627467Y-62316267D01*
X145627467Y-62570267D01*
X145881466Y-62570267D01*
X145881466Y-62367067D01*
X146524933Y-62367067D01*
X146524933Y-62519467D01*
X147524000Y-62519467D01*
X147524000Y-62367067D01*
X146524933Y-62367067D01*
X145881466Y-62367067D01*
X145881466Y-62316267D01*
X145627467Y-62316267D01*
X142528667Y-62316267D01*
X142528667Y-62282400D01*
X143307600Y-62282400D01*
X143307600Y-61808266D01*
X143036666Y-61808266D01*
X143036666Y-60979903D01*
X142896967Y-60974985D01*
X142757266Y-60970067D01*
X142752825Y-60347767D01*
X142749229Y-59844000D01*
X142884267Y-59844000D01*
X142884267Y-60843067D01*
X143154608Y-60843067D01*
X143159137Y-61262167D01*
X143163667Y-61681266D01*
X143303367Y-61686185D01*
X143443066Y-61691103D01*
X143443067Y-61970324D01*
X143443067Y-62249545D01*
X143874867Y-62240067D01*
X143884703Y-61960667D01*
X144713067Y-61960667D01*
X144713067Y-61757466D01*
X145627467Y-61757466D01*
X145627467Y-62011467D01*
X145881466Y-62011467D01*
X145881466Y-61757466D01*
X145627467Y-61757466D01*
X144713067Y-61757466D01*
X144713067Y-61691103D01*
X144852767Y-61686185D01*
X144992467Y-61681266D01*
X144997497Y-61612919D01*
X144998275Y-61598517D01*
X144996947Y-61555663D01*
X144990441Y-61532486D01*
X144981957Y-61529955D01*
X144944274Y-61526166D01*
X144882397Y-61523136D01*
X144802373Y-61521127D01*
X144710244Y-61520400D01*
X144442133Y-61520400D01*
X144442133Y-61249467D01*
X143884703Y-61249467D01*
X143874867Y-60970067D01*
X143735167Y-60965148D01*
X143595467Y-60960230D01*
X143595467Y-60690666D01*
X143324533Y-60690666D01*
X143324533Y-60131867D01*
X143036666Y-60131867D01*
X143036666Y-59844000D01*
X142884267Y-59844000D01*
X142749229Y-59844000D01*
X142748383Y-59725467D01*
X142884267Y-59725467D01*
G37*
M02*
