M48
; DRILL file {KiCad 7.0.8-7.0.8~ubuntu22.04.1} date 2024年11月12日 17時52分42秒
; FORMAT={-:-/ absolute / inch / decimal}
; #@! TF.CreationDate,2024-11-12T17:52:42+09:00
; #@! TF.GenerationSoftware,Kicad,Pcbnew,7.0.8-7.0.8~ubuntu22.04.1
; #@! TF.FileFunction,Plated,1,2,PTH
FMAT,2
INCH
; #@! TA.AperFunction,Plated,PTH,ViaDrill
T1C0.0157
; #@! TA.AperFunction,Plated,PTH,ComponentDrill
T2C0.0295
; #@! TA.AperFunction,Plated,PTH,ComponentDrill
T3C0.0300
; #@! TA.AperFunction,Plated,PTH,ComponentDrill
T4C0.0315
; #@! TA.AperFunction,Plated,PTH,ComponentDrill
T5C0.0354
; #@! TA.AperFunction,Plated,PTH,ComponentDrill
T6C0.0394
; #@! TA.AperFunction,Plated,PTH,ViaDrill
T7C0.0394
; #@! TA.AperFunction,Plated,PTH,ComponentDrill
T8C0.0394
; #@! TA.AperFunction,Plated,PTH,ComponentDrill
T9C0.0402
; #@! TA.AperFunction,Plated,PTH,ComponentDrill
T10C0.0433
; #@! TA.AperFunction,Plated,PTH,ComponentDrill
T11C0.0591
; #@! TA.AperFunction,Plated,PTH,ComponentDrill
T12C0.0709
; #@! TA.AperFunction,Plated,PTH,ComponentDrill
T13C0.0906
%
G90
G05
T1
X3.4286Y-3.5726
X3.7829Y-3.1199
X3.8026Y-4.8718
X3.838Y-4.8679
X3.9994Y-4.8522
X4.0585Y-3.9663
X4.1766Y-3.1789
X4.275Y-3.3561
X4.275Y-3.8679
X4.3734Y-3.1791
X4.4325Y-4.0451
X4.6294Y-3.3167
X4.7435Y-3.3202
X4.8262Y-3.2577
X4.8459Y-4.7732
X4.8656Y-3.297
X5.005Y-4.8718
X5.0231Y-3.9663
X5.0624Y-4.7734
X5.0821Y-4.9309
X5.2002Y-3.2577
X6.1845Y-3.9466
X6.2435Y-4.3207
T2
X5.2199Y-4.7144
X5.2199Y-4.7931
X5.2199Y-4.8718
X5.2199Y-4.9506
T3
X3.364Y-3.0317
X3.364Y-3.6317
X3.464Y-3.0317
X3.464Y-3.6317
X3.564Y-3.0317
X3.564Y-3.6317
X3.664Y-3.0317
X3.664Y-3.6317
X3.764Y-3.0317
X3.764Y-3.6317
X3.864Y-3.0317
X3.864Y-3.6317
X3.964Y-3.0317
X3.964Y-3.6317
X4.064Y-3.0317
X4.064Y-3.6317
X4.164Y-3.0317
X4.164Y-3.6317
X4.264Y-3.0317
X4.264Y-3.6317
X4.364Y-3.0317
X4.364Y-3.6317
X4.464Y-3.0317
X4.464Y-3.6317
X4.564Y-3.0317
X4.564Y-3.6317
X4.664Y-3.0317
X4.664Y-3.6317
X4.764Y-3.0317
X4.764Y-3.6317
X4.864Y-3.0317
X4.864Y-3.6317
X4.964Y-3.0317
X4.964Y-3.6317
X5.064Y-3.0317
X5.064Y-3.6317
X5.164Y-3.0317
X5.164Y-3.6317
X5.264Y-3.0317
X5.264Y-3.6317
X5.642Y-2.2124
X5.642Y-2.8124
X5.742Y-2.2124
X5.742Y-2.8124
X5.842Y-2.2124
X5.842Y-2.8124
X5.942Y-2.2124
X5.942Y-2.8124
X6.042Y-2.2124
X6.042Y-2.8124
X6.142Y-2.2124
X6.142Y-2.8124
X6.242Y-2.2124
X6.242Y-2.8124
X6.342Y-2.2124
X6.342Y-2.8124
T4
X3.4679Y-3.1789
X3.4679Y-3.297
X3.4679Y-3.4151
X3.5664Y-3.1789
X3.5664Y-3.297
X3.5664Y-3.4151
X3.7435Y-3.3758
X3.9404Y-3.3758
X4.6097Y-3.1545
X4.6097Y-3.4545
X4.7278Y-3.1545
X4.7278Y-3.4545
X4.8459Y-3.1545
X4.8459Y-3.4545
X4.964Y-3.1545
X4.964Y-3.4545
X5.0821Y-3.1545
X5.0821Y-3.4545
X5.2002Y-3.1545
X5.2002Y-3.4545
X5.7073Y-3.1081
X5.8073Y-3.1081
X5.9073Y-3.1081
X6.0073Y-3.1081
X6.1073Y-3.1081
X6.2073Y-3.1081
X6.3073Y-3.1081
T5
X5.5136Y-3.1199
X5.6136Y-3.1199
X5.9664Y-2.3793
X6.0664Y-2.3793
T6
X3.1333Y-3.886
X3.1333Y-3.986
X3.1333Y-4.086
X3.4483Y-4.7506
X3.4483Y-4.8506
X3.4483Y-4.9506
X5.3971Y-4.734
X5.3971Y-4.8128
X5.3971Y-4.8915
X5.3971Y-4.9703
X5.6514Y-3.238
X5.7435Y-2.6903
X5.7514Y-3.238
X5.8435Y-2.6903
X5.8514Y-3.238
X5.9286Y-4.2419
X5.9286Y-4.3419
X5.9286Y-4.4419
X5.9435Y-2.6903
X5.9514Y-3.238
X6.0435Y-2.6903
X6.0514Y-3.238
X6.1435Y-2.6903
X6.2238Y-4.4653
X6.4207Y-4.4653
T7
X3.2729Y-4.4799
X3.2908Y-3.4939
X3.309Y-3.5967
X4.3931Y-3.4348
X4.4719Y-3.5136
X4.9049Y-3.2379
X4.9814Y-4.8301
X5.0231Y-3.2183
X5.0624Y-3.7695
X5.2593Y-4.6553
X5.2986Y-3.3955
X5.3183Y-4.5175
X5.5222Y-4.6159
X5.712Y-2.5762
T8
X6.1845Y-3.3955
X6.1845Y-3.4939
X6.1845Y-3.5726
X6.1845Y-3.6711
X6.3813Y-2.3793
X6.3813Y-2.4777
X6.3813Y-2.5565
X6.3813Y-2.6549
T9
X3.129Y-3.7104
X3.129Y-4.2104
T10
X3.2514Y-3.7301
X3.5514Y-3.7301
X5.9679Y-4.7537
X5.9679Y-4.8522
X5.9679Y-4.9506
T11
X3.3998Y-4.0041
X3.6498Y-3.9041
X4.1628Y-4.0073
X4.4128Y-3.9073
X4.9353Y-4.0073
X5.1853Y-3.9073
T13
X6.2889Y-3.2813
X6.2889Y-3.7852
X6.4857Y-2.2651
X6.4857Y-2.7691
T12
G00X5.649Y-4.6159
M15
G01X5.6963Y-4.6159
M16
G05
G00X5.649Y-5.0884
M15
G01X5.6963Y-5.0884
M16
G05
T0
M30
