G04 #@! TF.GenerationSoftware,KiCad,Pcbnew,7.0.8-7.0.8~ubuntu22.04.1*
G04 #@! TF.CreationDate,2024-11-12T17:52:49+09:00*
G04 #@! TF.ProjectId,ch32v203KeyBoardBadCable,63683332-7632-4303-934b-6579426f6172,rev?*
G04 #@! TF.SameCoordinates,Original*
G04 #@! TF.FileFunction,Profile,NP*
%FSLAX46Y46*%
G04 Gerber Fmt 4.6, Leading zero omitted, Abs format (unit mm)*
G04 Created by KiCad (PCBNEW 7.0.8-7.0.8~ubuntu22.04.1) date 2024-11-12 17:52:49*
%MOMM*%
%LPD*%
G01*
G04 APERTURE LIST*
G04 #@! TA.AperFunction,Profile*
%ADD10C,0.200000*%
G04 #@! TD*
%ADD11C,0.150000*%
G04 APERTURE END LIST*
D10*
X141085600Y-74244800D02*
X141985600Y-73244800D01*
X133085600Y-113244800D02*
X124085600Y-113244800D01*
X86085600Y-113244800D02*
X96085600Y-113244800D01*
X147085600Y-115244800D02*
X137085600Y-115244800D01*
X96085600Y-113244800D02*
X96085600Y-107244800D01*
X141085600Y-74244800D02*
X81085600Y-74244800D01*
X77085600Y-91244800D02*
X77085600Y-129244800D01*
X133085600Y-107244800D02*
X133085600Y-113244800D01*
X79085600Y-74244800D02*
X77085600Y-76244800D01*
X96085600Y-107244800D02*
X86085600Y-107244800D01*
X137085600Y-115244800D02*
X137085600Y-105244800D01*
X124085600Y-107244800D02*
X133085600Y-107244800D01*
X123085600Y-107244800D02*
X124085600Y-107244800D01*
X147085600Y-105244800D02*
X147085600Y-115244800D01*
X112585600Y-107244800D02*
X112585600Y-113244800D01*
X165085600Y-131244800D02*
X167085600Y-129244800D01*
X137085600Y-105244800D02*
X147085600Y-105244800D01*
X79085600Y-131244800D02*
X165085600Y-131244800D01*
X77085600Y-76244800D02*
X77085600Y-88244800D01*
X107085600Y-107244800D02*
X112585600Y-107244800D01*
X112585600Y-113244800D02*
X106585600Y-113244800D01*
X77085600Y-88244800D02*
X77085600Y-91244800D01*
X106585600Y-113244800D02*
X106585600Y-107244800D01*
X106585600Y-107244800D02*
X107085600Y-107244800D01*
X167085600Y-129244800D02*
X167085600Y-76244800D01*
X124085600Y-113244800D02*
X123085600Y-113244800D01*
X86085600Y-107244800D02*
X86085600Y-113244800D01*
X77085600Y-129244800D02*
X79085600Y-131244800D01*
X123085600Y-113244800D02*
X123085600Y-107244800D01*
D11*
X126185880Y-115993569D02*
X126179541Y-116660206D01*
X125951418Y-115610370D02*
X125706541Y-116322360D01*
X125706541Y-116322360D02*
X126325561Y-116328246D01*
X127227113Y-116670167D02*
X126655710Y-116664734D01*
X126941411Y-116667450D02*
X126950920Y-115667495D01*
X126950920Y-115667495D02*
X126854328Y-115809441D01*
X126854328Y-115809441D02*
X126758188Y-115903769D01*
X126758188Y-115903769D02*
X126662502Y-115950480D01*
X127656570Y-116579008D02*
X127703734Y-116627078D01*
X127703734Y-116627078D02*
X127655665Y-116674242D01*
X127655665Y-116674242D02*
X127608501Y-116626172D01*
X127608501Y-116626172D02*
X127656570Y-116579008D01*
X127656570Y-116579008D02*
X127655665Y-116674242D01*
X128617511Y-115683343D02*
X128141342Y-115678815D01*
X128141342Y-115678815D02*
X128089197Y-116154531D01*
X128089197Y-116154531D02*
X128137267Y-116107367D01*
X128137267Y-116107367D02*
X128232953Y-116060656D01*
X128232953Y-116060656D02*
X128471038Y-116062920D01*
X128471038Y-116062920D02*
X128565819Y-116111442D01*
X128565819Y-116111442D02*
X128612983Y-116159512D01*
X128612983Y-116159512D02*
X128659694Y-116255198D01*
X128659694Y-116255198D02*
X128657430Y-116493283D01*
X128657430Y-116493283D02*
X128608908Y-116588064D01*
X128608908Y-116588064D02*
X128560838Y-116635228D01*
X128560838Y-116635228D02*
X128465151Y-116681939D01*
X128465151Y-116681939D02*
X128227067Y-116679675D01*
X128227067Y-116679675D02*
X128132286Y-116631153D01*
X128132286Y-116631153D02*
X128085122Y-116583083D01*
X129519062Y-116025264D02*
X129512723Y-116691901D01*
X129284600Y-115642065D02*
X129039724Y-116354055D01*
X129039724Y-116354055D02*
X129658743Y-116359941D01*
X130560295Y-116701862D02*
X129988892Y-116696428D01*
X130274593Y-116699145D02*
X130284102Y-115699190D01*
X130284102Y-115699190D02*
X130187510Y-115841136D01*
X130187510Y-115841136D02*
X130091370Y-115935464D01*
X130091370Y-115935464D02*
X129995684Y-115982175D01*
X131036464Y-116706390D02*
X131226931Y-116708201D01*
X131226931Y-116708201D02*
X131322618Y-116661490D01*
X131322618Y-116661490D02*
X131370688Y-116614325D01*
X131370688Y-116614325D02*
X131467280Y-116472380D01*
X131467280Y-116472380D02*
X131516708Y-116282366D01*
X131516708Y-116282366D02*
X131520330Y-115901430D01*
X131520330Y-115901430D02*
X131473619Y-115805744D01*
X131473619Y-115805744D02*
X131426455Y-115757674D01*
X131426455Y-115757674D02*
X131331674Y-115709152D01*
X131331674Y-115709152D02*
X131141206Y-115707341D01*
X131141206Y-115707341D02*
X131045520Y-115754052D01*
X131045520Y-115754052D02*
X130997450Y-115801216D01*
X130997450Y-115801216D02*
X130948927Y-115895997D01*
X130948927Y-115895997D02*
X130946663Y-116134081D01*
X130946663Y-116134081D02*
X130993375Y-116229768D01*
X130993375Y-116229768D02*
X131040539Y-116277838D01*
X131040539Y-116277838D02*
X131135320Y-116326360D01*
X131135320Y-116326360D02*
X131325788Y-116328171D01*
X131325788Y-116328171D02*
X131421474Y-116281460D01*
X131421474Y-116281460D02*
X131469544Y-116234296D01*
X131469544Y-116234296D02*
X131518066Y-116139515D01*
X132703055Y-116722237D02*
X132709394Y-116055601D01*
X132708489Y-116150834D02*
X132756559Y-116103670D01*
X132756559Y-116103670D02*
X132852245Y-116056959D01*
X132852245Y-116056959D02*
X132995096Y-116058317D01*
X132995096Y-116058317D02*
X133089877Y-116106840D01*
X133089877Y-116106840D02*
X133136588Y-116202526D01*
X133136588Y-116202526D02*
X133131608Y-116726312D01*
X133136588Y-116202526D02*
X133185111Y-116107745D01*
X133185111Y-116107745D02*
X133280797Y-116061034D01*
X133280797Y-116061034D02*
X133423648Y-116062392D01*
X133423648Y-116062392D02*
X133518429Y-116110915D01*
X133518429Y-116110915D02*
X133565140Y-116206602D01*
X133565140Y-116206602D02*
X133560160Y-116730387D01*
X134036328Y-116734915D02*
X134042667Y-116068279D01*
X134041762Y-116163512D02*
X134089831Y-116116348D01*
X134089831Y-116116348D02*
X134185518Y-116069637D01*
X134185518Y-116069637D02*
X134328369Y-116070995D01*
X134328369Y-116070995D02*
X134423150Y-116119518D01*
X134423150Y-116119518D02*
X134469861Y-116215204D01*
X134469861Y-116215204D02*
X134464880Y-116738990D01*
X134469861Y-116215204D02*
X134518383Y-116120423D01*
X134518383Y-116120423D02*
X134614070Y-116073712D01*
X134614070Y-116073712D02*
X134756921Y-116075070D01*
X134756921Y-116075070D02*
X134851702Y-116123593D01*
X134851702Y-116123593D02*
X134898413Y-116219279D01*
X134898413Y-116219279D02*
X134893432Y-116743065D01*
D10*
X109550354Y-113349823D02*
X109551176Y-113263407D01*
X151090354Y-113744823D02*
X151091176Y-113658407D01*
X109545600Y-113849800D02*
X151085600Y-114244800D01*
X109545600Y-113849800D02*
X151085600Y-114244800D01*
X109545600Y-113849800D02*
X110677629Y-113274117D01*
X109545600Y-113849800D02*
X110666477Y-114446906D01*
X151085600Y-114244800D02*
X149953571Y-114820483D01*
X151085600Y-114244800D02*
X149964723Y-113647694D01*
D11*
X95442743Y-134882952D02*
X95442743Y-135549619D01*
X95204648Y-134502000D02*
X94966553Y-135216285D01*
X94966553Y-135216285D02*
X95585600Y-135216285D01*
X96442743Y-134549619D02*
X95966553Y-134549619D01*
X95966553Y-134549619D02*
X95918934Y-135025809D01*
X95918934Y-135025809D02*
X95966553Y-134978190D01*
X95966553Y-134978190D02*
X96061791Y-134930571D01*
X96061791Y-134930571D02*
X96299886Y-134930571D01*
X96299886Y-134930571D02*
X96395124Y-134978190D01*
X96395124Y-134978190D02*
X96442743Y-135025809D01*
X96442743Y-135025809D02*
X96490362Y-135121047D01*
X96490362Y-135121047D02*
X96490362Y-135359142D01*
X96490362Y-135359142D02*
X96442743Y-135454380D01*
X96442743Y-135454380D02*
X96395124Y-135502000D01*
X96395124Y-135502000D02*
X96299886Y-135549619D01*
X96299886Y-135549619D02*
X96061791Y-135549619D01*
X96061791Y-135549619D02*
X95966553Y-135502000D01*
X95966553Y-135502000D02*
X95918934Y-135454380D01*
X96918934Y-135454380D02*
X96966553Y-135502000D01*
X96966553Y-135502000D02*
X96918934Y-135549619D01*
X96918934Y-135549619D02*
X96871315Y-135502000D01*
X96871315Y-135502000D02*
X96918934Y-135454380D01*
X96918934Y-135454380D02*
X96918934Y-135549619D01*
X97585600Y-134549619D02*
X97680838Y-134549619D01*
X97680838Y-134549619D02*
X97776076Y-134597238D01*
X97776076Y-134597238D02*
X97823695Y-134644857D01*
X97823695Y-134644857D02*
X97871314Y-134740095D01*
X97871314Y-134740095D02*
X97918933Y-134930571D01*
X97918933Y-134930571D02*
X97918933Y-135168666D01*
X97918933Y-135168666D02*
X97871314Y-135359142D01*
X97871314Y-135359142D02*
X97823695Y-135454380D01*
X97823695Y-135454380D02*
X97776076Y-135502000D01*
X97776076Y-135502000D02*
X97680838Y-135549619D01*
X97680838Y-135549619D02*
X97585600Y-135549619D01*
X97585600Y-135549619D02*
X97490362Y-135502000D01*
X97490362Y-135502000D02*
X97442743Y-135454380D01*
X97442743Y-135454380D02*
X97395124Y-135359142D01*
X97395124Y-135359142D02*
X97347505Y-135168666D01*
X97347505Y-135168666D02*
X97347505Y-134930571D01*
X97347505Y-134930571D02*
X97395124Y-134740095D01*
X97395124Y-134740095D02*
X97442743Y-134644857D01*
X97442743Y-134644857D02*
X97490362Y-134597238D01*
X97490362Y-134597238D02*
X97585600Y-134549619D01*
X98537981Y-134549619D02*
X98633219Y-134549619D01*
X98633219Y-134549619D02*
X98728457Y-134597238D01*
X98728457Y-134597238D02*
X98776076Y-134644857D01*
X98776076Y-134644857D02*
X98823695Y-134740095D01*
X98823695Y-134740095D02*
X98871314Y-134930571D01*
X98871314Y-134930571D02*
X98871314Y-135168666D01*
X98871314Y-135168666D02*
X98823695Y-135359142D01*
X98823695Y-135359142D02*
X98776076Y-135454380D01*
X98776076Y-135454380D02*
X98728457Y-135502000D01*
X98728457Y-135502000D02*
X98633219Y-135549619D01*
X98633219Y-135549619D02*
X98537981Y-135549619D01*
X98537981Y-135549619D02*
X98442743Y-135502000D01*
X98442743Y-135502000D02*
X98395124Y-135454380D01*
X98395124Y-135454380D02*
X98347505Y-135359142D01*
X98347505Y-135359142D02*
X98299886Y-135168666D01*
X98299886Y-135168666D02*
X98299886Y-134930571D01*
X98299886Y-134930571D02*
X98347505Y-134740095D01*
X98347505Y-134740095D02*
X98395124Y-134644857D01*
X98395124Y-134644857D02*
X98442743Y-134597238D01*
X98442743Y-134597238D02*
X98537981Y-134549619D01*
X99490362Y-134549619D02*
X99585600Y-134549619D01*
X99585600Y-134549619D02*
X99680838Y-134597238D01*
X99680838Y-134597238D02*
X99728457Y-134644857D01*
X99728457Y-134644857D02*
X99776076Y-134740095D01*
X99776076Y-134740095D02*
X99823695Y-134930571D01*
X99823695Y-134930571D02*
X99823695Y-135168666D01*
X99823695Y-135168666D02*
X99776076Y-135359142D01*
X99776076Y-135359142D02*
X99728457Y-135454380D01*
X99728457Y-135454380D02*
X99680838Y-135502000D01*
X99680838Y-135502000D02*
X99585600Y-135549619D01*
X99585600Y-135549619D02*
X99490362Y-135549619D01*
X99490362Y-135549619D02*
X99395124Y-135502000D01*
X99395124Y-135502000D02*
X99347505Y-135454380D01*
X99347505Y-135454380D02*
X99299886Y-135359142D01*
X99299886Y-135359142D02*
X99252267Y-135168666D01*
X99252267Y-135168666D02*
X99252267Y-134930571D01*
X99252267Y-134930571D02*
X99299886Y-134740095D01*
X99299886Y-134740095D02*
X99347505Y-134644857D01*
X99347505Y-134644857D02*
X99395124Y-134597238D01*
X99395124Y-134597238D02*
X99490362Y-134549619D01*
X100442743Y-134549619D02*
X100537981Y-134549619D01*
X100537981Y-134549619D02*
X100633219Y-134597238D01*
X100633219Y-134597238D02*
X100680838Y-134644857D01*
X100680838Y-134644857D02*
X100728457Y-134740095D01*
X100728457Y-134740095D02*
X100776076Y-134930571D01*
X100776076Y-134930571D02*
X100776076Y-135168666D01*
X100776076Y-135168666D02*
X100728457Y-135359142D01*
X100728457Y-135359142D02*
X100680838Y-135454380D01*
X100680838Y-135454380D02*
X100633219Y-135502000D01*
X100633219Y-135502000D02*
X100537981Y-135549619D01*
X100537981Y-135549619D02*
X100442743Y-135549619D01*
X100442743Y-135549619D02*
X100347505Y-135502000D01*
X100347505Y-135502000D02*
X100299886Y-135454380D01*
X100299886Y-135454380D02*
X100252267Y-135359142D01*
X100252267Y-135359142D02*
X100204648Y-135168666D01*
X100204648Y-135168666D02*
X100204648Y-134930571D01*
X100204648Y-134930571D02*
X100252267Y-134740095D01*
X100252267Y-134740095D02*
X100299886Y-134644857D01*
X100299886Y-134644857D02*
X100347505Y-134597238D01*
X100347505Y-134597238D02*
X100442743Y-134549619D01*
X101966553Y-135549619D02*
X101966553Y-134882952D01*
X101966553Y-134978190D02*
X102014172Y-134930571D01*
X102014172Y-134930571D02*
X102109410Y-134882952D01*
X102109410Y-134882952D02*
X102252267Y-134882952D01*
X102252267Y-134882952D02*
X102347505Y-134930571D01*
X102347505Y-134930571D02*
X102395124Y-135025809D01*
X102395124Y-135025809D02*
X102395124Y-135549619D01*
X102395124Y-135025809D02*
X102442743Y-134930571D01*
X102442743Y-134930571D02*
X102537981Y-134882952D01*
X102537981Y-134882952D02*
X102680838Y-134882952D01*
X102680838Y-134882952D02*
X102776077Y-134930571D01*
X102776077Y-134930571D02*
X102823696Y-135025809D01*
X102823696Y-135025809D02*
X102823696Y-135549619D01*
X103299886Y-135549619D02*
X103299886Y-134882952D01*
X103299886Y-134978190D02*
X103347505Y-134930571D01*
X103347505Y-134930571D02*
X103442743Y-134882952D01*
X103442743Y-134882952D02*
X103585600Y-134882952D01*
X103585600Y-134882952D02*
X103680838Y-134930571D01*
X103680838Y-134930571D02*
X103728457Y-135025809D01*
X103728457Y-135025809D02*
X103728457Y-135549619D01*
X103728457Y-135025809D02*
X103776076Y-134930571D01*
X103776076Y-134930571D02*
X103871314Y-134882952D01*
X103871314Y-134882952D02*
X104014171Y-134882952D01*
X104014171Y-134882952D02*
X104109410Y-134930571D01*
X104109410Y-134930571D02*
X104157029Y-135025809D01*
X104157029Y-135025809D02*
X104157029Y-135549619D01*
D10*
X77085600Y-131744800D02*
X77085600Y-136831220D01*
X122085600Y-131744800D02*
X122085600Y-136831220D01*
X77085600Y-136244800D02*
X122085600Y-136244800D01*
X77085600Y-136244800D02*
X122085600Y-136244800D01*
X77085600Y-136244800D02*
X78212104Y-135658379D01*
X77085600Y-136244800D02*
X78212104Y-136831221D01*
X122085600Y-136244800D02*
X120959096Y-136831221D01*
X122085600Y-136244800D02*
X120959096Y-135658379D01*
X167085600Y-55434800D02*
X165085600Y-53434800D01*
X167085600Y-72434800D02*
X167085600Y-55434800D01*
X165085600Y-53434800D02*
X142185600Y-53434800D01*
X141985600Y-53434800D02*
X141985600Y-73244800D01*
X167085600Y-76244800D02*
X167085600Y-72434800D01*
M02*
