G04 #@! TF.GenerationSoftware,KiCad,Pcbnew,7.0.8-7.0.8~ubuntu22.04.1*
G04 #@! TF.CreationDate,2024-11-12T17:52:49+09:00*
G04 #@! TF.ProjectId,ch32v203KeyBoardBadCable,63683332-7632-4303-934b-6579426f6172,rev?*
G04 #@! TF.SameCoordinates,Original*
G04 #@! TF.FileFunction,Soldermask,Top*
G04 #@! TF.FilePolarity,Negative*
%FSLAX46Y46*%
G04 Gerber Fmt 4.6, Leading zero omitted, Abs format (unit mm)*
G04 Created by KiCad (PCBNEW 7.0.8-7.0.8~ubuntu22.04.1) date 2024-11-12 17:52:49*
%MOMM*%
%LPD*%
G01*
G04 APERTURE LIST*
G04 Aperture macros list*
%AMRoundRect*
0 Rectangle with rounded corners*
0 $1 Rounding radius*
0 $2 $3 $4 $5 $6 $7 $8 $9 X,Y pos of 4 corners*
0 Add a 4 corners polygon primitive as box body*
4,1,4,$2,$3,$4,$5,$6,$7,$8,$9,$2,$3,0*
0 Add four circle primitives for the rounded corners*
1,1,$1+$1,$2,$3*
1,1,$1+$1,$4,$5*
1,1,$1+$1,$6,$7*
1,1,$1+$1,$8,$9*
0 Add four rect primitives between the rounded corners*
20,1,$1+$1,$2,$3,$4,$5,0*
20,1,$1+$1,$4,$5,$6,$7,0*
20,1,$1+$1,$6,$7,$8,$9,0*
20,1,$1+$1,$8,$9,$2,$3,0*%
%AMFreePoly0*
4,1,33,3.949277,1.046694,4.018866,0.991198,4.057486,0.911004,4.062500,0.866500,4.062500,-0.866500,4.042694,-0.953277,3.987198,-1.022866,3.907004,-1.061486,3.862500,-1.066500,0.737500,-1.066500,0.650723,-1.046694,0.581134,-0.991198,0.542514,-0.911004,0.537500,-0.866500,0.537500,-0.650000,-0.737500,-0.650000,-0.824277,-0.630194,-0.893866,-0.574698,-0.932486,-0.494504,-0.937500,-0.450000,
-0.937500,0.450000,-0.917694,0.536777,-0.862198,0.606366,-0.782004,0.644986,-0.737500,0.650000,0.537500,0.650000,0.537500,0.866500,0.557306,0.953277,0.612802,1.022866,0.692996,1.061486,0.737500,1.066500,3.862500,1.066500,3.949277,1.046694,3.949277,1.046694,$1*%
G04 Aperture macros list end*
%ADD10RoundRect,0.200000X-0.750000X0.500000X-0.750000X-0.500000X0.750000X-0.500000X0.750000X0.500000X0*%
%ADD11RoundRect,0.200000X0.900000X0.900000X-0.900000X0.900000X-0.900000X-0.900000X0.900000X-0.900000X0*%
%ADD12C,2.200000*%
%ADD13C,2.000000*%
%ADD14O,2.000000X2.000000*%
%ADD15C,3.600000*%
%ADD16RoundRect,0.200000X1.100000X1.100000X-1.100000X1.100000X-1.100000X-1.100000X1.100000X-1.100000X0*%
%ADD17O,2.600000X2.600000*%
%ADD18C,5.700000*%
%ADD19RoundRect,0.200000X0.650000X0.450000X-0.650000X0.450000X-0.650000X-0.450000X0.650000X-0.450000X0*%
%ADD20FreePoly0,180.000000*%
%ADD21RoundRect,0.200000X-3.500000X-0.750000X3.500000X-0.750000X3.500000X0.750000X-3.500000X0.750000X0*%
%ADD22RoundRect,0.200000X-0.850000X-0.850000X0.850000X-0.850000X0.850000X0.850000X-0.850000X0.850000X0*%
%ADD23O,2.100000X2.100000*%
%ADD24RoundRect,0.200000X-1.000000X-1.000000X1.000000X-1.000000X1.000000X1.000000X-1.000000X1.000000X0*%
%ADD25C,2.400000*%
%ADD26RoundRect,0.335000X0.185000X-0.135000X0.185000X0.135000X-0.185000X0.135000X-0.185000X-0.135000X0*%
%ADD27O,4.400000X4.400000*%
%ADD28O,4.400000X1.700000*%
%ADD29O,4.400000X2.400000*%
%ADD30RoundRect,0.400000X-0.275000X0.200000X-0.275000X-0.200000X0.275000X-0.200000X0.275000X0.200000X0*%
%ADD31C,1.600000*%
%ADD32C,2.100000*%
%ADD33C,4.400000*%
%ADD34C,2.600000*%
%ADD35RoundRect,0.200000X0.850000X-0.850000X0.850000X0.850000X-0.850000X0.850000X-0.850000X-0.850000X0*%
%ADD36RoundRect,0.425000X0.225000X0.250000X-0.225000X0.250000X-0.225000X-0.250000X0.225000X-0.250000X0*%
%ADD37C,1.924000*%
%ADD38C,1.901140*%
%ADD39C,3.900000*%
%ADD40RoundRect,0.200000X0.850000X0.850000X-0.850000X0.850000X-0.850000X-0.850000X0.850000X-0.850000X0*%
%ADD41RoundRect,0.450000X0.625000X-0.350000X0.625000X0.350000X-0.625000X0.350000X-0.625000X-0.350000X0*%
%ADD42O,2.150000X1.600000*%
%ADD43RoundRect,0.335000X-0.135000X-0.185000X0.135000X-0.185000X0.135000X0.185000X-0.135000X0.185000X0*%
%ADD44RoundRect,0.200000X-0.500000X-0.750000X0.500000X-0.750000X0.500000X0.750000X-0.500000X0.750000X0*%
%ADD45RoundRect,0.200000X-0.900000X-0.900000X0.900000X-0.900000X0.900000X0.900000X-0.900000X0.900000X0*%
%ADD46RoundRect,0.200000X-0.850000X0.850000X-0.850000X-0.850000X0.850000X-0.850000X0.850000X0.850000X0*%
G04 APERTURE END LIST*
D10*
X159085600Y-106944800D03*
X159085600Y-108244800D03*
D11*
X142585600Y-79244800D03*
D12*
X140045600Y-79244800D03*
D13*
X126085600Y-80124800D03*
D14*
X126085600Y-87744800D03*
D15*
X79985600Y-83544800D03*
D16*
X90205600Y-94744800D03*
D17*
X82585600Y-94744800D03*
D18*
X122085600Y-126244800D03*
D19*
X84173100Y-120744800D03*
D20*
X84085600Y-119244800D03*
D19*
X84173100Y-117744800D03*
D21*
X150585600Y-107744800D03*
X150585600Y-110284800D03*
X150585600Y-112824800D03*
D22*
X79585600Y-98704800D03*
D23*
X79585600Y-101244800D03*
X79585600Y-103784800D03*
D24*
X158085600Y-113419800D03*
D25*
X163085600Y-113419800D03*
D26*
X132585600Y-129754800D03*
X132585600Y-128734800D03*
D27*
X144085600Y-129244800D03*
X144085600Y-117244800D03*
D28*
X137085600Y-120244800D03*
X137085600Y-122244800D03*
X137085600Y-124244800D03*
X137085600Y-126244800D03*
D29*
X151585600Y-125744800D03*
X151585600Y-123244800D03*
X151585600Y-120744800D03*
D13*
X88085600Y-86744800D03*
X90585600Y-86744800D03*
D30*
X156585600Y-106769800D03*
X156585600Y-108419800D03*
D13*
X88085600Y-83744800D03*
X90585600Y-83744800D03*
D15*
X140935600Y-103244800D03*
X164235600Y-103244800D03*
D31*
X144965600Y-78944800D03*
X147505600Y-78944800D03*
X150045600Y-78944800D03*
X152585600Y-78944800D03*
X155125600Y-78944800D03*
X157665600Y-78944800D03*
X160205600Y-78944800D03*
D32*
X85085600Y-104244800D03*
D33*
X90165600Y-104244800D03*
D32*
X95245600Y-104244800D03*
D34*
X92705600Y-99164800D03*
X86355600Y-101704800D03*
D32*
X124085600Y-104324800D03*
D33*
X129165600Y-104324800D03*
D32*
X134245600Y-104324800D03*
D34*
X131705600Y-99244800D03*
X125355600Y-101784800D03*
D13*
X117085600Y-80124800D03*
D14*
X117085600Y-87744800D03*
D15*
X80085600Y-128244800D03*
D35*
X143545600Y-82244800D03*
D23*
X146085600Y-82244800D03*
X148625600Y-82244800D03*
X151165600Y-82244800D03*
X153705600Y-82244800D03*
D15*
X164085600Y-77244800D03*
D13*
X88085600Y-80744800D03*
X90585600Y-80744800D03*
D36*
X84160600Y-122844800D03*
X82610600Y-122844800D03*
X83773100Y-115744800D03*
X82223100Y-115744800D03*
D13*
X95085600Y-85744800D03*
X100085600Y-85744800D03*
D37*
X85445600Y-92244800D03*
X87985600Y-92244800D03*
X90525600Y-92244800D03*
X93065600Y-92244800D03*
X95605600Y-92244800D03*
X98145600Y-92244800D03*
X100685600Y-92244800D03*
X103225600Y-92244800D03*
X105765600Y-92244800D03*
X108305600Y-92244800D03*
X110845600Y-92244800D03*
X113385600Y-92244800D03*
X115925600Y-92244800D03*
X118465600Y-92244800D03*
X121005600Y-92244800D03*
X123545600Y-92244800D03*
X126085600Y-92244800D03*
X128625600Y-92244800D03*
X131165600Y-92244800D03*
X133705600Y-92244800D03*
X133705600Y-77004800D03*
X131165600Y-77004800D03*
X128625600Y-77004800D03*
X126085600Y-77004800D03*
X123545600Y-77004800D03*
X121005600Y-77004800D03*
X118465600Y-77004800D03*
X115925600Y-77004800D03*
X113385600Y-77004800D03*
X110845600Y-77004800D03*
X108305600Y-77004800D03*
X105765600Y-77004800D03*
X103225600Y-77004800D03*
X100685600Y-77004800D03*
X98145600Y-77004800D03*
X95605600Y-77004800D03*
X93065600Y-77004800D03*
X90525600Y-77004800D03*
X87985600Y-77004800D03*
X85445600Y-77004800D03*
D38*
X157085600Y-93244800D03*
X157085600Y-90744800D03*
X157085600Y-88744800D03*
X157085600Y-86244800D03*
D39*
X159737720Y-96144800D03*
X159737720Y-83344800D03*
D13*
X129085600Y-80124800D03*
D14*
X129085600Y-87744800D03*
D13*
X132085600Y-80124800D03*
D14*
X132085600Y-87744800D03*
D40*
X87585600Y-125744800D03*
D23*
X87585600Y-123204800D03*
X87585600Y-120664800D03*
D15*
X80085600Y-77244800D03*
D41*
X132585600Y-125744800D03*
D42*
X132585600Y-123744800D03*
X132585600Y-121744800D03*
X132585600Y-119744800D03*
D26*
X134085600Y-129764800D03*
X134085600Y-128744800D03*
D13*
X120085600Y-80124800D03*
D14*
X120085600Y-87744800D03*
D13*
X123085600Y-80124800D03*
D14*
X123085600Y-87744800D03*
D32*
X104465600Y-104324800D03*
D33*
X109545600Y-104324800D03*
D32*
X114625600Y-104324800D03*
D34*
X112085600Y-99244800D03*
X105735600Y-101784800D03*
D43*
X113065600Y-85244800D03*
X114085600Y-85244800D03*
D15*
X80085600Y-89744800D03*
D44*
X131585600Y-116244800D03*
X132885600Y-116244800D03*
X134185600Y-116244800D03*
D15*
X164085600Y-128244800D03*
D24*
X79475600Y-106944800D03*
D25*
X79475600Y-94244800D03*
D38*
X162085600Y-67434800D03*
X162085600Y-64934800D03*
X162085600Y-62934800D03*
X162085600Y-60434800D03*
D39*
X164737720Y-70334800D03*
X164737720Y-57534800D03*
D37*
X143305600Y-71434800D03*
X145845600Y-71434800D03*
X148385600Y-71434800D03*
X150925600Y-71434800D03*
X153465600Y-71434800D03*
X156005600Y-71434800D03*
X158545600Y-71434800D03*
X161085600Y-71434800D03*
X161085600Y-56194800D03*
X158545600Y-56194800D03*
X156005600Y-56194800D03*
X153465600Y-56194800D03*
X150925600Y-56194800D03*
X148385600Y-56194800D03*
X145845600Y-56194800D03*
X143305600Y-56194800D03*
D45*
X151545600Y-60434800D03*
D12*
X154085600Y-60434800D03*
D46*
X145885600Y-68334800D03*
D23*
X148425600Y-68334800D03*
X150965600Y-68334800D03*
X153505600Y-68334800D03*
X156045600Y-68334800D03*
M02*
